<?xml version="1.0" encoding="UTF-8" standalone="no"?>
<svg
   width="1920"
   height="1080"
   viewBox="0 0 507.99999 285.75001"
   version="1.1"
   id="svg2313"
   sodipodi:docname="transparent-dark.svg"
   inkscape:version="1.1 (c4e8f9ed74, 2021-05-24)"
   inkscape:export-filename="/keybase/team/witnet.design/2021/Witnet Project/Branding/Logo/Horizontal/With Eye/PNG/transparent-dark.png"
   inkscape:export-xdpi="96"
   inkscape:export-ydpi="96"
   xmlns:inkscape="http://www.inkscape.org/namespaces/inkscape"
   xmlns:sodipodi="http://sodipodi.sourceforge.net/DTD/sodipodi-0.dtd"
   xmlns="http://www.w3.org/2000/svg"
   xmlns:svg="http://www.w3.org/2000/svg"
   xmlns:rdf="http://www.w3.org/1999/02/22-rdf-syntax-ns#"
   xmlns:cc="http://creativecommons.org/ns#"
   xmlns:dc="http://purl.org/dc/elements/1.1/">
  <defs
     id="defs2307" />
  <sodipodi:namedview
     id="base"
     pagecolor="#ffffff"
     bordercolor="#666666"
     borderopacity="1.0"
     inkscape:pageopacity="0.0"
     inkscape:pageshadow="2"
     inkscape:zoom="0.98994949"
     inkscape:cx="917.72359"
     inkscape:cy="464.1651"
     inkscape:document-units="px"
     inkscape:current-layer="g2980"
     inkscape:document-rotation="0"
     showgrid="false"
     units="px"
     inkscape:snap-bbox="true"
     inkscape:bbox-paths="true"
     inkscape:bbox-nodes="true"
     inkscape:snap-page="true"
     borderlayer="true"
     inkscape:showpageshadow="false"
     inkscape:window-width="2560"
     inkscape:window-height="1381"
     inkscape:window-x="0"
     inkscape:window-y="0"
     inkscape:window-maximized="1"
     inkscape:pagecheckerboard="0" />
  <metadata
     id="metadata2310">
    <rdf:RDF>
      <cc:Work
         rdf:about="">
        <dc:format>image/svg+xml</dc:format>
        <dc:type
           rdf:resource="http://purl.org/dc/dcmitype/StillImage" />
      </cc:Work>
    </rdf:RDF>
  </metadata>
  <g
     inkscape:label="Layer 1"
     inkscape:groupmode="layer"
     id="layer1">
    <g
       id="g2980"
       transform="matrix(4.5506983,0,0,4.5506983,-244.81612,-548.58736)"
       style="fill:#181819;fill-opacity:1"
       inkscape:export-filename="/home/asdpc/g2980.png"
       inkscape:export-xdpi="299"
       inkscape:export-ydpi="299">
      <g
         id="g3156">
        <g
           id="g72"
           transform="matrix(0.24794412,0,0,-0.24794412,93.210836,149.93175)"
           style="fill:#ffffff;fill-opacity:1">
          <path
             d="M 0,0 13.096,-8.133 0,-16.28 c 0.952,2.534 1.512,5.278 1.512,8.147 0,2.87 -0.56,5.599 -1.512,8.133 m -43.315,0 c -0.952,-2.534 -1.512,-5.277 -1.512,-8.133 0,-2.869 0.546,-5.599 1.512,-8.133 l -13.096,8.133 z m 21.658,10.19 c 10.142,0 18.3,-8.174 18.3,-18.323 0,-10.148 -8.171,-18.309 -18.3,-18.309 -10.144,0 -18.315,8.174 -18.315,18.309 0,10.134 8.185,18.323 18.315,18.323 m 0,8.903 -2.267,-1.4 -8.969,-5.571 c -0.643,-0.364 -1.258,-0.742 -1.86,-1.162 l -30.71,-19.093 30.71,-19.079 c 0.615,-0.42 1.245,-0.812 1.902,-1.176 l 11.207,-6.957 11.025,6.859 c 0.028,0.014 0.056,0.042 0.084,0.056 0.685,0.378 1.357,0.798 2.001,1.246 l 30.696,19.051 -30.71,19.079 c -0.616,0.42 -1.245,0.826 -1.903,1.19 z"
             style="fill:#ffffff;fill-opacity:1;fill-rule:nonzero;stroke:none"
             id="path74" />
        </g>
        <g
           id="g76"
           transform="matrix(0.24794412,0,0,-0.24794412,99.822761,153.02076)"
           style="fill:#ffffff;fill-opacity:1">
          <path
             d="m 0,0 c -1.413,-0.014 -2.952,-0.392 -4.505,-1.302 l -39.287,-24.398 0.393,-0.238 c 1.104,-0.644 2.559,-1.092 4.169,-1.063 1.413,0.013 2.952,0.391 4.504,1.301 l 7.723,4.802 31.55,19.61 -0.405,0.252 C 3.036,-0.42 1.609,0.014 0,0"
             style="fill:#ffffff;fill-opacity:1;fill-rule:nonzero;stroke:none"
             id="path78" />
        </g>
        <g
           id="g80"
           transform="matrix(0.24794412,0,0,-0.24794412,85.586058,144.17734)"
           style="fill:#ffffff;fill-opacity:1">
          <path
             d="m 0,0 c -1.413,-0.014 -2.952,-0.392 -4.505,-1.302 l -7.723,-4.801 -31.563,-19.611 c 2.042,-1.372 5.498,-2.072 9.065,0 L 4.562,-1.316 4.17,-1.078 C 3.064,-0.42 1.623,0.028 0,0"
             style="fill:#ffffff;fill-opacity:1;fill-rule:nonzero;stroke:none"
             id="path82" />
        </g>
        <g
           id="g84"
           transform="matrix(0.24794412,0,0,-0.24794412,121.15806,147.08307)"
           style="fill:#ffffff;fill-opacity:1">
          <path
             d="M 0,0 H -6.677 V -39.427 H 0 v 23.068 h 5.923 v 6.77 H 0 Z"
             style="fill:#ffffff;fill-opacity:1;fill-rule:nonzero;stroke:none"
             id="path86" />
        </g>
        <g
           id="g88"
           transform="matrix(0.24794412,0,0,-0.24794412,141.05533,149.46068)"
           style="fill:#ffffff;fill-opacity:1">
          <path
             d="M 0,0 V 9.589 H -6.677 V -29.838 H 0 V -6.77 H 5.923 V 0 Z"
             style="fill:#ffffff;fill-opacity:1;fill-rule:nonzero;stroke:none"
             id="path90" />
        </g>
        <path
           d="m 116.15983,156.85883 h 1.62973 v -7.39815 h -1.62973 z"
           style="fill:#ffffff;fill-opacity:1;fill-rule:nonzero;stroke:none;stroke-width:0.247944"
           id="path92" />
        <path
           d="m 117.77667,147.08314 h -1.6047 v 1.71131 h 1.6047 z"
           style="fill:#ffffff;fill-opacity:1;fill-rule:nonzero;stroke:none;stroke-width:0.247944"
           id="path94" />
        <g
           id="g96"
           transform="matrix(0.24794412,0,0,-0.24794412,112.8219,155.23011)"
           style="fill:#ffffff;fill-opacity:1">
          <path
             d="m 0,0 h -11.347 v 23.269 h -6.568 V 0 h -9.853 c -1.357,0 -2.458,1.1 -2.458,2.458 v 20.811 h -6.569 v -23.67 c 0,-3.407 2.762,-6.168 6.168,-6.168 H 6.569 V 23.269 H 0 Z"
             style="fill:#ffffff;fill-opacity:1;fill-rule:nonzero;stroke:none"
             id="path98" />
        </g>
        <g
           id="g100"
           transform="matrix(0.24794412,0,0,-0.24794412,128.64892,149.46068)"
           style="fill:#ffffff;fill-opacity:1">
          <path
             d="m 0,0 h -19.954 v -29.819 h 6.568 v 23.25 h 10.527 c 1.357,0 2.458,-1.1 2.458,-2.458 V -29.819 H 6.168 V -6.167 C 6.168,-2.761 3.406,0 0,0"
             style="fill:#ffffff;fill-opacity:1;fill-rule:nonzero;stroke:none"
             id="path102" />
        </g>
        <g
           id="g104"
           transform="matrix(0.24794412,0,0,-0.24794412,133.93251,151.01445)"
           style="fill:#ffffff;fill-opacity:1">
          <path
             d="M 0,0 C 3.012,1.601 5.922,1.053 8.377,-0.981 L -4.231,-7.684 C -4.493,-4.483 -3.114,-1.656 0,0 m 8.748,-16.204 c -3.839,-2.04 -8.279,-0.941 -11.059,3.034 L 18.233,-2.249 C 17.884,-1.414 17.455,-0.622 16.969,0.13 16.86,0.303 16.744,0.465 16.631,0.632 13.864,4.562 9.302,7.137 4.131,7.137 2.098,7.137 0.161,6.732 -1.613,6.011 -1.746,5.955 -1.879,5.904 -2.01,5.844 -2.553,5.606 -3.073,5.332 -3.581,5.034 -4.045,4.761 -4.482,4.465 -4.907,4.159 c -3.782,-2.782 -6.248,-7.251 -6.248,-12.307 0,-8.443 6.843,-15.287 15.286,-15.287 7.666,0 13.995,5.65 15.098,13.009 -1.647,0.005 -6.036,0.017 -6.067,0.019 -0.552,-2.49 -2.131,-4.583 -4.414,-5.797"
             style="fill:#ffffff;fill-opacity:1;fill-rule:nonzero;stroke:none"
             id="path106" />
        </g>
        <path
           d="m 144.49785,156.85412 h -1.65378 v -1.65378 h 1.65378 z"
           style="fill:#41bea5;fill-opacity:1;fill-rule:nonzero;stroke:none;stroke-width:0.247944"
           id="path108" />
      </g>
    </g>
  </g>
</svg>
