<?xml version="1.0" encoding="UTF-8" standalone="no"?>
<svg
   xmlns:dc="http://purl.org/dc/elements/1.1/"
   xmlns:cc="http://creativecommons.org/ns#"
   xmlns:rdf="http://www.w3.org/1999/02/22-rdf-syntax-ns#"
   xmlns:svg="http://www.w3.org/2000/svg"
   xmlns="http://www.w3.org/2000/svg"
   xmlns:sodipodi="http://sodipodi.sourceforge.net/DTD/sodipodi-0.dtd"
   xmlns:inkscape="http://www.inkscape.org/namespaces/inkscape"
   width="1920"
   height="1920"
   viewBox="0 0 507.99998 508.00002"
   version="1.1"
   id="svg4666"
   inkscape:version="1.0.2 (e86c870879, 2021-01-15)"
   sodipodi:docname="transparent-dark.svg"
   inkscape:export-filename="/keybase/team/witnet.design/2021/Witnet Project/Branding/Logo/Square/Wit-net/PNG/transparent-dark.png"
   inkscape:export-xdpi="96"
   inkscape:export-ydpi="96">
  <defs
     id="defs4660" />
  <sodipodi:namedview
     id="base"
     pagecolor="#ffffff"
     bordercolor="#666666"
     borderopacity="1.0"
     inkscape:pageopacity="0.0"
     inkscape:pageshadow="2"
     inkscape:zoom="0.49497475"
     inkscape:cx="618.12225"
     inkscape:cy="865.49098"
     inkscape:document-units="px"
     inkscape:current-layer="layer1"
     inkscape:document-rotation="0"
     showgrid="false"
     units="px"
     borderlayer="true"
     inkscape:showpageshadow="false"
     inkscape:snap-page="true"
     inkscape:snap-bbox="true"
     inkscape:bbox-paths="true"
     inkscape:bbox-nodes="true"
     inkscape:window-width="2560"
     inkscape:window-height="1381"
     inkscape:window-x="0"
     inkscape:window-y="0"
     inkscape:window-maximized="1" />
  <metadata
     id="metadata4663">
    <rdf:RDF>
      <cc:Work
         rdf:about="">
        <dc:format>image/svg+xml</dc:format>
        <dc:type
           rdf:resource="http://purl.org/dc/dcmitype/StillImage" />
        <dc:title></dc:title>
      </cc:Work>
    </rdf:RDF>
  </metadata>
  <g
     inkscape:label="Layer 1"
     inkscape:groupmode="layer"
     id="layer1">
    <g
       id="g5272"
       transform="matrix(1.6018787,0,0,1.6018787,14.421299,41.456978)"
       style="fill:#181819;fill-opacity:1">
      <path
         d="m 216.07404,45.407507 h -15.70367 l -0.0672,173.123153 h 15.70506 V 164.27412 H 229.9386 V 148.3515 h -13.93037 l 0.0661,-64.468188 h 13.93037 v -15.92256 h -13.93037 z"
         style="fill:#ffffff;fill-opacity:1;fill-rule:nonzero;stroke:none;stroke-width:1.37679"
         id="path138" />
      <path
         d="m 184.11953,67.96114 h -15.45996 v 70.17916 h 15.45996 z"
         style="fill:#ffffff;fill-opacity:1;fill-rule:nonzero;stroke:none;stroke-width:1.37679"
         id="path140" />
      <path
         d="m 183.99975,45.407952 h -15.22318 v 16.23374 h 15.22318 z"
         style="fill:#ffffff;fill-opacity:1;fill-rule:nonzero;stroke:none;stroke-width:1.37679"
         id="path142" />
      <path
         d="m 64.96317,138.13919 h 87.48537 V 67.96003 H 136.9982 v 54.72881 H 110.31187 V 67.96003 H 94.861525 v 54.72881 H 71.688808 c -3.192819,0 -5.781158,-2.58839 -5.781158,-5.78115 V 67.96003 H 50.458691 v 55.67329 c 0,8.01156 6.494306,14.50587 14.504479,14.50587"
         style="fill:#ffffff;fill-opacity:1;fill-rule:nonzero;stroke:none;stroke-width:1.37679"
         id="path146" />
      <path
         d="M 98.32088,148.35222 H 51.390232 v 70.13369 H 66.840525 V 163.80252 H 91.59663 c 3.194152,0 5.77977,2.58839 5.77977,5.78115 v 48.90224 h 15.45168 v -55.62782 c 0,-8.01156 -6.49431,-14.50587 -14.5072,-14.50587"
         style="fill:#ffffff;fill-opacity:1;fill-rule:nonzero;stroke:none;stroke-width:1.37679"
         id="path150" />
      <path
         d="m 148.44057,164.84273 c 7.08496,-3.76554 13.92899,-2.47684 19.70465,2.30747 l -29.65609,15.76425 c -0.61542,-7.52691 2.62693,-14.17819 9.95144,-18.07172 m 20.57477,38.11093 c -9.02623,4.79947 -19.47198,2.21385 -26.0076,-7.13594 l 48.31847,-25.68537 c -0.82193,-1.9647 -1.8311,-3.82751 -2.97521,-5.59664 -0.25487,-0.40758 -0.52863,-0.78755 -0.79444,-1.18131 -6.5053,-9.24378 -17.23603,-15.29892 -29.3986,-15.29892 -4.78293,0 -9.33741,0.95276 -13.5118,2.64759 -0.30985,0.13382 -0.62231,0.2521 -0.9321,0.39369 -1.27493,0.5604 -2.5016,1.20747 -3.69391,1.90412 -1.09179,0.64297 -2.12167,1.33823 -3.11985,2.05966 -8.89818,6.5425 -14.69583,17.05433 -14.69583,28.94704 0,19.85607 16.09742,35.9521 35.95349,35.9521 18.02908,0 32.91631,-13.28741 35.50882,-30.59501 -3.87293,-0.0111 -14.19608,-0.0389 -14.2691,-0.0444 -1.29553,5.85823 -5.01148,10.78025 -10.38234,13.63574"
         style="fill:#ffffff;fill-opacity:1;fill-rule:nonzero;stroke:none;stroke-width:1.37679"
         id="path154" />
      <path
         d="m 232.97495,218.48702 h 15.68851 v -15.68851 h -15.68851 z"
         style="fill:#41bea5;fill-opacity:1;fill-rule:nonzero;stroke:none;stroke-width:1.37679"
         id="path156" />
    </g>
  </g>
</svg>
