<?xml version="1.0" encoding="UTF-8" standalone="no"?>
<!-- Created with Inkscape (http://www.inkscape.org/) -->

<svg
   version="1.1"
   id="svg1"
   width="416.11328"
   height="646.46289"
   viewBox="0 0 416.11328 646.46287"
   xml:space="preserve"
   xmlns:xlink="http://www.w3.org/1999/xlink"
   xmlns="http://www.w3.org/2000/svg"
   xmlns:svg="http://www.w3.org/2000/svg"><defs
     id="defs1"><linearGradient
       xlink:href="#linearGradient1"
       id="linearGradient3"
       gradientUnits="userSpaceOnUse"
       x1="231.67102"
       y1="495.13165"
       x2="236.11589"
       y2="338.9328"
       gradientTransform="translate(1.0000001e-6)" /><linearGradient
       id="linearGradient1"><stop
         style="stop-color:#a0670f;stop-opacity:1;"
         offset="0.58868897"
         id="stop1" /><stop
         style="stop-color:#792600;stop-opacity:0;"
         offset="1"
         id="stop2" /></linearGradient><linearGradient
       xlink:href="#linearGradient1"
       id="linearGradient11"
       gradientUnits="userSpaceOnUse"
       x1="246.84686"
       y1="-45.842987"
       x2="240.21681"
       y2="147.88438"
       gradientTransform="translate(-1.8932136e-4,1.079261)" /></defs><g
     id="g19"><g
       id="g17"
       transform="translate(0.00196907,200.39298)"><path
         d="m 368.71289,411.4082 c -1.0775,0 -2.09258,0.10498 -3.04687,0.30078 -0.9552,0.1958 -1.84969,0.48111 -2.67969,0.84571 -0.8299,0.3647 -1.59824,0.80745 -2.30274,1.31445 -0.7048,0.5069 -1.34582,1.07767 -1.92382,1.70117 -0.5782,0.6235 -1.09227,1.30028 -1.54297,2.01367 -0.4511,0.7135 -0.83856,1.46374 -1.16016,2.24024 -0.3217,0.7766 -0.57998,1.57898 -0.77148,2.39258 -0.1926,0.81358 -0.31741,1.63909 -0.37891,2.46289 -0.061,0.8238 -0.0583,1.6473 0.0137,2.45508 0.071,0.80779 0.20701,1.59993 0.41211,2.36523 0.2037,0.7653 0.47595,1.50322 0.81445,2.19922 0.3393,0.6961 0.74395,1.35017 1.21875,1.95117 0.4746,0.601 1.01701,1.14961 1.62891,1.62891 0.6105,0.4793 1.29046,0.8898 2.03906,1.2207 0.7485,0.3309 1.56658,0.58218 2.45508,0.73828 0.8879,0.1561 1.84535,0.21686 2.87305,0.17188 0.9453,-0.041 1.83703,-0.15554 2.67383,-0.33594 0.8368,-0.1803 1.62051,-0.42727 2.34961,-0.73047 0.72959,-0.3033 1.40474,-0.66432 2.02734,-1.07422 0.6235,-0.41 1.19364,-0.86749 1.71094,-1.36719 0.5182,-0.4998 0.98513,-1.04008 1.39843,-1.61328 0.4134,-0.5733 0.77254,-1.17955 1.08204,-1.81054 0.3101,-0.63088 0.56889,-1.28689 0.77539,-1.95899 0.2077,-0.6722 0.36219,-1.36189 0.46679,-2.05859 0.1236,-0.8195 0.17801,-1.64932 0.16211,-2.47852 -0.016,-0.8291 -0.10176,-1.65675 -0.25586,-2.46875 -0.154,-0.812 -0.37677,-1.60875 -0.66797,-2.37695 -0.2909,-0.7682 -0.65007,-1.50883 -1.07617,-2.20703 -0.4268,-0.6981 -0.92162,-1.35388 -1.48242,-1.95508 -0.5592,-0.6012 -1.18485,-1.147 -1.87695,-1.625 -0.6923,-0.4779 -1.45054,-0.88674 -2.27344,-1.21484 -0.8225,-0.3281 -1.71031,-0.57517 -2.66211,-0.72657 z"
         style="fill:#e2b650;stroke:#000100;stroke-width:0;stroke-opacity:0.870968"
         id="path17" /><path
         d="m 24.388672,398.20117 c -0.234,0.01 -0.470185,0.0325 -0.708985,0.0625 -0.479199,0.062 -0.970403,0.16961 -1.470703,0.32031 -0.500799,0.1508 -1.011803,0.34495 -1.533203,0.58985 -0.685899,0.3221 -1.353694,0.72496 -1.996094,1.19726 -0.643399,0.4723 -1.263069,1.01559 -1.855468,1.61719 -0.5909,0.6016 -1.151995,1.26276 -1.683594,1.97266 -0.531199,0.7098 -1.030688,1.46737 -1.492187,2.26367 -0.4623,0.7964 -0.885832,1.63244 -1.269532,2.49414 -0.383099,0.8616 -0.728491,1.74985 -1.02539,2.65625 -0.2954,0.9064 -0.546847,1.83009 -0.748047,2.75977 -0.1998,0.92969 -0.349413,1.86507 -0.445313,2.79687 -0.094,0.9317 -0.135387,1.86054 -0.117187,2.77344 0.018,0.9129 0.09498,1.80934 0.238281,2.68164 0.1411,0.8724 0.344388,1.71872 0.617188,2.5293 0.273899,0.81069 0.61765,1.58615 1.03125,2.31445 0.413599,0.7282 0.896684,1.41046 1.458984,2.03515 0.562799,0.6247 1.205635,1.19191 1.927734,1.69141 0.7204,0.4994 1.524164,0.93216 2.414063,1.28516 0.888599,0.353 1.864188,0.6266 2.929687,0.8125 0.7229,0 1.417485,-0.04 2.083985,-0.11914 0.665399,-0.079 1.30231,-0.19586 1.912109,-0.34766 0.610699,-0.1518 1.193147,-0.33939 1.748047,-0.55859 0.555299,-0.2192 1.082785,-0.47066 1.583984,-0.75196 0.5017,-0.2814 0.978635,-0.5921 1.427735,-0.92968 0.449099,-0.3377 0.873584,-0.70125 1.271484,-1.08985 0.795999,-0.7771 1.489891,-1.65251 2.087891,-2.59961 0.597299,-0.9471 1.096859,-1.96656 1.505859,-3.03906 0.4082,-1.0725 0.725078,-2.19836 0.955078,-3.35156 0.2289,-1.1532 0.370941,-2.33424 0.431641,-3.52344 0.059,-1.1892 0.0365,-2.38531 -0.0625,-3.56641 -0.1006,-1.18119 -0.278851,-2.34601 -0.53125,-3.47461 -0.2507,-1.12849 -0.575951,-2.22115 -0.96875,-3.25195 -0.3928,-1.0308 -0.852454,-2.00184 -1.376953,-2.89062 -0.5252,-0.8889 -1.11402,-1.69624 -1.761719,-2.39844 -0.646599,-0.7022 -1.352682,-1.29853 -2.113281,-1.76953 -0.3796,-0.2355 -0.773288,-0.43968 -1.179688,-0.60938 -0.406599,-0.16962 -0.826013,-0.30464 -1.257812,-0.40234 -0.4318,-0.098 -0.877385,-0.15949 -1.333985,-0.17969 -0.2276,-0.01 -0.458406,-0.01 -0.691406,0 z"
         style="fill:#e2b650;stroke:#000100;stroke-width:0;stroke-opacity:0.870968"
         id="path16" /><path
         d="m 7.6992187,311.16016 c -0.5327994,0 -1.0505348,0.054 -1.5527343,0.15625 -0.5015995,0.1022 -0.9866661,0.25296 -1.4472657,0.44726 -0.4610995,0.1943 -0.9010472,0.43083 -1.3105468,0.70703 -0.4096996,0.2762 -0.7908722,0.59156 -1.1386719,0.93946 -0.3470997,0.348 -0.6605003,0.72917 -0.9375,1.13867 -0.2763997,0.4095 -0.51398457,0.84769 -0.70898438,1.30859 -0.1937998,0.4609 -0.34436572,0.94507 -0.44726562,1.44727 -0.1021999,0.5021 -0.15429687,1.02149 -0.15429687,1.55468 v 41.48633 15.85352 c 0,0.5332 0.05199697,1.05249 0.15429687,1.55469 0.1028999,0.5021 0.25346582,0.98636 0.44726562,1.44726 0.19499981,0.4609 0.43258468,0.8991 0.70898438,1.3086 0.2534997,0.3745 0.5445222,0.71771 0.8574219,1.04101 0.029,0.03 0.050078,0.0677 0.080078,0.0977 0.3477997,0.3479 0.7289723,0.66325 1.1386719,0.93945 0.4094996,0.2762 0.8472942,0.51273 1.3085937,0.70703 0.4605996,0.1943 0.9456662,0.34497 1.4472656,0.44727 0.5023995,0.1022 1.0218881,0.15625 1.5546875,0.15625 h 0.076172 c 0.3178997,0.2051 0.6147722,0.37971 0.9511719,0.60351 0.8315992,0.5544 1.6575885,1.2027 2.4921875,1.8418 0.834799,0.639 1.679576,1.26897 2.546875,1.79297 0.4335,0.2621 0.872913,0.49591 1.320313,0.6914 0.447899,0.1956 0.902887,0.35399 1.367187,0.45899 0.4657,0.1049 0.939882,0.15728 1.425781,0.14648 0.4852,-0.011 0.982588,-0.086 1.492188,-0.23828 0.761999,-0.2265 1.380725,-0.49724 1.890625,-0.81054 0.509699,-0.3133 0.912134,-0.66895 1.240234,-1.06055 0.328,-0.3915 0.581322,-0.8183 0.794922,-1.2793 0.2123,-0.4611 0.385181,-0.95711 0.550781,-1.47851 0.064,-0.2036 0.168975,-0.45597 0.234375,-0.66797 h 21.308594 c 0.2929,0.6224 0.621707,1.19687 0.878906,1.85937 0.525,1.3529 0.972326,2.78449 1.328125,4.27149 0.3674,1.5332 0.80996,2.91309 1.31836,4.15429 0.508899,1.2411 1.082338,2.34432 1.710937,3.32422 0.629199,0.9798 1.312016,1.83829 2.041016,2.58789 0.729499,0.7496 1.506307,1.39071 2.316406,1.94141 0.809899,0.5506 1.653938,1.00998 2.523437,1.39258 0.8695,0.3825 1.76413,0.68799 2.673829,0.93359 0.910399,0.2457 1.836926,0.43257 2.765625,0.57227 0.929599,0.1398 1.862416,0.23207 2.791015,0.29687 0,0.5182 -0.0158,1.36712 0.0332,2.54492 0.049,1.1778 0.161769,2.6848 0.417969,4.52539 0.2544,1.8406 0.652785,4.01499 1.271484,6.52149 0.3091,1.2532 0.672363,2.58937 1.101563,4.00976 0.4292,1.4203 0.926141,2.92392 1.494141,4.51172 0.234399,0.6532 0.508259,1.28237 0.818359,1.88477 0.3107,0.6024 0.654404,1.17906 1.033203,1.72656 0.3778,0.5475 0.788816,1.06619 1.228516,1.55469 0.438299,0.4885 0.904431,0.94499 1.394531,1.37109 0.4894,0.426 1.00371,0.82009 1.537109,1.17969 0.5329,0.3595 1.085498,0.68571 1.654297,0.97461 0.5676,0.2889 1.149541,0.54126 1.744141,0.75586 0.593899,0.2147 1.2004,0.39124 1.8125,0.52734 0.613199,0.136 1.230316,0.23361 1.853515,0.28711 0.6217,0.054 1.249548,0.0623 1.873047,0.0293 0.6239,-0.032 1.246482,-0.10787 1.863282,-0.23047 0.617799,-0.1227 1.228831,-0.29297 1.832031,-0.50977 0.601799,-0.2168 1.194738,-0.48207 1.773437,-0.79687 0.58,-0.3147 1.14686,-0.6789 1.69336,-1.0957 0.547999,-0.41678 1.077285,-0.88541 1.583984,-1.40821 0.5069,-0.5227 0.992172,-1.09992 1.451172,-1.73242 0.4675,-1.0124 0.876922,-2.05635 1.232422,-3.11523 0.3567,-1.0589 0.660675,-2.13369 0.921875,-3.20899 0.2608,-1.0753 0.478403,-2.15159 0.658203,-3.21289 0.1813,-1.0613 0.324853,-2.1076 0.439453,-3.125 0.2297,-2.0348 0.341585,-3.95131 0.396484,-5.6289 0.055,-1.67768 0.05469,-3.11692 0.05469,-4.19532 0.3238,-0.1944 0.652882,-0.34589 0.988281,-0.46289 0.336,-0.117 0.67709,-0.19991 1.02149,-0.25781 0.68959,-0.1159 1.39395,-0.13189 2.09765,-0.12109 0.7052,0.011 1.40942,0.049 2.10352,0.041 0.6945,-0.01 1.37911,-0.063 2.03711,-0.23633 0.3298,-0.086 0.65315,-0.20232 0.96875,-0.35742 0.3155,-0.155 0.62337,-0.34824 0.92187,-0.58984 0.2981,-0.2416 0.58819,-0.53036 0.86719,-0.87696 0.2773,-0.34649 0.54558,-0.751 0.80078,-1.2207 0.255,-0.4696 0.49701,-1.00433 0.72461,-1.61523 0.2288,-0.6109 0.44338,-1.29766 0.64258,-2.06836 0.3975,-1.5412 0.73329,-3.42009 0.99219,-5.70899 0.2596,-2.28899 0.56385,-4.2776 0.91015,-6.0039 0.3452,-1.7265 0.7322,-3.19075 1.1543,-4.43555 0.2127,-0.6266 0.4575,-1.04691 0.6875,-1.56641 h 19.29101 c 0.4556,0.1133 0.90693,0.23327 1.45313,0.25977 0.9276,0.07 1.76484,0.18459 2.52344,0.33789 0.758,0.1533 1.43677,0.34567 2.04687,0.57227 0.6092,0.2267 1.14711,0.48869 1.62891,0.77929 0.4813,0.2907 0.90414,0.60843 1.27734,0.95313 0.3738,0.3448 0.69778,0.71421 0.98438,1.10351 0.2866,0.3893 0.53616,0.79991 0.75586,1.22461 0.4387,0.8493 0.76284,1.75851 1.05664,2.69141 0.2941,0.9329 0.55604,1.88978 0.86914,2.83008 0.3129,0.9403 0.67743,1.86327 1.17383,2.73437 0.2484,0.4356 0.52981,0.85957 0.85351,1.26367 0.324,0.40424 0.69208,0.78955 1.11328,1.15235 0.4214,0.363 0.89645,0.70352 1.43555,1.01562 0.5397,0.312 1.14096,0.59556 1.81836,0.84766 1.2446,0.3418 2.41893,0.53872 3.51953,0.60742 1.101,0.069 2.12864,0.0101 3.08594,-0.16211 0.9568,-0.1709 1.8414,-0.45182 2.65429,-0.82812 0.8128,-0.3763 1.55351,-0.84723 2.22071,-1.39453 0.6684,-0.5474 1.26341,-1.17288 1.78711,-1.85743 0.5232,-0.6847 0.97326,-1.42929 1.35156,-2.21679 0.3782,-0.7876 0.68432,-1.61821 0.91601,-2.47461 0.233,-0.8565 0.39337,-1.73926 0.48047,-2.63086 0.2162,-0.835 0.46309,-1.59391 0.73828,-2.28321 0.2753,-0.68929 0.5778,-1.31023 0.9043,-1.86523 0.3269,-0.5551 0.67542,-1.04466 1.04492,-1.47656 0.37,-0.4319 0.75917,-0.8059 1.16407,-1.125 0.03,-0.023 0.0628,-0.0356 0.0918,-0.0586 H 184.875 c 0.6684,0.3274 1.31101,0.67304 1.84961,1.01954 0.6214,0.399 1.14275,0.79091 1.53125,1.13281 0.7718,1.2809 1.56323,2.40481 2.36133,3.3789 0.7987,0.974 1.6062,1.79702 2.4082,2.47852 0.8025,0.6814 1.59971,1.2218 2.38281,1.625 0.7831,0.4032 1.55072,0.66969 2.29102,0.80859 0.7408,0.1388 1.45456,0.14861 2.13086,0.0371 0.6752,-0.1113 1.31494,-0.3445 1.90234,-0.6914 0.5885,-0.347 1.12496,-0.80836 1.60156,-1.37696 0.4763,-0.5686 0.89303,-1.24363 1.23633,-2.01953 0.3541,-0.6885 0.7741,-1.34404 1.25,-1.96484 0.4756,-0.6207 1.00829,-1.20701 1.58789,-1.75391 0.5792,-0.5467 1.20584,-1.05468 1.86914,-1.52148 0.6014,-0.4223 1.23914,-0.79995 1.89453,-1.15235 h 17 c 0.3814,0.2736 0.77771,0.52587 1.125,0.85157 0.5617,0.5269 1.075,1.12321 1.5293,1.79101 0.4543,0.6677 0.85059,1.40776 1.17969,2.22266 0.3287,0.8149 0.58914,1.70583 0.77344,2.67383 0.183,0.968 0.28919,2.01342 0.30859,3.14062 -0.016,1.0702 0.02,2.09387 0.10547,3.07227 0.084,0.9783 0.21959,1.91067 0.40039,2.79687 0.1797,0.8863 0.40478,1.72769 0.67187,2.52149 0.269,0.79378 0.58215,1.54079 0.93165,2.24218 0.3505,0.7014 0.73671,1.3582 1.1621,1.9668 0.4253,0.6086 0.88792,1.1681 1.38282,1.68359 0.4937,0.5155 1.02348,0.98561 1.58008,1.40821 0.5571,0.4226 1.1408,0.79815 1.7539,1.12695 0.6118,0.3287 1.25151,0.6107 1.91211,0.8457 0.6618,0.2349 1.34618,0.42336 2.05078,0.56446 0.7045,0.1411 1.42923,0.2362 2.16992,0.2832 0.7405,0.047 1.49748,0.046 2.26758,0 0.7709,-0.048 1.55396,-0.1411 2.34766,-0.2832 0.7936,-0.1422 1.5976,-0.33322 2.4082,-0.57032 0.8106,-0.23699 1.62822,-0.52111 2.44922,-0.85351 0.8209,-0.3324 1.6461,-0.71313 2.4707,-1.14063 1.0073,-0.73289 1.97772,-1.37886 2.91602,-1.94336 0.9377,-0.56439 1.84484,-1.04777 2.71484,-1.45117 0.8708,-0.4035 1.70562,-0.72706 2.50782,-0.97656 0.80299,-0.2495 1.57324,-0.42369 2.31054,-0.52539 0.7372,-0.1017 1.43963,-0.1304 2.11133,-0.0918 0.6717,0.039 1.31132,0.14421 1.91992,0.31641 0.6074,0.1722 1.18332,0.41008 1.72852,0.70898 0.5445,0.299 1.06042,0.65983 1.54492,1.07813 0.4832,0.4184 0.93608,0.89508 1.35937,1.42578 0.4232,0.5308 0.81795,1.11525 1.18165,1.75195 0.3643,0.6366 0.6978,1.3269 1.0039,2.0625 0.3065,0.7355 0.58323,1.51655 0.83203,2.34375 0.4972,1.6544 0.88151,3.48505 1.15821,5.46485 0.2755,1.97967 0.44471,4.10967 0.50781,6.35937 0.028,0.9637 0.091,1.88613 0.19726,2.76953 0.104,0.8833 0.24568,1.72665 0.42188,2.53125 0.1752,0.8046 0.38475,1.57093 0.62695,2.29883 0.2424,0.728 0.51672,1.41857 0.82031,2.07227 0.3036,0.65368 0.6365,1.27201 0.9961,1.85351 0.3597,0.5816 0.74836,1.12582 1.16015,1.63672 0.4117,0.511 0.84825,0.98719 1.30665,1.42969 0.458,0.4425 0.9376,0.85016 1.4375,1.22656 0.4995,0.3764 1.01828,0.7208 1.55468,1.0332 0.5368,0.3125 1.09041,0.59355 1.65821,0.84375 1.1354,0.5002 2.32894,0.87693 3.56054,1.14063 1.2315,0.2636 2.50187,0.41373 3.78907,0.45703 1.28719,0.043 2.59153,-0.019 3.89453,-0.17969 1.3571,-0.3635 2.56116,-0.81314 3.63086,-1.33984 1.0709,-0.5268 2.00868,-1.12967 2.83398,-1.79297 0.8252,-0.6633 1.53966,-1.38726 2.16016,-2.16016 0.6218,-0.77299 1.14982,-1.59557 1.60742,-2.45117 0.4575,-0.8557 0.84379,-1.7467 1.17969,-2.6582 0.3356,-0.9116 0.6199,-1.84446 0.875,-2.78516 0.5089,-1.88119 0.89993,-3.79446 1.33203,-5.63086 1.1211,0.4321 2.2405,0.75346 3.3457,0.97266 1.107,0.2192 2.19897,0.33643 3.26367,0.36523 1.0652,0.029 2.10001,-0.0309 3.09571,-0.16992 0.99619,-0.1387 1.95186,-0.35597 2.85156,-0.63867 0.8993,-0.2828 1.74208,-0.63096 2.51758,-1.03516 0.775,-0.4042 1.48342,-0.86468 2.10742,-1.36718 0.625,-0.5025 1.16523,-1.047 1.61133,-1.625 0.4465,-0.578 0.79671,-1.18982 1.03711,-1.82032 0.5891,-1.54879 1.01987,-2.84431 1.33007,-3.94531 0.3096,-1.101 0.49922,-2.00623 0.60352,-2.76953 0.1048,-0.7634 0.1223,-1.38637 0.0957,-1.92187 -0.026,-0.5356 -0.094,-0.98415 -0.17773,-1.40235 -0.081,-0.4181 -0.17318,-0.80414 -0.23438,-1.21484 -0.061,-0.4107 -0.0906,-0.84628 -0.0586,-1.35938 0.034,-0.5131 0.13274,-1.10418 0.33594,-1.83008 0.2043,-0.72579 0.50998,-1.58646 0.95898,-2.63476 0.4047,-0.9461 0.91853,-1.79398 1.48633,-2.54688 0.5697,-0.75289 1.19597,-1.41036 1.82617,-1.97656 0.6289,-0.5661 1.26096,-1.04048 1.84766,-1.42578 0.5867,-0.3853 1.12766,-0.68278 1.56836,-0.89258 1.1887,-0.3334 2.26763,-0.48688 3.26953,-0.51758 1.0008,-0.031 1.92306,0.062 2.78906,0.22852 0.8656,0.1663 1.67543,0.40481 2.45703,0.66211 0.7821,0.2574 1.53711,0.53349 2.28711,0.77539 0.7498,0.2421 1.49678,0.45137 2.26758,0.57227 0.771,0.1208 1.56415,0.15315 2.40625,0.0469 0.421,-0.053 0.85433,-0.14168 1.30273,-0.27148 0.4484,-0.12988 0.91339,-0.30164 1.39649,-0.52149 0.9659,-0.43965 2.00478,-1.07247 3.14648,-1.95117 0.5491,-0.7329 1.10205,-1.39564 1.65625,-1.99414 0.5535,-0.5986 1.11077,-1.13352 1.66406,-1.60352 0.5528,-0.4701 1.10565,-0.87721 1.65235,-1.22461 0.5463,-0.3475 1.08845,-0.63423 1.62305,-0.86523 0.5344,-0.231 1.06347,-0.40694 1.58007,-0.52734 0.5155,-0.1205 1.01972,-0.18733 1.51172,-0.20313 0.4927,-0.016 0.97205,0.021 1.43555,0.10352 0.4627,0.083 0.90844,0.21317 1.33594,0.38867 0.4275,0.1756 0.83655,0.39766 1.22265,0.66015 0.3868,0.2625 0.7527,0.56521 1.0918,0.90821 0.3395,0.3431 0.65421,0.72498 0.94141,1.14258 0.2869,0.4176 0.54669,0.87072 0.77539,1.35742 0.2292,0.4867 0.42795,1.00684 0.59375,1.55664 0.165,0.5499 0.29708,1.12983 0.39257,1.73633 0.094,0.60643 0.15579,1.23928 0.17579,1.89648 0.02,0.6573 -5e-5,1.33862 -0.0606,2.04102 0.1662,1.65388 0.36994,3.19575 0.61914,4.62304 0.2481,1.4274 0.54241,2.74052 0.88281,3.94532 0.3413,1.20488 0.72752,2.30083 1.16992,3.28711 0.4412,0.98629 0.93653,1.86266 1.48633,2.63476 0.5509,0.7721 1.15838,1.43985 1.82617,2.00195 0.6679,0.562 1.39691,1.0193 2.19141,1.375 0.7952,0.3556 1.65554,0.61028 2.58594,0.76368 0.9296,0.15348 1.93101,0.20661 3.0039,0.16211 1.2862,-0.053 2.46627,-0.24003 3.54297,-0.54493 1.0753,-0.3049 2.04757,-0.7277 2.91797,-1.25 0.8702,-0.5223 1.6396,-1.14421 2.3086,-1.84961 0.67079,-0.70539 1.24144,-1.49551 1.71484,-2.34961 0.4729,-0.85409 0.84801,-1.77183 1.12891,-2.74023 0.281,-0.9685 0.46674,-1.98656 0.56054,-3.03516 0.092,-1.04859 0.092,-2.12805 0,-3.22265 -0.09,-1.0946 -0.26875,-2.20465 -0.53515,-3.31055 -0.4882,-2.0156 -0.80295,-3.91036 -0.96875,-5.69141 -0.1661,-1.78089 -0.18453,-3.44946 -0.0781,-5.00976 0.1055,-1.5603 0.3321,-3.01154 0.6582,-4.36524 0.3272,-1.35359 0.75135,-2.60883 1.24805,-3.76953 0.3209,-0.748 0.71014,-1.39685 1.08594,-2.06445 0.061,-0.057 0.13476,-0.099 0.19336,-0.1582 0.3482,-0.3479 0.6619,-0.72917 0.9375,-1.13867 0.276,-0.4095 0.51528,-0.8476 0.70898,-1.3086 0.049,-0.1163 0.07,-0.24603 0.11328,-0.36523 0.1286,-0.353 0.25799,-0.70663 0.33399,-1.08203 0.1005,-0.4908 0.14994,-0.99894 0.15234,-1.51954 V 360.3457 318.85937 c 0,-0.53319 -0.053,-1.05258 -0.15625,-1.55468 -0.1016,-0.5022 -0.25216,-0.98637 -0.44726,-1.44727 -0.1937,-0.4609 -0.43299,-0.89909 -0.70899,-1.30859 -0.2756,-0.4095 -0.5893,-0.79067 -0.9375,-1.13867 -0.3476,-0.3479 -0.72917,-0.66326 -1.13867,-0.93946 -0.4095,-0.2762 -0.84769,-0.51273 -1.30859,-0.70703 -0.4614,-0.1943 -0.94557,-0.34506 -1.44727,-0.44726 -0.5022,-0.1023 -1.02129,-0.15625 -1.55469,-0.15625 z"
         style="fill:#e2b650;stroke:#000100;stroke-width:0;stroke-opacity:0.870968"
         id="path15" /><path
         id="path6"
         style="display:inline;fill:url(#linearGradient3);stroke:#000100;stroke-width:0;stroke-opacity:0.870968"
         d="m 7.6992188,311.16016 c -0.5327989,0 -1.0505364,0.054 -1.5527344,0.15625 -0.5016,0.1022 -0.9866665,0.25296 -1.4472656,0.44726 -0.4610981,0.1943 -0.9010487,0.43083 -1.3105469,0.70703 -0.4097002,0.2762 -0.7908725,0.59156 -1.1386719,0.93946 -0.3470984,0.348 -0.6604996,0.72917 -0.9375,1.13867 -0.2763994,0.4095 -0.51398476,0.84769 -0.70898438,1.30859 -0.1937986,0.4609 -0.34436682,0.94507 -0.44726562,1.44727 -0.1022008,0.5021 -0.15429689,1.0215 -0.15429687,1.55469 v 41.48632 15.85352 c 0,0.5332 0.05199607,1.05249 0.15429687,1.55469 0.1028988,0.5021 0.25346702,0.98636 0.44726562,1.44726 0.19499962,0.4609 0.43258498,0.8991 0.70898438,1.3086 0.2535004,0.3745 0.5445225,0.71771 0.8574219,1.04101 0.029,0.03 0.050078,0.0677 0.080078,0.0977 0.3477994,0.3479 0.7289717,0.66325 1.1386719,0.93945 0.4094982,0.2762 0.8472947,0.51273 1.3085937,0.70703 0.4605992,0.1943 0.9456678,0.34497 1.4472656,0.44727 0.502399,0.1022 1.0218887,0.15625 1.5546876,0.15625 h 0.076172 c 0.3178994,0.2051 0.6147735,0.37971 0.9511719,0.60351 0.8315984,0.5544 1.6575894,1.2027 2.4921874,1.8418 0.834798,0.639 1.679577,1.26897 2.546875,1.79297 0.4335,0.2621 0.872913,0.49592 1.320313,0.6914 0.447898,0.1956 0.902887,0.35399 1.367187,0.45899 0.4657,0.1049 0.939883,0.15728 1.425781,0.14648 0.4852,-0.011 0.982588,-0.086 1.492188,-0.23828 0.761998,-0.2265 1.380725,-0.49724 1.890625,-0.81054 0.509698,-0.3133 0.912134,-0.66895 1.240234,-1.06055 0.328,-0.3915 0.581322,-0.8183 0.794922,-1.2793 0.2123,-0.4611 0.385181,-0.95711 0.550781,-1.47851 0.064,-0.2036 0.168975,-0.45597 0.234375,-0.66797 h 21.308594 c 0.2929,0.6224 0.621708,1.19687 0.878906,1.85937 0.525,1.3529 0.972327,2.78449 1.328125,4.27149 0.3674,1.5332 0.80996,2.91309 1.31836,4.15429 0.508898,1.2411 1.082339,2.34432 1.710937,3.32422 0.629198,0.9798 1.312016,1.83829 2.041016,2.58789 0.729498,0.7496 1.506308,1.39071 2.316406,1.94141 0.809898,0.5506 1.653939,1.00998 2.523437,1.39258 0.8695,0.3825 1.764131,0.68799 2.673829,0.93359 0.910398,0.2457 1.836927,0.43257 2.765625,0.57227 0.929598,0.1398 1.862417,0.23207 2.791015,0.29687 0,0.5182 -0.0158,1.36712 0.0332,2.54492 0.049,1.1778 0.161769,2.68481 0.417969,4.52539 0.2544,1.8406 0.652786,4.01499 1.271485,6.52149 0.309099,1.2532 0.672362,2.58938 1.101562,4.00976 0.4292,1.4203 0.926141,2.92392 1.494141,4.51172 0.234398,0.6532 0.508259,1.28237 0.818359,1.88477 0.3107,0.6024 0.654405,1.17906 1.033203,1.72656 0.3778,0.5475 0.788816,1.06619 1.228516,1.55469 0.438298,0.4885 0.904431,0.94499 1.394531,1.37109 0.4894,0.426 1.003711,0.82009 1.537109,1.17969 0.5329,0.3595 1.085499,0.68571 1.654297,0.97461 0.5676,0.2889 1.149541,0.54126 1.744141,0.75586 0.593898,0.2147 1.2004,0.39124 1.8125,0.52734 0.613198,0.136 1.230317,0.23361 1.853515,0.28711 0.6217,0.054 1.249549,0.0623 1.873047,0.0293 0.6239,-0.032 1.246482,-0.10787 1.863282,-0.23047 0.617798,-0.1227 1.228831,-0.29297 1.832031,-0.50977 0.601798,-0.2168 1.194739,-0.48207 1.773437,-0.79687 0.58,-0.3147 1.14686,-0.6789 1.69336,-1.0957 0.547998,-0.41678 1.077286,-0.88541 1.583984,-1.40821 0.5069,-0.5227 0.992172,-1.09992 1.451172,-1.73242 0.4675,-1.0124 0.876922,-2.05635 1.232422,-3.11523 0.3567,-1.0589 0.660675,-2.13369 0.921875,-3.20899 0.2608,-1.0753 0.478403,-2.15159 0.658203,-3.21289 0.1813,-1.0613 0.324852,-2.1076 0.439453,-3.125 0.229699,-2.0348 0.341586,-3.95132 0.396484,-5.6289 0.055,-1.67768 0.05469,-3.11692 0.05469,-4.19532 0.3238,-0.1944 0.652883,-0.34589 0.988281,-0.46289 0.336,-0.117 0.67709,-0.19991 1.02149,-0.25781 0.68958,-0.1159 1.39395,-0.13189 2.09765,-0.12109 0.7052,0.011 1.40942,0.049 2.10352,0.041 0.6945,-0.01 1.37911,-0.063 2.03711,-0.23633 0.3298,-0.086 0.65315,-0.20232 0.96875,-0.35742 0.3155,-0.155 0.62337,-0.34824 0.92187,-0.58984 0.2981,-0.2416 0.58819,-0.53036 0.86719,-0.87696 0.2773,-0.34648 0.54558,-0.751 0.80078,-1.2207 0.255,-0.4696 0.49701,-1.00433 0.72461,-1.61523 0.2288,-0.6109 0.44338,-1.29766 0.64258,-2.06836 0.3975,-1.5412 0.73329,-3.42009 0.99219,-5.70899 0.2596,-2.28898 0.56385,-4.2776 0.91015,-6.0039 0.3452,-1.7265 0.7322,-3.19075 1.1543,-4.43555 0.2127,-0.6266 0.4575,-1.04691 0.6875,-1.56641 h 19.29101 c 0.4556,0.1133 0.90693,0.23327 1.45313,0.25977 0.9276,0.07 1.76484,0.18459 2.52344,0.33789 0.758,0.1533 1.43677,0.34567 2.04687,0.57227 0.6092,0.2267 1.14711,0.48869 1.62891,0.77929 0.4813,0.2907 0.90414,0.60843 1.27734,0.95313 0.3738,0.3448 0.69778,0.71421 0.98438,1.10351 0.2866,0.3893 0.53616,0.79991 0.75586,1.22461 0.4387,0.8493 0.76284,1.75851 1.05664,2.69141 0.2941,0.9329 0.55604,1.88978 0.86914,2.83008 0.3129,0.9403 0.67743,1.86327 1.17383,2.73437 0.2484,0.4356 0.52981,0.85957 0.85351,1.26367 0.324,0.40424 0.69208,0.78955 1.11328,1.15235 0.4214,0.363 0.89645,0.70352 1.43555,1.01562 0.5397,0.312 1.14096,0.59556 1.81836,0.84766 1.2446,0.3418 2.41893,0.53872 3.51953,0.60742 1.101,0.069 2.12864,0.0101 3.08594,-0.16211 0.9568,-0.1709 1.84141,-0.45182 2.65429,-0.82812 0.8128,-0.3763 1.55351,-0.84723 2.22071,-1.39453 0.6684,-0.5474 1.26341,-1.17288 1.78711,-1.85743 0.5232,-0.6847 0.97326,-1.42929 1.35156,-2.21679 0.3782,-0.7876 0.68433,-1.61821 0.91601,-2.47461 0.233,-0.8565 0.39337,-1.73926 0.48047,-2.63086 0.2162,-0.835 0.4631,-1.59391 0.73829,-2.2832 0.27529,-0.68929 0.57779,-1.31024 0.90429,-1.86524 0.3269,-0.5551 0.67542,-1.04466 1.04492,-1.47656 0.37,-0.4319 0.75917,-0.8059 1.16407,-1.125 0.03,-0.023 0.0628,-0.0356 0.0918,-0.0586 H 184.875 c 0.6684,0.3274 1.31101,0.67304 1.84961,1.01954 0.6214,0.399 1.14275,0.79091 1.53125,1.13281 0.7718,1.2809 1.56323,2.40482 2.36133,3.3789 0.7987,0.974 1.6062,1.79702 2.4082,2.47852 0.8025,0.6814 1.59971,1.2218 2.38281,1.625 0.7831,0.4032 1.55072,0.66969 2.29102,0.80859 0.7408,0.1388 1.45456,0.14862 2.13086,0.0371 0.6752,-0.1113 1.31494,-0.3445 1.90234,-0.6914 0.5885,-0.347 1.12496,-0.80836 1.60156,-1.37696 0.4763,-0.5686 0.89303,-1.24363 1.23633,-2.01953 0.3541,-0.6885 0.7741,-1.34404 1.25,-1.96484 0.4756,-0.6207 1.00829,-1.20701 1.58789,-1.75391 0.5792,-0.5467 1.20584,-1.05468 1.86914,-1.52148 0.6014,-0.4223 1.23915,-0.79995 1.89454,-1.15235 h 17 c 0.38139,0.2736 0.77771,0.52587 1.125,0.85157 0.56169,0.5269 1.07499,1.12321 1.52929,1.79101 0.4543,0.6677 0.85059,1.40776 1.17969,2.22266 0.3287,0.8149 0.58914,1.70583 0.77344,2.67383 0.183,0.968 0.28919,2.01342 0.30859,3.14062 -0.016,1.0702 0.02,2.09387 0.10547,3.07227 0.084,0.9783 0.21959,1.91067 0.40039,2.79687 0.1797,0.8863 0.40479,1.72769 0.67187,2.52149 0.269,0.79378 0.58215,1.5408 0.93165,2.24218 0.3505,0.7014 0.73672,1.3582 1.16211,1.9668 0.42529,0.6086 0.88791,1.16811 1.38281,1.6836 0.4937,0.51549 1.02348,0.9856 1.58008,1.4082 0.5571,0.4226 1.1408,0.79815 1.7539,1.12695 0.6118,0.3287 1.25151,0.6107 1.91211,0.8457 0.6618,0.2349 1.34618,0.42336 2.05078,0.56446 0.7045,0.1411 1.42924,0.2362 2.16992,0.2832 0.7405,0.047 1.49748,0.046 2.26758,0 0.7709,-0.048 1.55396,-0.1411 2.34766,-0.2832 0.7936,-0.1422 1.5976,-0.33322 2.4082,-0.57031 0.8106,-0.23699 1.62822,-0.52112 2.44922,-0.85352 0.8209,-0.3324 1.6461,-0.71313 2.4707,-1.14063 1.0073,-0.73288 1.97772,-1.37886 2.91602,-1.94335 0.9377,-0.56439 1.84484,-1.04778 2.71484,-1.45118 0.8708,-0.4035 1.70562,-0.72706 2.50782,-0.97656 0.80298,-0.2495 1.57324,-0.42369 2.31054,-0.52539 0.7372,-0.1017 1.43963,-0.1304 2.11133,-0.0918 0.6717,0.039 1.31132,0.14421 1.91992,0.31641 0.6074,0.1722 1.18332,0.41008 1.72852,0.70898 0.5445,0.299 1.06042,0.65983 1.54492,1.07813 0.4832,0.4184 0.93609,0.89508 1.35937,1.42578 0.4232,0.5308 0.81795,1.11525 1.18165,1.75195 0.3643,0.6366 0.6978,1.3269 1.0039,2.0625 0.3065,0.7355 0.58323,1.51655 0.83203,2.34375 0.4972,1.6544 0.88151,3.48505 1.15821,5.46485 0.2755,1.97966 0.44471,4.10967 0.50781,6.35937 0.028,0.9637 0.091,1.88613 0.19726,2.76953 0.104,0.8833 0.24568,1.72665 0.42188,2.53125 0.1752,0.8046 0.38475,1.57093 0.62695,2.29883 0.2424,0.728 0.51673,1.41857 0.82031,2.07227 0.3036,0.65368 0.6365,1.27201 0.9961,1.85351 0.3597,0.5816 0.74837,1.12582 1.16016,1.63672 0.41169,0.511 0.84824,0.98719 1.30664,1.42969 0.458,0.4425 0.9376,0.85016 1.4375,1.22656 0.4995,0.3764 1.01828,0.7208 1.55468,1.0332 0.5368,0.3125 1.09041,0.59355 1.65821,0.84375 1.1354,0.5002 2.32894,0.87693 3.56054,1.14063 1.2315,0.2636 2.50187,0.41373 3.78907,0.45703 1.28718,0.043 2.59153,-0.019 3.89453,-0.17969 1.3571,-0.3635 2.56116,-0.81314 3.63086,-1.33984 1.0709,-0.5268 2.00868,-1.12967 2.83398,-1.79297 0.8252,-0.6633 1.53966,-1.38726 2.16016,-2.16016 0.6218,-0.77298 1.14982,-1.59557 1.60742,-2.45117 0.4575,-0.8557 0.84379,-1.7467 1.17969,-2.6582 0.3356,-0.9116 0.6199,-1.84446 0.875,-2.78516 0.5089,-1.88118 0.89993,-3.79446 1.33203,-5.63086 1.1211,0.4321 2.2405,0.75346 3.3457,0.97266 1.107,0.2192 2.19897,0.33643 3.26367,0.36523 1.0652,0.029 2.10001,-0.0309 3.09571,-0.16992 0.99618,-0.1387 1.95186,-0.35597 2.85156,-0.63867 0.8993,-0.2828 1.74208,-0.63096 2.51758,-1.03516 0.775,-0.4042 1.48342,-0.86468 2.10742,-1.36718 0.625,-0.5025 1.16523,-1.047 1.61133,-1.625 0.4465,-0.578 0.79671,-1.18982 1.03711,-1.82032 0.5891,-1.54878 1.01987,-2.84431 1.33007,-3.94531 0.3096,-1.101 0.49922,-2.00623 0.60352,-2.76953 0.1048,-0.7634 0.1223,-1.38637 0.0957,-1.92187 -0.026,-0.5356 -0.094,-0.98415 -0.17773,-1.40235 -0.081,-0.4181 -0.17318,-0.80414 -0.23438,-1.21484 -0.061,-0.4107 -0.0906,-0.84628 -0.0586,-1.35938 0.034,-0.5131 0.13274,-1.10418 0.33594,-1.83007 0.2043,-0.72579 0.50998,-1.58647 0.95898,-2.63477 0.4047,-0.9461 0.91853,-1.79398 1.48633,-2.54688 0.5697,-0.75288 1.19597,-1.41036 1.82617,-1.97656 0.6289,-0.5661 1.26096,-1.04048 1.84766,-1.42578 0.5867,-0.3853 1.12766,-0.68278 1.56836,-0.89258 1.1887,-0.3334 2.26763,-0.48688 3.26953,-0.51758 1.0008,-0.031 1.92306,0.062 2.78906,0.22852 0.8656,0.1663 1.67543,0.40481 2.45703,0.66211 0.7821,0.2574 1.53711,0.53349 2.28711,0.77539 0.7498,0.2421 1.49678,0.45137 2.26758,0.57227 0.771,0.1208 1.56415,0.15312 2.40625,0.0469 0.421,-0.053 0.85433,-0.14168 1.30273,-0.27148 0.4484,-0.12988 0.91339,-0.30164 1.39649,-0.52149 0.9659,-0.43965 2.00478,-1.07247 3.14648,-1.95117 0.5491,-0.7329 1.10205,-1.39564 1.65625,-1.99414 0.5535,-0.5986 1.11078,-1.13352 1.66407,-1.60352 0.55279,-0.4701 1.10564,-0.87721 1.65234,-1.22461 0.5463,-0.3475 1.08845,-0.63423 1.62305,-0.86523 0.5344,-0.231 1.06347,-0.40694 1.58007,-0.52734 0.5155,-0.1205 1.01972,-0.18733 1.51172,-0.20313 0.4927,-0.016 0.97205,0.021 1.43555,0.10352 0.4627,0.083 0.90844,0.21317 1.33594,0.38867 0.4275,0.1756 0.83655,0.39767 1.22265,0.66015 0.3868,0.2625 0.7527,0.56521 1.0918,0.90821 0.3395,0.3431 0.65421,0.72498 0.94141,1.14258 0.2869,0.4176 0.54669,0.87072 0.77539,1.35742 0.2292,0.4867 0.42795,1.00684 0.59375,1.55664 0.165,0.5499 0.29709,1.12983 0.39257,1.73633 0.094,0.60643 0.15579,1.23928 0.17579,1.89648 0.02,0.6573 0,1.33862 -0.0606,2.04102 0.1662,1.65388 0.36994,3.19576 0.61914,4.62304 0.2481,1.4274 0.54241,2.74052 0.88281,3.94532 0.3413,1.20488 0.72752,2.30083 1.16992,3.28711 0.4412,0.98628 0.93653,1.86266 1.48633,2.63476 0.5509,0.7721 1.15839,1.43985 1.82617,2.00195 0.6679,0.562 1.39691,1.0193 2.19141,1.375 0.7952,0.3556 1.65554,0.61028 2.58594,0.76368 0.9296,0.15348 1.93102,0.20661 3.0039,0.16211 1.2862,-0.053 2.46627,-0.24003 3.54297,-0.54493 1.0753,-0.3049 2.04757,-0.7277 2.91797,-1.25 0.8702,-0.5223 1.6396,-1.14421 2.3086,-1.84961 0.67078,-0.70538 1.24144,-1.49551 1.71484,-2.34961 0.4729,-0.85408 0.84801,-1.77183 1.12891,-2.74023 0.281,-0.9685 0.46674,-1.98656 0.56054,-3.03516 0.092,-1.04858 0.092,-2.12805 0,-3.22265 -0.09,-1.0946 -0.26875,-2.20465 -0.53515,-3.31055 -0.4882,-2.0156 -0.80295,-3.91036 -0.96875,-5.69141 -0.1661,-1.78088 -0.18456,-3.44946 -0.0781,-5.00976 0.1055,-1.5603 0.3321,-3.01154 0.6582,-4.36524 0.3272,-1.35358 0.75135,-2.60883 1.24805,-3.76953 0.3209,-0.748 0.71014,-1.39685 1.08594,-2.06445 0.061,-0.057 0.13476,-0.099 0.19336,-0.1582 0.3482,-0.3479 0.6619,-0.72917 0.9375,-1.13867 0.276,-0.4095 0.51528,-0.8476 0.70898,-1.3086 0.049,-0.1163 0.07,-0.24603 0.11328,-0.36523 0.1286,-0.353 0.25799,-0.70663 0.33399,-1.08203 0.1005,-0.4908 0.14994,-0.99894 0.15234,-1.51953 V 360.3457 318.85938 c 0,-0.53319 -0.053,-1.05259 -0.15625,-1.55469 -0.1016,-0.5022 -0.25216,-0.98637 -0.44726,-1.44727 -0.1937,-0.4609 -0.43299,-0.89909 -0.70899,-1.30859 -0.2756,-0.4095 -0.5893,-0.79067 -0.9375,-1.13867 -0.3476,-0.3479 -0.72917,-0.66326 -1.13867,-0.93946 -0.4095,-0.2762 -0.84769,-0.51273 -1.30859,-0.70703 -0.4614,-0.1943 -0.94557,-0.34506 -1.44727,-0.44726 -0.5022,-0.1023 -1.02129,-0.15625 -1.55469,-0.15625 z m 16.6894532,87.04101 c -0.234,0.01 -0.470185,0.0325 -0.708984,0.0625 -0.479199,0.062 -0.970404,0.16961 -1.470704,0.32031 -0.500798,0.1508 -1.011803,0.34495 -1.533203,0.58985 -0.685898,0.3221 -1.353694,0.72496 -1.996093,1.19726 -0.643399,0.4723 -1.263071,1.01559 -1.855469,1.61719 -0.5909,0.6016 -1.151996,1.26276 -1.683594,1.97266 -0.531198,0.7098 -1.030689,1.46737 -1.492187,2.26367 -0.4623,0.7964 -0.885832,1.63244 -1.269532,2.49414 -0.383098,0.8616 -0.728492,1.74985 -1.02539,2.65625 -0.2954,0.9064 -0.546847,1.83009 -0.748047,2.75977 -0.1998,0.92968 -0.349413,1.86507 -0.445313,2.79687 -0.094,0.9317 -0.135387,1.86054 -0.117187,2.77344 0.018,0.9129 0.09498,1.80934 0.238281,2.68164 0.1411,0.8724 0.344388,1.71872 0.617188,2.5293 0.273898,0.81068 0.61765,1.58615 1.03125,2.31445 0.413598,0.7282 0.896684,1.41047 1.458984,2.03515 0.562798,0.6247 1.205636,1.19191 1.927734,1.69141 0.7204,0.4994 1.524165,0.93216 2.414063,1.28516 0.888598,0.353 1.864189,0.6266 2.929687,0.8125 0.7229,0 1.417485,-0.04 2.083985,-0.11914 0.665398,-0.079 1.302311,-0.19586 1.912109,-0.34766 0.610698,-0.1518 1.193147,-0.33939 1.748047,-0.55859 0.555298,-0.2192 1.082786,-0.47066 1.583984,-0.75196 0.5017,-0.2814 0.978635,-0.5921 1.427735,-0.92968 0.449098,-0.3377 0.873584,-0.70125 1.271484,-1.08985 0.795998,-0.7771 1.489891,-1.65251 2.087891,-2.59961 0.597298,-0.9471 1.096859,-1.96656 1.505859,-3.03906 0.4082,-1.0725 0.725078,-2.19836 0.955078,-3.35156 0.2289,-1.1532 0.370941,-2.33424 0.431641,-3.52344 0.059,-1.1892 0.0365,-2.38531 -0.0625,-3.56641 -0.1006,-1.18118 -0.278852,-2.34601 -0.53125,-3.47461 -0.2507,-1.12848 -0.575952,-2.22115 -0.96875,-3.25195 -0.3928,-1.0308 -0.852455,-2.00184 -1.376953,-2.89062 -0.5252,-0.8889 -1.114021,-1.69624 -1.761719,-2.39844 -0.646598,-0.7022 -1.352683,-1.29853 -2.113281,-1.76953 -0.3796,-0.2355 -0.773288,-0.43968 -1.179688,-0.60938 -0.406598,-0.16962 -0.826014,-0.30464 -1.257812,-0.40234 -0.4318,-0.098 -0.877385,-0.15949 -1.333985,-0.17969 -0.2276,-0.01 -0.458406,-0.01 -0.691406,0 z M 368.71289,411.4082 c -1.0775,0 -2.09259,0.10498 -3.04687,0.30078 -0.9552,0.1958 -1.84969,0.48111 -2.67969,0.84571 -0.8299,0.3647 -1.59824,0.80745 -2.30274,1.31445 -0.7048,0.5069 -1.34582,1.07767 -1.92382,1.70117 -0.5782,0.6235 -1.09227,1.30029 -1.54297,2.01367 -0.4511,0.7135 -0.83856,1.46374 -1.16016,2.24024 -0.3217,0.7766 -0.57998,1.57898 -0.77148,2.39258 -0.1926,0.81358 -0.31741,1.63909 -0.37891,2.46289 -0.061,0.8238 -0.0583,1.6473 0.0137,2.45508 0.071,0.80778 0.20701,1.59993 0.41211,2.36523 0.2037,0.7653 0.47595,1.50322 0.81445,2.19922 0.3393,0.6961 0.74395,1.35017 1.21875,1.95117 0.4746,0.601 1.01701,1.14961 1.62891,1.62891 0.6105,0.4793 1.29046,0.8898 2.03906,1.2207 0.7485,0.3309 1.56658,0.58218 2.45508,0.73828 0.8879,0.1561 1.84535,0.21686 2.87305,0.17188 0.9453,-0.041 1.83703,-0.15554 2.67383,-0.33594 0.8368,-0.1803 1.62051,-0.42727 2.34961,-0.73047 0.72958,-0.3033 1.40474,-0.66432 2.02734,-1.07422 0.6235,-0.41 1.19364,-0.86749 1.71094,-1.36719 0.5182,-0.4998 0.98513,-1.04008 1.39843,-1.61328 0.4134,-0.5733 0.77254,-1.17956 1.08204,-1.81054 0.3101,-0.63088 0.56889,-1.28689 0.77539,-1.95899 0.2077,-0.6722 0.36219,-1.36189 0.46679,-2.05859 0.1236,-0.8195 0.17801,-1.64932 0.16211,-2.47852 -0.016,-0.8291 -0.10176,-1.65675 -0.25586,-2.46875 -0.154,-0.812 -0.37677,-1.60875 -0.66797,-2.37695 -0.2909,-0.7682 -0.65007,-1.50883 -1.07617,-2.20703 -0.4268,-0.6981 -0.92162,-1.35388 -1.48242,-1.95508 -0.5592,-0.6012 -1.18485,-1.147 -1.87695,-1.625 -0.6923,-0.4779 -1.45054,-0.88674 -2.27344,-1.21484 -0.8225,-0.3281 -1.71031,-0.57517 -2.66211,-0.72657 z" /></g><g
       id="g18"
       style="display:inline"><rect
         style="display:inline;fill:#000000;fill-opacity:1;stroke:#000100;stroke-width:0;stroke-opacity:0.870968"
         id="rect27"
         width="416.11328"
         height="184.85938"
         x="0"
         y="11.394531"
         rx="1.4" /><path
         id="path12"
         style="fill:#e2b650;stroke:#000100;stroke-width:0;stroke-opacity:0.870968"
         d="M 10.314453,0 C 9.6001558,0 8.9032667,0.07003167 8.2304688,0.20703125 7.5577706,0.34393083 6.9104668,0.54634142 6.2929688,0.80664062 5.6755707,1.0669398 5.087761,1.3857603 4.5390625,1.7558594 3.990464,2.1258582 3.4790704,2.5474731 3.0136719,3.0136719 2.5474731,3.4797704 2.1259582,3.990464 1.7558594,4.5390625 1.3858603,5.087661 1.0669398,5.6754707 0.80664062,6.2929688 0.54634142,6.9104668 0.34588396,7.5576706 0.20898438,8.2304688 0.07198477,8.9031667 0,9.6000558 0,10.314453 V 196.25391 c 0,0.7144 0.07198477,1.41128 0.20898438,2.08398 0.13689958,0.6728 0.33735704,1.32195 0.59765624,1.93945 0.26029918,0.6175 0.57921968,1.20336 0.94921878,1.75196 0.3700988,0.5486 0.7916137,1.05929 1.2578125,1.52539 0.4653985,0.4662 0.9767921,0.88781 1.5253906,1.25781 0.5486985,0.3701 1.1365082,0.68892 1.7539063,0.94922 0.617498,0.2604 1.2648018,0.46291 1.9375,0.59961 0.6727979,0.137 1.369687,0.20898 2.0839842,0.20898 H 405.79883 c 0.7144,0 1.41118,-0.072 2.08398,-0.20898 0.6727,-0.1367 1.32,-0.33921 1.9375,-0.59961 0.6175,-0.2603 1.20531,-0.57912 1.75391,-0.94922 0.5486,-0.37 1.05919,-0.79161 1.52539,-1.25781 0.4661,-0.4661 0.88781,-0.97679 1.25781,-1.52539 0.37,-0.5486 0.68697,-1.13446 0.94727,-1.75196 0.2603,-0.6175 0.46261,-1.26665 0.59961,-1.93945 0.1369,-0.6727 0.20898,-1.36958 0.20898,-2.08398 V 10.314453 c 0,-0.7143972 -0.072,-1.4112863 -0.20898,-2.0839842 -0.137,-0.6727982 -0.33931,-1.320002 -0.59961,-1.9375 -0.2603,-0.6174981 -0.57727,-1.2053078 -0.94727,-1.7539063 -0.37,-0.5485985 -0.79171,-1.0592921 -1.25781,-1.5253906 -0.4662,-0.4661988 -0.97679,-0.8878137 -1.52539,-1.2578125 -0.5486,-0.3700991 -1.13641,-0.6889196 -1.75391,-0.94921878 -0.6175,-0.2602992 -1.2648,-0.46270979 -1.9375,-0.59960937 C 407.21001,0.07053167 406.51323,0 405.79883,0 Z m 66.433594,16.302734 c -1.328697,0 2.632006,0.03703 3.908203,0.115235 1.276297,0.078 2.525903,0.193303 3.75,0.345703 1.224397,0.1524 2.423106,0.341506 3.595703,0.566406 1.172597,0.2248 2.319909,0.48635 3.441406,0.78125 1.121497,0.2949 2.218266,0.623831 3.289063,0.986328 1.070797,0.3626 2.11437,0.759703 3.134766,1.1875 1.020595,0.4276 2.017581,0.886656 2.988282,1.376953 0.9706,0.4904 1.91474,1.00995 2.83594,1.560547 0.9212,0.5505 1.81735,1.129783 2.68945,1.738282 0.872,0.608198 1.72152,1.246556 2.54492,1.910156 1.6471,1.327194 3.19569,2.761325 4.65039,4.294922 1.4549,1.533594 2.81739,3.166424 4.08399,4.886718 1.26677,1.720497 2.43783,3.530575 3.51953,5.417969 1.0815,1.887794 2.07285,3.851825 2.97265,5.886719 0.9001,2.035094 1.70997,4.14004 2.43164,6.302734 0.7216,2.162894 1.35371,4.383403 1.9004,6.654297 0.54658,2.270894 1.00781,4.593731 1.38281,6.953125 0.3752,2.359394 0.66594,4.757053 0.87304,7.185547 0.207,2.428194 0.33105,4.88579 0.37305,7.363281 0.042,2.477394 1e-5,4.975631 -0.11719,7.482422 -0.1188,2.506994 -0.31685,5.022269 -0.59375,7.539063 -0.2769,2.516791 -0.63305,5.034119 -1.06445,7.541019 -0.4313,2.50697 -0.93908,5.00297 -1.52148,7.48047 -0.5825,2.47727 -1.23855,4.93683 -1.96875,7.36523 -0.7304,2.4281 -1.53546,4.82605 -2.41016,7.18555 -0.8746,2.35957 -1.81851,4.68007 -2.83398,6.95117 -1.0155,2.271 -2.10091,4.49162 -3.25391,6.65429 -1.1532,2.1629 -2.37481,4.26774 -3.66211,6.30274 -1.2872,2.0351 -2.64042,4.00177 -4.05859,5.88867 -1.4179,1.8876 -2.90177,3.69737 -4.44727,5.41797 -1.5453,1.7205 -3.15289,3.35107 -4.82226,4.88477 -1.66941,1.53347 -3.399464,2.96967 -5.189458,4.29687 -1.789894,1.3271 -3.639681,2.54531 -5.546875,3.64648 -1.907094,1.1011 -3.871684,2.08426 -5.892578,2.93946 -2.020894,0.8554 -4.097022,1.58393 -6.228516,2.17383 -1.065397,0.2949 -2.146284,0.55635 -3.238281,0.78125 -1.092697,0.2249 -2.199163,0.414 -3.31836,0.5664 -1.119094,0.1524 -2.249234,0.26575 -3.394531,0.34375 -1.145197,0.078 -2.305665,0.11524 -3.476562,0.11524 -1.170997,0 -2.318516,-0.0369 -3.445313,-0.11524 -1.126797,-0.078 -2.233509,-0.19135 -3.316406,-0.34375 -1.082797,-0.1524 -2.142444,-0.3415 -3.181641,-0.5664 -1.039197,-0.2249 -2.056937,-0.48635 -3.052734,-0.78125 -0.995997,-0.2949 -1.969178,-0.62383 -2.921875,-0.98633 -0.952697,-0.3625 -1.885025,-0.7597 -2.794922,-1.1875 -0.909797,-0.4276 -1.798816,-0.88656 -2.666016,-1.37696 -0.867397,-0.49017 -1.712012,-1.012 -2.537109,-1.5625 -1.649894,-1.10117 -3.216922,-2.31938 -4.699219,-3.64648 -1.482194,-1.3272 -2.890271,-2.7805 -4.197265,-4.29687 -1.334497,-1.5484 -2.551784,-3.16427 -3.705078,-4.88477 -1.153397,-1.7206 -2.2248,-3.53037 -3.216797,-5.41797 -0.991897,-1.8869 -1.905482,-3.85357 -2.738282,-5.88867 -0.832797,-2.035 -1.586121,-4.13984 -2.261718,-6.30274 -0.6758,-2.16267 -1.272272,-4.38329 -1.792969,-6.65429 -0.520597,-2.2711 -0.964434,-4.5916 -1.332031,-6.95117 -0.3678,-2.3595 -0.659756,-4.75745 -0.876953,-7.18555 -0.217,-2.4284 -0.358735,-4.88796 -0.427735,-7.36523 -0.069,-2.4775 -0.06433,-4.9735 0.01367,-7.48047 0.078,-2.5069 0.230725,-5.024228 0.453125,-7.541019 0.2223,-2.516794 0.515962,-5.032069 0.880859,-7.539063 0.3646,-2.506791 0.799791,-5.005028 1.304688,-7.482422 0.504797,-2.477491 1.077906,-4.935087 1.720703,-7.363281 0.642897,-2.428494 1.356069,-4.826153 2.134766,-7.185547 0.778797,-2.359394 1.624612,-4.682231 2.537109,-6.953125 0.912697,-2.270894 1.89125,-4.491403 2.935547,-6.654297 1.044197,-2.162694 2.154428,-4.26764 3.328125,-6.302734 1.173797,-2.034894 2.409642,-3.998925 3.710938,-5.886719 1.301095,-1.887394 2.667254,-3.697472 4.09375,-5.417969 1.426595,-1.720294 2.913096,-3.353124 4.46289,-4.886718 1.549697,-1.533597 3.161137,-2.967728 4.832031,-4.294922 1.670797,-1.327197 3.40171,-2.547541 5.191407,-3.648438 1.789794,-1.101097 3.638426,-2.082303 5.544922,-2.9375 1.906795,-0.855397 3.873037,-1.583928 5.894531,-2.173828 1.010697,-0.2949 2.035223,-0.55645 3.074219,-0.78125 1.038995,-0.2249 2.091206,-0.414006 3.158203,-0.566406 1.067097,-0.1524 2.14739,-0.268703 3.242187,-0.345703 1.094797,-0.078 4.446416,-0.115235 3.324219,-0.115235 z m 261.781253,0 c -1.1222,0 2.22942,0.03703 3.32422,0.115235 1.09467,0.078 2.17508,0.193303 3.24218,0.345703 1.0668,0.1524 2.11931,0.341506 3.15821,0.566406 1.039,0.2248 2.06344,0.484297 3.07421,0.779297 2.0214,0.589797 3.98794,1.318531 5.89454,2.173828 1.90667,0.855397 3.75532,1.836403 5.54492,2.9375 1.7897,1.101097 3.52073,2.321541 5.1914,3.648438 1.6709,1.327194 3.28224,2.763078 4.83204,4.296875 1.54957,1.533594 3.03639,3.164271 4.46289,4.884765 1.42657,1.720397 2.79265,3.530275 4.09375,5.417969 1.30117,1.887494 2.53909,3.853778 3.71289,5.888672 1.1738,2.035094 2.28197,4.14004 3.32617,6.302734 1.0443,2.163094 2.02295,4.383403 2.93555,6.654297 0.91247,2.270894 1.75832,4.591778 2.53711,6.951172 0.77868,2.359494 1.49186,4.757253 2.13476,7.185547 0.6429,2.428291 1.2158,4.887743 1.7207,7.365234 0.5048,2.477394 0.94019,4.973478 1.30469,7.480469 0.3647,2.506791 0.65856,5.02227 0.88086,7.539063 0.2224,2.516592 0.37513,5.034242 0.45313,7.541012 0.078,2.5071 0.0827,5.00503 0.0137,7.48243 -0.069,2.47737 -0.21064,4.93498 -0.42774,7.36328 -0.2171,2.42827 -0.50915,4.82617 -0.87695,7.18554 -0.3679,2.3594 -0.81133,4.68203 -1.33203,6.95313 -0.5207,2.271 -1.11717,4.49152 -1.79297,6.65429 -0.6755,2.1629 -1.42902,4.26774 -2.26172,6.30274 -0.8328,2.0351 -1.74638,3.99922 -2.73828,5.88672 -0.992,1.8877 -2.0635,3.69757 -3.2168,5.41797 -1.1532,1.7205 -2.38828,3.35116 -3.70508,4.88476 -1.31667,1.5337 -2.71496,2.97163 -4.19726,4.29883 -1.4822,1.3272 -3.04717,2.54541 -4.69727,3.64648 -0.825,0.5506 -1.67176,1.07025 -2.53906,1.56055 -0.8673,0.4903 -1.75624,0.94928 -2.66601,1.37695 -0.91,0.4276 -1.84203,0.82533 -2.79493,1.1875 -0.9526,0.3627 -1.92597,0.69123 -2.92187,0.98633 -0.9958,0.2948 -2.01148,0.55645 -3.05078,0.78125 -1.0392,0.2249 -2.1007,0.41401 -3.1836,0.56641 -1.0828,0.1524 -2.18775,0.2677 -3.31445,0.3457 -1.1269,0.078 -2.27627,0.11524 -3.44727,0.11524 -1.17087,0 -2.32943,-0.0369 -3.4746,-0.11524 -1.1454,-0.078 -2.27739,-0.1933 -3.39649,-0.3457 -1.1192,-0.1524 -2.22626,-0.34151 -3.31836,-0.56641 -1.0924,-0.2248 -2.17268,-0.48645 -3.23828,-0.78125 -2.1314,-0.59 -4.20773,-1.31863 -6.22851,-2.17383 -2.02079,-0.85537 -3.98551,-1.8365 -5.89258,-2.9375 -1.9072,-1.10107 -3.75698,-2.31928 -5.54688,-3.64648 -1.7899,-1.3272 -3.51995,-2.76513 -5.18945,-4.29883 -1.6694,-1.5336 -3.27687,-3.16426 -4.82227,-4.88476 -1.5454,-1.7204 -3.02956,-3.53027 -4.44726,-5.41797 -1.4181,-1.8875 -2.7713,-3.85162 -4.0586,-5.88672 -1.28717,-2.035 -2.50901,-4.13984 -3.66211,-6.30274 -1.15307,-2.16277 -2.2382,-4.38329 -3.2539,-6.65429 -1.0156,-2.2711 -1.95949,-4.59373 -2.83399,-6.95313 -0.8747,-2.35937 -1.67965,-4.75727 -2.41015,-7.18554 -0.7302,-2.4283 -1.38625,-4.88591 -1.96875,-7.36328 -0.5826,-2.4774 -1.09009,-4.97533 -1.52149,-7.48243 -0.4315,-2.50677 -0.78765,-5.02442 -1.06445,-7.541012 -0.277,-2.516793 -0.47485,-5.032272 -0.59375,-7.539063 -0.1172,-2.506991 -0.16019,-5.003075 -0.11719,-7.480469 0.042,-2.477491 0.168,-4.936943 0.375,-7.365234 0.2069,-2.428294 0.4959,-4.826053 0.8711,-7.185547 0.3751,-2.359394 0.83631,-4.680278 1.38281,-6.951172 0.5468,-2.270894 1.18084,-4.491203 1.90234,-6.654297 0.7216,-2.162694 1.52979,-4.26764 2.42969,-6.302734 0.8999,-2.034894 1.89116,-4.001178 2.97266,-5.888672 1.0816,-1.887694 2.25293,-3.697572 3.51953,-5.417969 1.2668,-1.720494 2.62908,-3.351171 4.08398,-4.884765 1.455,-1.533797 3.00339,-2.969681 4.65039,-4.296875 0.8236,-0.6633 1.67295,-1.300005 2.54492,-1.908203 0.8722,-0.608499 1.76816,-1.189635 2.68946,-1.740235 0.921,-0.550497 1.86739,-1.070347 2.83789,-1.560547 0.9707,-0.490297 1.96593,-0.949153 2.98633,-1.376953 1.0205,-0.427597 2.06593,-0.825 3.13672,-1.1875 1.07068,-0.3624 2.16553,-0.691628 3.2871,-0.986328 1.1215,-0.295 2.26881,-0.554497 3.44141,-0.779297 1.1726,-0.2249 2.3714,-0.414006 3.5957,-0.566406 1.2242,-0.1524 2.47383,-0.268703 3.75,-0.345703 1.2764,-0.078 5.23691,-0.115235 3.90821,-0.115235 z M 142.87305,102.11523 c 0.2054,-10e-4 0.41119,0.0105 0.61718,0.0215 0.4119,0.032 0.82442,0.10002 1.22852,0.20312 0.404,0.1033 0.80155,0.24393 1.18555,0.41993 0.38409,0.1762 0.75347,0.38827 1.10547,0.63867 0.35208,0.2504 0.68604,0.53903 0.99414,0.86523 0.30799,0.32617 0.59175,0.69015 0.84375,1.09375 0.25199,0.40357 0.47235,0.84554 0.65625,1.32813 0.23389,0.6137 0.48465,1.21631 0.75195,1.80859 0.2672,0.59229 0.55166,1.17526 0.85352,1.74414 0.30188,0.569 0.62118,1.12662 0.95898,1.66992 0.3378,0.54368 0.69336,1.07336 1.06836,1.58985 0.3749,0.5165 0.7702,1.01846 1.18359,1.50586 0.4134,0.4873 0.84378,0.95981 1.29688,1.41601 0.45299,0.45627 0.92788,0.89711 1.42187,1.32031 0.4941,0.42329 1.00864,0.83045 1.54492,1.21875 0.5364,0.38829 1.09414,0.75798 1.67383,1.10938 0.5798,0.3515 1.18019,0.68349 1.80469,0.99609 0.6246,0.31269 1.27276,0.60711 1.94336,0.87891 0.67059,0.2719 1.3661,0.52275 2.08398,0.75195 0.7179,0.22928 1.45813,0.4365 2.22461,0.6211 0.42795,0.10306 0.88253,0.18083 1.32617,0.26953 0.351,0.0702 0.68824,0.15394 1.04883,0.21484 0.8163,0.1381 1.65791,0.2518 2.52539,0.3418 0.8674,0.09 1.7598,0.15436 2.67969,0.19336 0.493,0.0216 0.98652,0.0253 1.47852,0.0117 0.49189,-0.015 0.98311,-0.048 1.47461,-0.10157 0.49138,-0.052 0.98301,-0.12284 1.47461,-0.21484 0.49158,-0.092 0.98426,-0.20449 1.47656,-0.33789 0.49229,-0.1335 0.98503,-0.28805 1.47851,-0.46484 0.4937,-0.1769 0.98693,-0.37556 1.48243,-0.59766 0.49538,-0.2222 0.99223,-0.46888 1.49023,-0.73828 0.498,-0.2694 0.99705,-0.56226 1.49805,-0.88086 0.50109,-0.3185 1.00311,-0.66352 1.50781,-1.0332 0.5047,-0.3696 1.0126,-0.76305 1.52148,-1.18555 0.509,-0.4227 1.01941,-0.87211 1.53321,-1.34961 0.51389,-0.4776 1.02967,-0.98534 1.54883,-1.51953 0.51928,-0.5344 1.0411,-1.09639 1.5664,-1.68945 0.5253,-0.593 1.05414,-1.21545 1.58594,-1.86915 0.5319,-0.65366 1.06832,-1.34025 1.60742,-2.05664 0.5391,-0.71628 1.08201,-1.4653 1.62891,-2.24609 0.118,-0.16839 0.26882,-0.32702 0.44922,-0.47852 0.18029,-0.15149 0.3906,-0.29363 0.625,-0.42773 0.23438,-0.13399 0.49324,-0.26075 0.77343,-0.37695 0.2802,-0.1162 0.58104,-0.22232 0.89844,-0.32032 0.635,-0.19549 1.33623,-0.35405 2.07031,-0.47265 0.7342,-0.1186 1.50109,-0.19738 2.26758,-0.23438 0.2449,-0.01 0.48081,0.0117 0.72461,0.0117 0.2437,0 0.47766,-0.0217 0.72266,-0.0117 0.76638,0.037 1.53352,0.11588 2.26758,0.23438 0.73418,0.1186 1.43531,0.27726 2.07031,0.47265 0.3175,0.098 0.62009,0.20412 0.90039,0.32032 0.2801,0.1162 0.53904,0.24306 0.77344,0.37695 0.23438,0.1342 0.4446,0.27624 0.625,0.42773 0.18029,0.1515 0.33132,0.31013 0.44921,0.47852 0.547,0.78079 1.08981,1.52981 1.62891,2.24609 0.5391,0.71639 1.07357,1.40288 1.60547,2.05664 0.5319,0.6537 1.06054,1.27605 1.58594,1.86915 0.52519,0.59296 1.04721,1.15505 1.5664,1.68945 0.5192,0.53429 1.03503,1.04193 1.54883,1.51953 0.5138,0.4775 1.02616,0.92691 1.53516,1.34961 0.50899,0.4226 1.01483,0.81585 1.51953,1.18555 0.5047,0.36958 1.00888,0.7147 1.50976,1.0332 0.5011,0.3186 1.00015,0.61146 1.49805,0.88086 0.498,0.2694 0.99484,0.51608 1.49024,0.73828 0.49558,0.2221 0.98882,0.42076 1.48242,0.59766 0.49359,0.17679 0.98632,0.33144 1.47851,0.46484 0.4923,0.1334 0.98507,0.24589 1.47657,0.33789 0.49158,0.092 0.98126,0.16284 1.47265,0.21484 0.4911,0.053 0.98458,0.087 1.47656,0.10157 0.4919,0.0134 0.98357,0.01 1.47657,-0.0117 0.91988,-0.039 1.81414,-0.10336 2.68164,-0.19336 0.86738,-0.09 1.70899,-0.2038 2.52539,-0.3418 0.38962,-0.0659 0.7548,-0.15387 1.13281,-0.23047 0.41397,-0.0839 0.83968,-0.1574 1.24024,-0.2539 0.76648,-0.1846 1.50866,-0.39192 2.22656,-0.6211 0.7179,-0.2293 1.41338,-0.48005 2.08398,-0.75195 0.6706,-0.2718 1.31681,-0.56621 1.94141,-0.87891 0.6246,-0.3126 1.22684,-0.64459 1.80664,-0.99609 0.5798,-0.3514 1.13753,-0.72098 1.67383,-1.10938 0.5362,-0.3883 1.05092,-0.79555 1.54492,-1.21875 0.494,-0.4233 0.96692,-0.86414 1.41992,-1.32031 0.4531,-0.4563 0.88543,-0.92871 1.29883,-1.41601 0.4134,-0.4874 0.80674,-0.98936 1.18164,-1.50586 0.375,-0.51649 0.73251,-1.04617 1.07031,-1.58985 0.3378,-0.5433 0.65709,-1.10092 0.95899,-1.66992 0.3019,-0.56898 0.58631,-1.15185 0.85351,-1.74414 0.2673,-0.59228 0.5181,-1.19489 0.75196,-1.80859 0.18388,-0.48259 0.40229,-0.92466 0.65429,-1.32813 0.2515,-0.4037 0.53575,-0.76758 0.84375,-1.09375 0.308,-0.3262 0.64214,-0.61483 0.99414,-0.86523 0.3521,-0.2504 0.72137,-0.46257 1.10547,-0.63867 0.384,-0.1761 0.78155,-0.31653 1.18555,-0.41993 0.404,-0.10353 0.81661,-0.17112 1.22851,-0.20312 0.4121,-0.0304 0.82453,-0.0257 1.23243,0.0117 0.40788,0.037 0.81122,0.11119 1.20312,0.21679 0.3918,0.1056 0.77097,0.24382 1.13477,0.41602 0.3638,0.17219 0.71155,0.37805 1.03515,0.61523 0.3237,0.2371 0.62499,0.5079 0.89649,0.8086 0.2715,0.3007 0.5134,0.63154 0.7207,0.99414 0.2074,0.3625 0.37857,0.75484 0.50977,1.17773 0.1311,0.4229 0.22262,0.87573 0.26562,1.35743 0.044,0.48186 0.0375,0.99225 -0.0195,1.53124 -0.057,0.53897 -0.16684,1.10638 -0.33594,1.70118 -0.2405,0.84338 -0.51095,1.68861 -0.81055,2.52929 -0.29954,0.84069 -0.62893,1.67858 -0.99023,2.50977 -0.3613,0.8313 -0.75409,1.65346 -1.17969,2.46875 -0.4256,0.8152 -0.8827,1.62166 -1.375,2.41406 -0.4925,0.7925 -1.02033,1.57275 -1.58203,2.33594 -0.5615,0.7632 -1.15723,1.51098 -1.79101,2.23828 -0.6337,0.72729 -1.30548,1.43424 -2.01368,2.11914 -0.70834,0.6848 -1.45483,1.34675 -2.24023,1.98242 -0.7853,0.6358 -1.60971,1.24618 -2.47461,1.82617 -0.8649,0.57997 -1.77155,1.12879 -2.71875,1.64649 -0.9472,0.5177 -1.9349,1.00434 -2.9668,1.45312 -1.03198,0.4487 -2.10726,0.85943 -3.22656,1.23243 -1.1192,0.3729 -2.28309,0.70695 -3.49219,0.99804 -1.20908,0.2909 -2.46414,0.53999 -3.76562,0.74219 -0.73812,0.11467 -1.52637,0.17927 -2.29492,0.26367 -0.009,0.23707 -0.0188,0.47405 -0.0293,0.71094 -0.13092,1.54251 -0.2948,3.07585 -0.49023,4.59766 -0.19544,1.52178 -0.42244,3.03208 -0.68165,4.52734 -0.25934,1.49533 -0.5496,2.97435 -0.87109,4.43359 -0.14767,0.67029 -0.32574,1.32061 -0.48633,1.98243 -0.18902,0.77898 -0.36356,1.56753 -0.57031,2.33398 -0.38224,1.41774 -0.79367,2.81067 -1.23437,4.17773 -0.44072,1.36709 -0.91071,2.70835 -1.40821,4.01954 -0.49751,1.3111 -1.02308,2.591 -1.57422,3.83789 -0.55112,1.24688 -1.12783,2.4608 -1.73047,3.63867 -0.60246,1.17775 -1.22875,2.31863 -1.8789,3.41992 -0.65016,1.10129 -1.32421,2.16302 -2.01953,3.18359 -0.69572,1.02048 -1.41197,1.99845 -2.14844,2.93164 -0.73647,0.93322 -1.49317,1.82169 -2.26758,2.66407 -0.77414,0.84271 -1.56589,1.63819 -2.37305,2.38476 -0.80713,0.74656 -1.62972,1.44425 -2.46679,2.0918 -0.83697,0.64739 -1.68728,1.24477 -2.54883,1.78906 -0.86155,0.54429 -1.73435,1.0355 -2.61719,1.47461 -0.883,0.43895 -1.77514,0.82336 -2.67383,1.1543 -0.89866,0.33094 -1.80393,0.60842 -2.71484,0.83008 -0.91081,0.22174 -1.82493,0.38893 -2.74219,0.5 -0.91724,0.11112 -1.83764,0.16603 -2.75781,0.16601 -0.92017,2e-5 -1.84056,-0.0549 -2.75781,-0.16601 -0.91725,-0.11107 -1.83138,-0.27826 -2.74219,-0.5 -0.91091,-0.22166 -1.81617,-0.49914 -2.71484,-0.83008 -0.89869,-0.33094 -1.79082,-0.71535 -2.67383,-1.1543 -0.88318,-0.43903 -1.75726,-0.93032 -2.61914,-1.47461 -0.86188,-0.54429 -1.71155,-1.14159 -2.54883,-1.78906 -0.83708,-0.64755 -1.65964,-1.34524 -2.4668,-2.0918 -0.80714,-0.74657 -1.59892,-1.54205 -2.37304,-2.38476 -0.77407,-0.84245 -1.52948,-1.73085 -2.26563,-2.66407 -0.73615,-0.93319 -1.45303,-1.91123 -2.14844,-2.93164 -0.69531,-1.02057 -1.36937,-2.0823 -2.01953,-3.18359 -0.65015,-1.10129 -1.27642,-2.24217 -1.8789,-3.41992 -0.60264,-1.17787 -1.17934,-2.39179 -1.73047,-3.63867 -0.55114,-1.24689 -1.07671,-2.52679 -1.57422,-3.83789 -0.49783,-1.31114 -0.96718,-2.65245 -1.4082,-4.01954 -0.44104,-1.36706 -0.85378,-2.75994 -1.23633,-4.17773 -0.19726,-0.73194 -0.36382,-1.48511 -0.54492,-2.22852 -0.16967,-0.69641 -0.35442,-1.38206 -0.50977,-2.08789 -0.32117,-1.45924 -0.61204,-2.9383 -0.87109,-4.43359 -0.25921,-1.49526 -0.48621,-3.00556 -0.68164,-4.52734 -0.19544,-1.52181 -0.35931,-3.05515 -0.49024,-4.59766 -0.0105,-0.23689 -0.0203,-0.47387 -0.0293,-0.71094 -0.76935,-0.0844 -1.55849,-0.14896 -2.29687,-0.26367 -1.30149,-0.2022 -2.55459,-0.45129 -3.76367,-0.74219 -1.20909,-0.29108 -2.37496,-0.62515 -3.49414,-0.99804 -1.1192,-0.373 -2.19263,-0.78373 -3.22461,-1.23243 -1.0319,-0.44878 -2.02167,-0.93552 -2.96875,-1.45312 -0.9473,-0.5177 -1.85181,-1.06652 -2.7168,-1.64649 -0.86499,-0.57999 -1.68931,-1.19047 -2.47461,-1.82617 -0.78539,-0.63567 -1.53195,-1.29752 -2.24023,-1.98242 -0.7083,-0.68479 -1.37998,-1.39185 -2.01368,-2.11914 -0.63374,-0.72729 -1.23108,-1.47499 -1.79296,-2.23828 -0.5618,-0.76309 -1.08769,-1.54344 -1.58008,-2.33594 -0.4924,-0.79249 -0.9495,-1.59897 -1.375,-2.41406 -0.4257,-0.81528 -0.82025,-1.63756 -1.18164,-2.46875 -0.3613,-0.83118 -0.68869,-1.66918 -0.98828,-2.50977 -0.2996,-0.84068 -0.57015,-1.68591 -0.81055,-2.52929 -0.1695,-0.5948 -0.28089,-1.16221 -0.33789,-1.70118 -0.057,-0.53899 -0.0606,-1.04938 -0.0176,-1.53124 0.043,-0.4817 0.13247,-0.93453 0.26367,-1.35743 0.1311,-0.42298 0.30432,-0.81523 0.51172,-1.17773 0.2073,-0.3626 0.44922,-0.69344 0.7207,-0.99414 0.2716,-0.3006 0.57289,-0.5715 0.89649,-0.8086 0.3237,-0.23718 0.6695,-0.44304 1.0332,-0.61523 0.3638,-0.1722 0.74482,-0.31052 1.13672,-0.41602 0.3919,-0.10569 0.79513,-0.17979 1.20313,-0.21679 0.20389,-0.0193 0.40788,-0.0273 0.61328,-0.0273 v -0.004 z" /><path
         id="path7"
         style="fill:url(#linearGradient11);stroke:#000100;stroke-width:0;stroke-opacity:0.870968"
         d="m 10.314453,1.0800781 c -0.7142984,0 -1.4111863,0.070001 -2.0839842,0.2070313 C 7.5577706,1.4240092 6.9104668,1.626419 6.2929688,1.8867188 5.6755707,2.1470185 5.087761,2.4658379 4.5390625,2.8359375 3.990464,3.2059371 3.4790704,3.6275505 3.0136719,4.09375 2.5474731,4.5598495 2.1259582,5.0705412 1.7558594,5.6191406 1.3858603,6.1677401 1.0669399,6.7555475 0.80664062,7.3730469 0.54634142,7.9905363 0.34588396,8.6377475 0.20898438,9.3105469 0.07198478,9.9832362 0,10.680132 0,11.394531 V 197.33398 c 0,0.7144 0.07198478,1.41129 0.20898438,2.08399 0.13689958,0.6728 0.33735704,1.32195 0.59765624,1.93945 0.26029928,0.6175 0.57921968,1.20336 0.94921878,1.75196 0.3700988,0.54859 0.7916137,1.05929 1.2578125,1.52539 0.4653985,0.4662 0.9767921,0.88781 1.5253906,1.25781 0.5486985,0.3701 1.1365082,0.68892 1.7539063,0.94922 0.617498,0.2604 1.2648018,0.46292 1.9375,0.59961 0.6727979,0.137 1.3696858,0.20898 2.0839842,0.20898 H 405.79883 c 0.7144,0 1.41118,-0.072 2.08398,-0.20898 0.6727,-0.13669 1.32,-0.33921 1.9375,-0.59961 0.6175,-0.2603 1.20531,-0.57912 1.75391,-0.94922 0.5486,-0.37 1.05919,-0.79161 1.52539,-1.25781 0.4661,-0.4661 0.88781,-0.9768 1.25781,-1.52539 0.37,-0.5486 0.68697,-1.13446 0.94727,-1.75196 0.2603,-0.6175 0.46261,-1.26665 0.59961,-1.93945 0.1369,-0.6727 0.20898,-1.36959 0.20898,-2.08399 V 11.394531 c 0,-0.714399 -0.072,-1.4112948 -0.20898,-2.0839841 -0.137,-0.6727994 -0.33931,-1.3200106 -0.59961,-1.9375 -0.2603,-0.6174994 -0.57727,-1.2053068 -0.94727,-1.7539063 -0.37,-0.5485994 -0.79171,-1.0592911 -1.25781,-1.5253906 -0.4662,-0.4661995 -0.97679,-0.8878129 -1.52539,-1.2578125 -0.5486,-0.3700996 -1.13641,-0.688919 -1.75391,-0.9492187 -0.6175,-0.2602998 -1.2648,-0.4627096 -1.9375,-0.5996094 -0.6728,-0.1364999 -1.36958,-0.2070313 -2.08398,-0.2070313 z M 76.748047,17.382812 c -1.328697,0 2.632006,0.03699 3.908203,0.115235 1.276297,0.07799 2.525903,0.193303 3.75,0.345703 1.224397,0.1524 2.423106,0.341506 3.595703,0.566406 1.172597,0.2248 2.319909,0.486351 3.441406,0.78125 1.121497,0.2949 2.218266,0.623829 3.289063,0.986328 1.070797,0.3626 2.11437,0.759701 3.134766,1.1875 1.020595,0.4276 2.017583,0.886654 2.988282,1.376954 0.9706,0.490399 1.91474,1.009947 2.83594,1.560546 0.9212,0.5505 1.81735,1.129792 2.68945,1.738282 0.872,0.608199 1.72152,1.246557 2.54492,1.910156 1.6471,1.327199 3.19569,2.761323 4.65039,4.294922 1.4549,1.533598 2.81739,3.16642 4.08399,4.886718 1.26677,1.720499 2.43783,3.530571 3.51953,5.417969 1.0815,1.887798 2.07285,3.851821 2.97265,5.886719 0.9001,2.035098 1.70997,4.140047 2.43164,6.302734 0.7216,2.162898 1.35371,4.3834 1.9004,6.654297 0.54658,2.270898 1.00781,4.593738 1.38281,6.953125 0.3752,2.359388 0.66594,4.75705 0.87304,7.185547 0.207,2.428198 0.33105,4.885794 0.37305,7.363281 0.042,2.477398 1e-5,4.975635 -0.11719,7.482422 -0.1188,2.506988 -0.31685,5.022265 -0.59375,7.539063 -0.2769,2.516791 -0.63305,5.034131 -1.06445,7.541011 -0.4313,2.50699 -0.93908,5.00298 -1.52148,7.48047 -0.5825,2.47729 -1.23855,4.93684 -1.96875,7.36524 -0.7304,2.42809 -1.53546,4.82606 -2.41016,7.18554 -0.8746,2.35959 -1.81851,4.68009 -2.83398,6.95118 -1.0155,2.27099 -2.10091,4.49161 -3.25391,6.65429 -1.1532,2.1629 -2.37481,4.26774 -3.66211,6.30274 -1.2872,2.03509 -2.64042,4.00177 -4.05859,5.88867 -1.4179,1.8876 -2.90177,3.69737 -4.44727,5.41797 -1.5453,1.7205 -3.15289,3.35107 -4.82226,4.88476 -1.669409,1.53349 -3.399464,2.96968 -5.189458,4.29688 -1.789894,1.3271 -3.639681,2.54529 -5.546875,3.64648 -1.907094,1.1011 -3.871684,2.08427 -5.892578,2.93946 -2.020894,0.8554 -4.097022,1.58392 -6.228516,2.17382 -1.065397,0.2949 -2.146284,0.55635 -3.238281,0.78125 -1.092697,0.2249 -2.199163,0.41401 -3.31836,0.56641 -1.119094,0.1524 -2.249234,0.26575 -3.394531,0.34375 -1.145197,0.078 -2.305665,0.11523 -3.476562,0.11523 -1.170997,0 -2.318516,-0.0369 -3.445313,-0.11523 -1.126797,-0.078 -2.233509,-0.19135 -3.316406,-0.34375 -1.082797,-0.1524 -2.142444,-0.34151 -3.181641,-0.56641 -1.039197,-0.2249 -2.056937,-0.48635 -3.052734,-0.78125 -0.995997,-0.2949 -1.969178,-0.62382 -2.921875,-0.98632 -0.952697,-0.36249 -1.885025,-0.7597 -2.794922,-1.1875 -0.909797,-0.42759 -1.798816,-0.88656 -2.666016,-1.37696 -0.867397,-0.49019 -1.712012,-1.012 -2.537109,-1.5625 -1.649894,-1.10119 -3.216922,-2.31938 -4.699219,-3.64648 -1.482194,-1.3272 -2.890271,-2.78049 -4.197265,-4.29688 -1.334497,-1.54839 -2.551784,-3.16426 -3.705078,-4.88476 -1.153397,-1.7206 -2.2248,-3.53037 -3.216797,-5.41797 -0.991897,-1.8869 -1.905482,-3.85358 -2.738282,-5.88867 -0.832797,-2.035 -1.586121,-4.13984 -2.261718,-6.30274 -0.6758,-2.16268 -1.272272,-4.3833 -1.792969,-6.65429 -0.520597,-2.27109 -0.964434,-4.59159 -1.332031,-6.95118 -0.3678,-2.35948 -0.659756,-4.75745 -0.876953,-7.18554 -0.217,-2.4284 -0.358735,-4.88795 -0.427735,-7.36524 -0.069,-2.47749 -0.06433,-4.97348 0.01367,-7.48047 0.078,-2.50688 0.230725,-5.02422 0.453125,-7.541011 0.2223,-2.516798 0.515962,-5.032075 0.880859,-7.539063 0.3646,-2.506787 0.799791,-5.005024 1.304688,-7.482422 0.504797,-2.477487 1.077906,-4.935083 1.720703,-7.363281 0.642897,-2.428497 1.356069,-4.826159 2.134766,-7.185547 0.778797,-2.359387 1.624612,-4.682227 2.537109,-6.953125 0.912697,-2.270897 1.89125,-4.491399 2.935547,-6.654297 1.044197,-2.162687 2.154428,-4.267636 3.328125,-6.302734 1.173797,-2.034898 2.409642,-3.998921 3.710938,-5.886719 1.301095,-1.887398 2.667254,-3.69747 4.09375,-5.417969 1.426595,-1.720298 2.913096,-3.35312 4.46289,-4.886718 1.549697,-1.533599 3.161137,-2.967723 4.832031,-4.294922 1.670797,-1.327199 3.40171,-2.547539 5.191407,-3.648438 1.789794,-1.101099 3.638426,-2.0823 5.544922,-2.9375 1.906795,-0.855399 3.873037,-1.583928 5.894531,-2.173828 1.010697,-0.294899 2.035223,-0.55645 3.074219,-0.78125 1.038995,-0.2249 2.091206,-0.414006 3.158203,-0.566406 1.067097,-0.1524 2.14739,-0.268713 3.242187,-0.345703 1.094797,-0.078 4.446416,-0.115235 3.324219,-0.115235 z m 261.781253,0 c -1.1222,0 2.22942,0.03699 3.32422,0.115235 1.09467,0.07799 2.17508,0.193303 3.24218,0.345703 1.0668,0.1524 2.11931,0.341506 3.15821,0.566406 1.039,0.2248 2.06344,0.484297 3.07421,0.779297 2.0214,0.5898 3.98794,1.318529 5.89454,2.173828 1.90667,0.855399 3.75532,1.836401 5.54492,2.9375 1.7897,1.101099 3.52073,2.321539 5.1914,3.648438 1.6709,1.327198 3.28224,2.763076 4.83204,4.296875 1.54957,1.533598 3.03639,3.164267 4.46289,4.884765 1.42657,1.720399 2.79265,3.530271 4.09375,5.417969 1.30117,1.887488 2.53909,3.853774 3.71289,5.888672 1.1738,2.035098 2.28197,4.140047 3.32617,6.302734 1.0443,2.163098 2.02295,4.3834 2.93555,6.654297 0.91247,2.270898 1.75832,4.591774 2.53711,6.951172 0.77868,2.359498 1.49186,4.757249 2.13476,7.185547 0.6429,2.428298 1.2158,4.887747 1.7207,7.365234 0.5048,2.477398 0.94019,4.973482 1.30469,7.480469 0.3647,2.506798 0.65856,5.022285 0.88086,7.539063 0.2224,2.516594 0.37513,5.034224 0.45313,7.541014 0.078,2.5071 0.0827,5.00503 0.0137,7.48242 -0.069,2.47739 -0.21064,4.935 -0.42774,7.36328 -0.2171,2.42829 -0.50915,4.82616 -0.87695,7.18555 -0.3679,2.3594 -0.81133,4.68204 -1.33203,6.95313 -0.5207,2.27099 -1.11717,4.49151 -1.79297,6.65429 -0.6755,2.1629 -1.42902,4.26774 -2.26172,6.30274 -0.8328,2.03509 -1.74638,3.99923 -2.73828,5.88672 -0.992,1.88769 -2.0635,3.69758 -3.2168,5.41796 -1.1532,1.7205 -2.38828,3.35117 -3.70508,4.88477 -1.31667,1.5337 -2.71496,2.97163 -4.19726,4.29883 -1.4822,1.3272 -3.04717,2.54539 -4.69727,3.64648 -0.825,0.5506 -1.67176,1.07025 -2.53906,1.56055 -0.8673,0.4903 -1.75624,0.94926 -2.66601,1.37695 -0.91,0.4276 -1.84203,0.82531 -2.79493,1.1875 -0.9526,0.3627 -1.92597,0.69123 -2.92187,0.98633 -0.9958,0.2948 -2.01148,0.55645 -3.05078,0.78125 -1.0392,0.2249 -2.1007,0.41401 -3.1836,0.56641 -1.0828,0.1524 -2.18775,0.2677 -3.31445,0.3457 -1.1269,0.078 -2.27627,0.11523 -3.44727,0.11523 -1.17087,0 -2.32943,-0.0369 -3.4746,-0.11523 -1.1454,-0.078 -2.27739,-0.1933 -3.39649,-0.3457 -1.1192,-0.1524 -2.22626,-0.34151 -3.31836,-0.56641 -1.0924,-0.2248 -2.17268,-0.48645 -3.23828,-0.78125 -2.1314,-0.59 -4.20773,-1.31863 -6.22851,-2.17383 -2.02079,-0.85539 -3.98551,-1.8365 -5.89258,-2.9375 -1.9072,-1.10109 -3.75698,-2.31928 -5.54688,-3.64648 -1.7899,-1.3272 -3.51995,-2.76513 -5.18945,-4.29883 -1.6694,-1.5336 -3.27687,-3.16427 -4.82227,-4.88477 -1.5454,-1.72038 -3.02956,-3.53027 -4.44726,-5.41796 -1.4181,-1.88749 -2.7713,-3.85163 -4.0586,-5.88672 -1.28717,-2.035 -2.50901,-4.13984 -3.66211,-6.30274 -1.15307,-2.16278 -2.2382,-4.3833 -3.2539,-6.65429 -1.0156,-2.27109 -1.95949,-4.59373 -2.83399,-6.95313 -0.8747,-2.35939 -1.67965,-4.75726 -2.41015,-7.18555 -0.7302,-2.42828 -1.38625,-4.88589 -1.96875,-7.36328 -0.5826,-2.47739 -1.09009,-4.97532 -1.52149,-7.48242 -0.4315,-2.50679 -0.78765,-5.02442 -1.06445,-7.541014 -0.277,-2.516778 -0.47485,-5.032265 -0.59375,-7.539063 -0.1172,-2.506987 -0.16019,-5.003071 -0.11719,-7.480469 0.042,-2.477487 0.168,-4.936936 0.375,-7.365234 0.2069,-2.428298 0.4959,-4.826049 0.8711,-7.185547 0.3751,-2.359398 0.83631,-4.680274 1.38281,-6.951172 0.5468,-2.270897 1.18084,-4.491199 1.90234,-6.654297 0.7216,-2.162687 1.52979,-4.267636 2.42969,-6.302734 0.8999,-2.034898 1.89116,-4.001184 2.97266,-5.888672 1.0816,-1.887698 2.25293,-3.69757 3.51953,-5.417969 1.2668,-1.720498 2.62908,-3.351167 4.08398,-4.884765 1.455,-1.533799 3.00339,-2.969677 4.65039,-4.296875 0.8236,-0.6633 1.67295,-1.300004 2.54492,-1.908203 0.8722,-0.60849 1.76816,-1.189635 2.68946,-1.740235 0.921,-0.550499 1.86739,-1.070347 2.83789,-1.560547 0.9707,-0.490299 1.96593,-0.949153 2.98633,-1.376953 1.0205,-0.427599 2.06593,-0.825 3.13672,-1.1875 1.07068,-0.362399 2.16553,-0.691628 3.2871,-0.986328 1.1215,-0.295 2.26881,-0.554497 3.44141,-0.779297 1.1726,-0.2249 2.3714,-0.414006 3.5957,-0.566406 1.2242,-0.1524 2.47383,-0.268713 3.75,-0.345703 1.2764,-0.078 5.23691,-0.115235 3.90821,-0.115235 z M 142.87305,102.11523 c 0.2054,-10e-4 0.41119,0.0105 0.61718,0.0215 0.4119,0.032 0.82442,0.10002 1.22852,0.20312 0.404,0.1033 0.80155,0.24393 1.18555,0.41993 0.38409,0.1762 0.75347,0.38827 1.10547,0.63867 0.35208,0.2504 0.68604,0.53903 0.99414,0.86523 0.30799,0.32617 0.59175,0.69015 0.84375,1.09375 0.25199,0.40357 0.47235,0.84554 0.65625,1.32813 0.23389,0.6137 0.48465,1.21631 0.75195,1.80859 0.2672,0.59229 0.55166,1.17526 0.85352,1.74414 0.30188,0.569 0.62118,1.12662 0.95898,1.66992 0.3378,0.54368 0.69336,1.07336 1.06836,1.58985 0.3749,0.5165 0.7702,1.01846 1.18359,1.50586 0.4134,0.4873 0.84378,0.95981 1.29688,1.41601 0.45299,0.45627 0.92788,0.89711 1.42187,1.32031 0.4941,0.42329 1.00864,0.83045 1.54492,1.21875 0.5364,0.38829 1.09414,0.75798 1.67383,1.10938 0.5798,0.3515 1.18019,0.68349 1.80469,0.99609 0.6246,0.31269 1.27276,0.60711 1.94336,0.87891 0.67059,0.2719 1.3661,0.52275 2.08398,0.75195 0.7179,0.22928 1.45813,0.4365 2.22461,0.6211 0.42795,0.10306 0.88253,0.18083 1.32617,0.26953 0.351,0.0702 0.68824,0.15394 1.04883,0.21484 0.8163,0.1381 1.65791,0.2518 2.52539,0.3418 0.8674,0.09 1.7598,0.15436 2.67969,0.19336 0.493,0.0216 0.98652,0.0253 1.47852,0.0117 0.49189,-0.015 0.98311,-0.048 1.47461,-0.10157 0.49138,-0.052 0.98301,-0.12284 1.47461,-0.21484 0.49158,-0.092 0.98426,-0.20449 1.47656,-0.33789 0.49229,-0.1335 0.98503,-0.28805 1.47851,-0.46484 0.4937,-0.1769 0.98693,-0.37556 1.48243,-0.59766 0.49538,-0.2222 0.99223,-0.46888 1.49023,-0.73828 0.498,-0.2694 0.99705,-0.56226 1.49805,-0.88086 0.50109,-0.3185 1.00311,-0.66352 1.50781,-1.0332 0.5047,-0.3696 1.0126,-0.76305 1.52148,-1.18555 0.509,-0.4227 1.01941,-0.87211 1.53321,-1.34961 0.51389,-0.4776 1.02967,-0.98534 1.54883,-1.51953 0.51928,-0.5344 1.0411,-1.09639 1.5664,-1.68945 0.5253,-0.593 1.05414,-1.21545 1.58594,-1.86915 0.5319,-0.65366 1.06832,-1.34025 1.60742,-2.05664 0.5391,-0.71628 1.08201,-1.4653 1.62891,-2.24609 0.118,-0.16839 0.26882,-0.32702 0.44922,-0.47852 0.18029,-0.15149 0.3906,-0.29363 0.625,-0.42773 0.23438,-0.13399 0.49324,-0.26075 0.77343,-0.37695 0.2802,-0.1162 0.58104,-0.22232 0.89844,-0.32032 0.635,-0.19549 1.33623,-0.35405 2.07031,-0.47265 0.7342,-0.1186 1.50109,-0.19738 2.26758,-0.23438 0.2449,-0.01 0.48081,0.0117 0.72461,0.0117 0.2437,0 0.47766,-0.0217 0.72266,-0.0117 0.76638,0.037 1.53352,0.11588 2.26758,0.23438 0.73418,0.1186 1.43531,0.27726 2.07031,0.47265 0.3175,0.098 0.62009,0.20412 0.90039,0.32032 0.2801,0.1162 0.53904,0.24306 0.77344,0.37695 0.23438,0.1342 0.4446,0.27624 0.625,0.42773 0.18029,0.1515 0.33132,0.31013 0.44921,0.47852 0.547,0.78079 1.08981,1.52981 1.62891,2.24609 0.5391,0.71639 1.07357,1.40288 1.60547,2.05664 0.5319,0.6537 1.06054,1.27605 1.58594,1.86915 0.52519,0.59296 1.04721,1.15505 1.5664,1.68945 0.5192,0.53429 1.03503,1.04193 1.54883,1.51953 0.5138,0.4775 1.02616,0.92691 1.53516,1.34961 0.50899,0.4226 1.01483,0.81585 1.51953,1.18555 0.5047,0.36958 1.00888,0.7147 1.50976,1.0332 0.5011,0.3186 1.00015,0.61146 1.49805,0.88086 0.498,0.2694 0.99484,0.51608 1.49024,0.73828 0.49558,0.2221 0.98882,0.42076 1.48242,0.59766 0.49359,0.17679 0.98632,0.33144 1.47851,0.46484 0.4923,0.1334 0.98507,0.24589 1.47657,0.33789 0.49158,0.092 0.98126,0.16284 1.47265,0.21484 0.4911,0.053 0.98458,0.087 1.47656,0.10157 0.4919,0.0134 0.98357,0.01 1.47657,-0.0117 0.91988,-0.039 1.81414,-0.10336 2.68164,-0.19336 0.86738,-0.09 1.70899,-0.2038 2.52539,-0.3418 0.38962,-0.0659 0.7548,-0.15387 1.13281,-0.23047 0.41397,-0.0839 0.83968,-0.1574 1.24024,-0.2539 0.76648,-0.1846 1.50866,-0.39192 2.22656,-0.6211 0.7179,-0.2293 1.41338,-0.48005 2.08398,-0.75195 0.6706,-0.2718 1.31681,-0.56621 1.94141,-0.87891 0.6246,-0.3126 1.22684,-0.64459 1.80664,-0.99609 0.5798,-0.3514 1.13753,-0.72098 1.67383,-1.10938 0.5362,-0.3883 1.05092,-0.79555 1.54492,-1.21875 0.494,-0.4233 0.96692,-0.86414 1.41992,-1.32031 0.4531,-0.4563 0.88543,-0.92871 1.29883,-1.41601 0.4134,-0.4874 0.80674,-0.98936 1.18164,-1.50586 0.375,-0.51649 0.73251,-1.04617 1.07031,-1.58985 0.3378,-0.5433 0.65709,-1.10092 0.95899,-1.66992 0.3019,-0.56898 0.58631,-1.15185 0.85351,-1.74414 0.2673,-0.59228 0.5181,-1.19489 0.75196,-1.80859 0.18388,-0.48259 0.40229,-0.92466 0.65429,-1.32813 0.2515,-0.4037 0.53575,-0.76758 0.84375,-1.09375 0.308,-0.3262 0.64214,-0.61483 0.99414,-0.86523 0.3521,-0.2504 0.72137,-0.46257 1.10547,-0.63867 0.384,-0.1761 0.78155,-0.31653 1.18555,-0.41993 0.404,-0.10353 0.81661,-0.17112 1.22851,-0.20312 0.4121,-0.0304 0.82453,-0.0257 1.23243,0.0117 0.40788,0.037 0.81122,0.11119 1.20312,0.21679 0.3918,0.1056 0.77097,0.24382 1.13477,0.41602 0.3638,0.17219 0.71155,0.37805 1.03515,0.61523 0.3237,0.2371 0.62499,0.5079 0.89649,0.8086 0.2715,0.3007 0.5134,0.63154 0.7207,0.99414 0.2074,0.3625 0.37857,0.75484 0.50977,1.17773 0.1311,0.4229 0.22262,0.87573 0.26562,1.35743 0.044,0.48186 0.0375,0.99225 -0.0195,1.53124 -0.057,0.53897 -0.16684,1.10638 -0.33594,1.70118 -0.2405,0.84338 -0.51095,1.68861 -0.81055,2.52929 -0.29954,0.84069 -0.62893,1.67858 -0.99023,2.50977 -0.3613,0.8313 -0.75409,1.65346 -1.17969,2.46875 -0.4256,0.8152 -0.8827,1.62166 -1.375,2.41406 -0.4925,0.7925 -1.02033,1.57275 -1.58203,2.33594 -0.5615,0.7632 -1.15723,1.51098 -1.79101,2.23828 -0.6337,0.72729 -1.30548,1.43424 -2.01368,2.11914 -0.70834,0.6848 -1.45483,1.34675 -2.24023,1.98242 -0.7853,0.6358 -1.60971,1.24618 -2.47461,1.82617 -0.8649,0.57997 -1.77155,1.12879 -2.71875,1.64649 -0.9472,0.5177 -1.9349,1.00434 -2.9668,1.45312 -1.03198,0.4487 -2.10726,0.85943 -3.22656,1.23243 -1.1192,0.3729 -2.28309,0.70695 -3.49219,0.99804 -1.20908,0.2909 -2.46414,0.53999 -3.76562,0.74219 -0.73812,0.11467 -1.52637,0.17927 -2.29492,0.26367 -0.009,0.23707 -0.0188,0.47405 -0.0293,0.71094 -0.13092,1.54251 -0.2948,3.07585 -0.49023,4.59766 -0.19544,1.52178 -0.42244,3.03208 -0.68165,4.52734 -0.25934,1.49533 -0.5496,2.97435 -0.87109,4.43359 -0.14767,0.67029 -0.32574,1.32061 -0.48633,1.98243 -0.18902,0.77898 -0.36356,1.56753 -0.57031,2.33398 -0.38224,1.41774 -0.79367,2.81067 -1.23437,4.17773 -0.44072,1.36709 -0.91071,2.70835 -1.40821,4.01954 -0.49751,1.3111 -1.02308,2.591 -1.57422,3.83789 -0.55112,1.24688 -1.12783,2.4608 -1.73047,3.63867 -0.60246,1.17775 -1.22875,2.31863 -1.8789,3.41992 -0.65016,1.10129 -1.32421,2.16302 -2.01953,3.18359 -0.69572,1.02048 -1.41197,1.99845 -2.14844,2.93164 -0.73647,0.93322 -1.49317,1.82169 -2.26758,2.66407 -0.77414,0.84271 -1.56589,1.63819 -2.37305,2.38476 -0.80713,0.74656 -1.62972,1.44425 -2.46679,2.0918 -0.83697,0.64739 -1.68728,1.24477 -2.54883,1.78906 -0.86155,0.54429 -1.73435,1.0355 -2.61719,1.47461 -0.883,0.43895 -1.77514,0.82336 -2.67383,1.1543 -0.89866,0.33094 -1.80393,0.60842 -2.71484,0.83008 -0.91081,0.22174 -1.82493,0.38893 -2.74219,0.5 -0.91724,0.11112 -1.83764,0.16603 -2.75781,0.16601 -0.92017,2e-5 -1.84056,-0.0549 -2.75781,-0.16601 -0.91725,-0.11107 -1.83138,-0.27826 -2.74219,-0.5 -0.91091,-0.22166 -1.81617,-0.49914 -2.71484,-0.83008 -0.89869,-0.33094 -1.79082,-0.71535 -2.67383,-1.1543 -0.88318,-0.43903 -1.75726,-0.93032 -2.61914,-1.47461 -0.86188,-0.54429 -1.71155,-1.14159 -2.54883,-1.78906 -0.83708,-0.64755 -1.65964,-1.34524 -2.4668,-2.0918 -0.80714,-0.74657 -1.59892,-1.54205 -2.37304,-2.38476 -0.77407,-0.84245 -1.52948,-1.73085 -2.26563,-2.66407 -0.73615,-0.93319 -1.45303,-1.91123 -2.14844,-2.93164 -0.69531,-1.02057 -1.36937,-2.0823 -2.01953,-3.18359 -0.65015,-1.10129 -1.27642,-2.24217 -1.8789,-3.41992 -0.60264,-1.17787 -1.17934,-2.39179 -1.73047,-3.63867 -0.55114,-1.24689 -1.07671,-2.52679 -1.57422,-3.83789 -0.49783,-1.31114 -0.96718,-2.65245 -1.4082,-4.01954 -0.44104,-1.36706 -0.85378,-2.75994 -1.23633,-4.17773 -0.19726,-0.73194 -0.36382,-1.48511 -0.54492,-2.22852 -0.16967,-0.69641 -0.35442,-1.38206 -0.50977,-2.08789 -0.32117,-1.45924 -0.61204,-2.9383 -0.87109,-4.43359 -0.25921,-1.49526 -0.48621,-3.00556 -0.68164,-4.52734 -0.19544,-1.52181 -0.35931,-3.05515 -0.49024,-4.59766 -0.0105,-0.23689 -0.0203,-0.47387 -0.0293,-0.71094 -0.76935,-0.0844 -1.55849,-0.14896 -2.29687,-0.26367 -1.30149,-0.2022 -2.55459,-0.45129 -3.76367,-0.74219 -1.20909,-0.29108 -2.37496,-0.62515 -3.49414,-0.99804 -1.1192,-0.373 -2.19263,-0.78373 -3.22461,-1.23243 -1.0319,-0.44878 -2.02167,-0.93552 -2.96875,-1.45312 -0.9473,-0.5177 -1.85181,-1.06652 -2.7168,-1.64649 -0.86499,-0.57999 -1.68931,-1.19047 -2.47461,-1.82617 -0.78539,-0.63567 -1.53195,-1.29752 -2.24023,-1.98242 -0.7083,-0.68479 -1.37998,-1.39185 -2.01368,-2.11914 -0.63374,-0.72729 -1.23108,-1.47499 -1.79296,-2.23828 -0.5618,-0.76309 -1.08769,-1.54344 -1.58008,-2.33594 -0.4924,-0.79249 -0.9495,-1.59897 -1.375,-2.41406 -0.4257,-0.81528 -0.82025,-1.63756 -1.18164,-2.46875 -0.3613,-0.83118 -0.68869,-1.66918 -0.98828,-2.50977 -0.2996,-0.84068 -0.57015,-1.68591 -0.81055,-2.52929 -0.1695,-0.5948 -0.28089,-1.16221 -0.33789,-1.70118 -0.057,-0.53899 -0.0606,-1.04938 -0.0176,-1.53124 0.043,-0.4817 0.13247,-0.93453 0.26367,-1.35743 0.1311,-0.42298 0.30432,-0.81523 0.51172,-1.17773 0.2073,-0.3626 0.44922,-0.69344 0.7207,-0.99414 0.2716,-0.3006 0.57289,-0.5715 0.89649,-0.8086 0.3237,-0.23718 0.6695,-0.44304 1.0332,-0.61523 0.3638,-0.1722 0.74482,-0.31052 1.13672,-0.41602 0.3919,-0.10569 0.79513,-0.17979 1.20313,-0.21679 0.20389,-0.0193 0.40788,-0.0273 0.61328,-0.0273 v -0.004 z" /><path
         d="m 351.91601,36.64858 c -0.8452,0 -1.6569,0.048 -2.4356,0.1464 -0.7787,0.097 -1.5249,0.2401 -2.2382,0.4278 -0.7135,0.1876 -1.3939,0.4213 -2.043,0.6933 -0.6491,0.2721 -1.2676,0.5835 -1.8535,0.9336 -0.586,0.3503 -1.1402,0.7381 -1.6641,1.1602 -0.5239,0.4222 -1.0177,0.8795 -1.4805,1.3672 -0.4627,0.4878 -0.8941,1.0057 -1.2968,1.5527 -0.4029,0.5473 -0.7771,1.1224 -1.1211,1.7227 -0.6879,1.2007 -1.2599,2.5011 -1.7188,3.8769 -0.4589,1.375699 -0.8042,2.827299 -1.0429,4.328099 -0.2385,1.5007 -0.3694,3.053 -0.3965,4.6289 -0.026,1.5758 0.05,3.1746 0.2265,4.7754 0.1761,1.6009 0.4517,3.2015 0.8223,4.7774 0.3705,1.5758 0.8343,3.128 1.3906,4.6289 0.5564,1.5008 1.204,2.9524 1.9375,4.3281 0.7336,1.375802 1.5551,2.676502 2.4571,3.877002 0.9021,1.2007 1.8835,2.2997 2.9453,3.2754 0.5311,0.4877 1.083,0.9449 1.6523,1.3671 0.5693,0.4221 1.1572,0.81 1.7637,1.1602 0.6066,0.3503 1.2321,0.6617 1.875,0.9336 0.6427,0.2721 1.3044,0.5058 1.9824,0.6934 0.6777,0.1876 1.3721,0.3308 2.084,0.4277 0.7118,0.097 1.4408,0.1445 2.1855,0.1445 0.7449,0 1.4617,-0.047 2.1504,-0.1445 0.6889,-0.097 1.3491,-0.2401 1.9825,-0.4277 0.6334,-0.1876 1.2376,-0.4213 1.8164,-0.6934 0.5788,-0.2719 1.1313,-0.5833 1.6562,-0.9336 0.5248,-0.3502 1.0227,-0.7381 1.4942,-1.1602 0.4715,-0.4222 0.9152,-0.8794 1.3339,-1.3671 0.419,-0.488 0.8129,-1.0075 1.1797,-1.5547 0.3668,-0.5471 0.7079,-1.1202 1.0235,-1.7207 0.6309,-1.2005 1.1601,-2.5012 1.5898,-3.877002 0.4297,-1.3757 0.76,-2.8273 0.9941,-4.3281 0.2339,-1.5009 0.3706,-3.0531 0.4141,-4.6289 0.043,-1.5759 -0.014,-3.1765 -0.1484,-4.7774 -0.1416,-1.6008 -0.3723,-3.1996 -0.6934,-4.7754 -0.3211,-1.5759 -0.7312,-3.1282 -1.2265,-4.6289 -0.4953,-1.5008 -1.0761,-2.9524 -1.7403,-4.328099 -0.6641,-1.3758 -1.4124,-2.6762 -2.2402,-3.8769 -0.8277,-1.2006 -1.7371,-2.2997 -2.7227,-3.2754 -0.493,-0.4877 -1.0039,-0.945 -1.5351,-1.3672 -0.5315,-0.4221 -1.0811,-0.8099 -1.6504,-1.1602 -0.5691,-0.3501 -1.1573,-0.6615 -1.7637,-0.9336 -0.6064,-0.272 -1.2302,-0.5057 -1.873,-0.6933 -0.6428,-0.1877 -1.3056,-0.3309 -1.9844,-0.4278 -0.6786,-0.097 -1.3742,-0.1464 -2.0879,-0.1464 z m -255.089901,4.2929 c -0.7137,0 -1.4111,0.051 -2.0898,0.1485 -0.6787,0.097 -1.3395,0.24 -1.9824,0.4277 -0.6429,0.1875 -1.2668,0.4176 -1.8731,0.6894 -0.6063,0.2721 -1.1943,0.5875 -1.7636,0.9376 -0.569,0.3501 -1.1209,0.7362 -1.6524,1.1582 -0.5313,0.4222 -1.0442,0.8793 -1.5371,1.3671 -0.9857,0.9755 -1.893,2.0749 -2.7207,3.275399 -0.8277,1.2008 -1.5759,2.5032 -2.2402,3.8789 -0.6642,1.3757 -1.2428,2.8255 -1.7383,4.3262 -0.4952,1.5009 -0.9074,3.0512 -1.2285,4.627 -0.3211,1.5759 -0.5521,3.1785 -0.6934,4.7793 -0.1414,1.601 -0.1919,3.2014 -0.1484,4.7773 0.043,1.5758 0.1801,3.126 0.414,4.627 0.2341,1.500602 0.5645,2.952402 0.9942,4.328102 0.4298,1.3756 0.9587,2.6743 1.5898,3.875 0.3153,0.6002 0.6567,1.1774 1.0235,1.7246 0.3667,0.5471 0.7591,1.0668 1.1777,1.5547 0.4189,0.4877 0.8646,0.9431 1.3359,1.3652 0.4715,0.4222 0.9693,0.81 1.4942,1.1602 0.5246,0.3504 1.0755,0.6637 1.6543,0.9355 0.5788,0.2721 1.1868,0.5019 1.8203,0.6895 0.6335,0.1875 1.2918,0.3328 1.9805,0.4297 0.689,0.097 1.4075,0.1464 2.1523,0.1464 0.7448,0 1.4738,-0.049 2.1855,-0.1464 0.712,-0.097 1.4061,-0.2422 2.084,-0.4297 0.6779,-0.1876 1.339801,-0.4174 1.982501,-0.6895 0.6428,-0.2718 1.2664,-0.5851 1.873,-0.9355 0.6065,-0.3502 1.1962,-0.738 1.7656,-1.1602 0.5693,-0.4221 1.1174,-0.8775 1.6485,-1.3652 1.0617,-0.9757 2.0452,-2.0786 2.9472,-3.2793 0.9021,-1.2007 1.7236,-2.4994 2.4571,-3.875 0.7335,-1.3757 1.3791,-2.8275 1.9355,-4.328102 0.5564,-1.501 1.024,-3.0512 1.3945,-4.627 0.3706,-1.5759 0.6442,-3.1763 0.8204,-4.7773 0.1759,-1.6008 0.2534,-3.2034 0.2265,-4.7793 -0.026,-1.5758 -0.1577,-3.1261 -0.3965,-4.627 -0.2385,-1.5007 -0.584,-2.9505 -1.0429,-4.3262 -0.459,-1.3757 -1.0309,-2.6781 -1.7188,-3.8789 -0.3439,-0.600199 -0.7183,-1.175599 -1.1211,-1.722599 -0.403,-0.5472 -0.834,-1.0651 -1.2969,-1.5528 -0.4626,-0.4878 -0.9566,-0.9449 -1.4804,-1.3671 -0.5238,-0.422 -1.0781,-0.8081 -1.6641,-1.1582 -0.5859,-0.3501 -1.2046,-0.6655 -1.8535,-0.9376 -0.6492,-0.2718 -1.3299,-0.5019 -2.043,-0.6894 -0.7134,-0.1877 -1.4576,-0.3307 -2.2363,-0.4277 -0.7787,-0.097 -1.590501,-0.1485 -2.435601,-0.1485 z"
         style="fill:#ffffff;fill-opacity:1;stroke:#000100;stroke-width:0;stroke-opacity:0.870968"
         id="path1-9" /></g><path
       d="m 7.6991916,324.47843 c -4.2658,0 -7.699199975,1.61 -7.699199975,3.60921 v 26.87203 c 0,1.99921 3.433399975,3.60925 7.699199975,3.60925 H 408.41399 c 4.2658,0 7.6993,-1.61004 7.6993,-3.60925 v -26.87203 c 0,-1.99921 -3.4335,-3.60921 -7.6993,-3.60921 z"
       style="display:inline;fill:#ff0000;fill-opacity:1;stroke:#000100;stroke-width:0;stroke-opacity:0.870968"
       id="path1" /><path
       d="m 7.6991926,373.95343 c -4.2658,0 -7.6992009397217,1.61 -7.6992009397217,3.60921 v 26.87203 c 0,1.99921 3.4334009397217,3.60925 7.6992009397217,3.60925 H 408.41399 c 4.2658,0 7.6993,-1.61005 7.6993,-3.60925 v -26.87203 c 0,-1.99921 -3.4335,-3.60921 -7.6993,-3.60921 z"
       style="display:inline;fill:#ffff00;fill-opacity:1;stroke:#000100;stroke-width:0;stroke-opacity:0.870968"
       id="path1-1" /><path
       d="m 7.6991954,275.00343 c -4.2658,0 -7.6992002,1.61 -7.6992002,3.60921 v 26.87203 c 0,1.99921 3.4334002,3.60925 7.6992002,3.60925 H 408.41399 c 4.2658,0 7.6993,-1.61004 7.6993,-3.60925 v -26.87203 c 0,-1.99921 -3.4335,-3.60921 -7.6993,-3.60921 z"
       style="display:inline;fill:#00ff00;fill-opacity:1;stroke:#000100;stroke-width:0;stroke-opacity:0.870968"
       id="path1-5" /><path
       d="m 7.6991913,423.42843 c -4.2658,0 -7.6992000398609,3.4353 -7.6992000398609,7.7011 v 57.3379 c 0,4.2658 3.4334000398609,7.7012 7.6992000398609,7.7012 H 408.41399 c 4.2658,0 7.6993,-3.4354 7.6993,-7.7012 v -57.3379 c 0,-4.2658 -3.4335,-7.7011 -7.6993,-7.7011 z"
       style="display:inline;fill:#381408;fill-opacity:1;stroke:#000100;stroke-width:0;stroke-opacity:0.870968"
       id="path1-0" /><path
       d="m 7.6991947,223.0349 c -4.2658,0 -7.69920005,1.72776 -7.69920005,3.8732 v 28.83757 c 0,2.14545 3.43340005,3.87325 7.69920005,3.87325 H 408.41399 c 4.2658,0 7.6993,-1.7278 7.6993,-3.87325 V 226.9081 c 0,-2.14544 -3.4335,-3.8732 -7.6993,-3.8732 z"
       style="display:inline;fill:#800080;fill-opacity:1;stroke:#000100;stroke-width:0;stroke-opacity:0.870968"
       id="path1-7" /><path
       d="m 235.5164,144.19524 a 45.320476,64.524182 0 0 0 -0.042,-0.0481 45.320476,64.524182 0 0 0 -1.99423,-2.03894 45.320476,64.524182 0 0 0 -2.06784,-1.883 45.320476,64.524182 0 0 0 -2.13688,-1.71933 45.320476,64.524182 0 0 0 -2.19847,-1.55375 45.320476,64.524182 0 0 0 -2.25554,-1.38047 45.320476,64.524182 0 0 0 -2.30358,-1.20528 45.320476,64.524182 0 0 0 -2.34563,-1.02427 45.320476,64.524182 0 0 0 -2.38166,-0.8433 45.320476,64.524182 0 0 0 -2.41172,-0.65848 45.320476,64.524182 0 0 0 -2.43123,-0.47364 45.320476,64.524182 0 0 0 -2.44624,-0.28302 45.320476,64.524182 0 0 0 -2.45374,-0.0943 45.320476,64.524182 0 0 0 -7.08946,0.79516 45.320476,64.524182 0 0 0 -6.91525,2.36241 45.320476,64.524182 0 0 0 -6.57137,3.87573 45.320476,64.524182 0 0 0 -6.0623,5.28891 45.320476,64.524182 0 0 0 -0.81241,0.9877 c 0.13923,0.73285 0.2673,1.47529 0.41897,2.19682 0.29411,1.39762 0.61147,2.77068 0.95056,4.11831 0.33909,1.34766 0.69994,2.66988 1.08272,3.96237 0.38252,1.29247 0.7866,2.55414 1.21036,3.7833 0.42374,1.22916 0.86714,2.4258 1.33049,3.58692 0.46323,1.16101 0.94474,2.28565 1.44461,3.37127 0.4999,1.08564 1.01814,2.13226 1.55274,3.13832 0.53468,1.00589 1.08586,1.96999 1.65186,2.88995 0.566,0.91995 1.14679,1.7957 1.74197,2.62617 0.59519,0.83073 1.20394,1.6149 1.82453,2.35085 0.6206,0.73595 1.25303,1.42369 1.89663,2.06203 0.64376,0.63826 1.29702,1.22706 1.9597,1.76361 0.66266,0.53657 1.33471,1.02086 2.01375,1.45365 0.67892,0.4327 1.36484,0.81163 2.05582,1.13787 0.69096,0.32624 1.38697,0.59977 2.08733,0.81828 0.7003,0.21859 1.40313,0.38339 2.10837,0.49288 0.70524,0.10946 1.4129,0.16366 2.12038,0.16365 0.70746,1e-5 1.41513,-0.0542 2.12036,-0.16365 0.70525,-0.10947 1.40809,-0.27429 2.10837,-0.49288 0.70036,-0.21851 1.39638,-0.49204 2.08733,-0.81828 0.69099,-0.32624 1.3769,-0.70517 2.05582,-1.13787 0.67878,-0.43287 1.34985,-0.91708 2.01226,-1.45365 0.66241,-0.53655 1.31618,-1.12542 1.9597,-1.76361 0.64359,-0.63834 1.27602,-1.32608 1.89662,-2.06203 0.62059,-0.73595 1.22934,-1.52012 1.82455,-2.35085 0.59541,-0.8304 1.17721,-1.70622 1.74345,-2.62617 0.56626,-0.91996 1.11695,-1.88398 1.65186,-2.88995 0.53461,-1.00606 1.05285,-2.05268 1.55275,-3.13832 0.49987,-1.08562 0.98138,-2.21026 1.4446,-3.37127 0.46336,-1.16112 0.90675,-2.35776 1.3305,-3.58692 0.42375,-1.22916 0.82785,-2.49083 1.21036,-3.7833 0.38251,-1.29254 0.74387,-2.61471 1.08272,-3.96237 0.33884,-1.34763 0.65516,-2.72073 0.94907,-4.11831 0.15896,-0.75556 0.29315,-1.53286 0.43848,-2.30077 z"
       style="display:inline;fill:#ff3d62;fill-opacity:1;stroke:#000100;stroke-width:0;stroke-opacity:0.870968"
       id="path26-1" /></g></svg>
