<?xml version="1.0" encoding="UTF-8" standalone="no"?>
<!-- Created with Inkscape (http://www.inkscape.org/) -->

<svg
   version="1.1"
   id="svg1"
   width="1984"
   height="163.89957"
   viewBox="0 0 1984 163.89956"
   sodipodi:docname="path1.svg"
   inkscape:version="1.3 (0e150ed6c4, 2023-07-21)"
   xmlns:inkscape="http://www.inkscape.org/namespaces/inkscape"
   xmlns:sodipodi="http://sodipodi.sourceforge.net/DTD/sodipodi-0.dtd"
   xmlns="http://www.w3.org/2000/svg"
   xmlns:svg="http://www.w3.org/2000/svg">
  <sodipodi:namedview
     id="namedview1"
     pagecolor="#ffffff"
     bordercolor="#000000"
     borderopacity="0.25"
     inkscape:showpageshadow="2"
     inkscape:pageopacity="0.0"
     inkscape:pagecheckerboard="0"
     inkscape:deskcolor="#d1d1d1"
     inkscape:zoom="0.16822298"
     inkscape:cx="1444.5113"
     inkscape:cy="-912.47935"
     inkscape:window-width="1366"
     inkscape:window-height="697"
     inkscape:window-x="-8"
     inkscape:window-y="-8"
     inkscape:window-maximized="1"
     inkscape:current-layer="g1" />
  <defs
     id="defs1" />
  <g
     id="g1"
     transform="translate(5e-7,0.22247437)">
    <path
       id="path1"
       style="fill:#000000;stroke:#000100;stroke-width:0;stroke-opacity:0.870968"
       d="m 1984,0 v 80.901534 c -9.8664,0 -14.5697,-1.241162 -17.6758,10.767576 -3.1386,12.1343 -14.6698,2.64628 -14.25,11.6543 0.7933,17.01932 -5.8533,20.09686 -16.9531,21.83399 -8.5721,1.34152 -23.8656,-8.72051 -18.5566,-29.01172 3.0106,-11.50701 -14.8041,-28.460799 -24.4571,-9.58985 -3.4341,6.71337 -10.4009,-3.75214 -17.8926,-1.32812 -7.9277,2.56511 1.3606,21.79701 -17.0507,21.85351 -17.4342,0.0535 -19.031,-13.03029 -19.9688,-21.05664 -0.8278,-7.085634 -11.2697,0.43127 -18.6582,-4.279296 -3.7112,-2.366097 -14.3088,-4.952007 -11.8398,18.291016 1.7723,16.68472 -32.1484,28.85276 -32.5606,-5.76758 -3.2972,-1.64859 -15.7366,4.55993 -16.7109,-15.83203 -0.7718,-6.018875 -13.6778,-10.299397 -20.6192,-1.472656 -2.6624,3.385587 -4.4462,8.700176 -4.332,16.583986 -0.4121,7.0065 -8.1645,11.84766 -18.6523,11.84766 -3.7437,8.21403 2.8866,16.3577 -2.4629,25.98437 -6.1317,11.0342 -27.1113,11.60774 -31.4356,-1.07031 -6.2172,-18.22778 1.3554,-13.00696 -4.9863,-35.4043 -3.5948,-12.696022 -21.1613,-14.584197 -26.1641,-3.81836 -5.5697,11.98595 -28.3657,4.6738 -25.1054,-7.859374 0.5052,-1.942306 -2.1851,-7.147114 -6.5586,-5.035156 -9.7138,4.690775 -16.7144,-9.668594 -22.7168,-6.886719 -14.0566,6.514643 -17.0906,-10.062809 -27.3496,-1.984375 -6.411,5.048344 -15.0243,15.062374 -10.3614,34.296874 2.5585,10.55369 -1.6122,21.32402 -13.8867,21.83203 -10.2468,0.42408 -14.8435,-6.6327 -16.4218,-22.41601 1.1657,-13.40587 -10.4929,-20.398891 -20.9844,-6.41016 -10.8894,8.38569 -14.0933,-2.01558 -25.4336,1.16602 -2.1043,1.0011 -6.0951,3.64609 -8.0254,8.16015 -4.2781,10.00436 2.2196,5.59233 -3.4063,20.37305 -2.29,6.01655 -12.9647,10.46743 -23.6562,6.34375 -2.0618,8.76244 -3.2954,18.97768 -16.2441,22.44727 -12.4343,1.52866 -25.0362,-4.40827 -25.5567,-22.80078 -0.6075,-21.46959 -9.1522,-33.69772 -28.3867,-19.70899 -15.7374,8.16009 -31.3944,1.74297 -31.0899,-18.68359 -0.3708,-21.51402 -27.2624,-18.253694 -34.0175,-5.11329 -3.2716,7.40501 -12.0928,7.16395 -19.461,-5.05859 -3.7062,-3.262762 -17.5153,-10.382635 -21.6328,5.55469 -0.8294,8.50861 -7.2262,16.33166 -19.1035,13.07031 -12.9106,-4.81138 -3.219,-19.538925 -20.9199,-20.882812 -7.0953,-0.34389 -7.189,-7.500036 -13.3711,-7.087891 -6.1822,0.412146 -12.1834,-0.744176 -14.6563,21.099613 -2.4728,21.84379 -10.7162,12.36489 -16.8984,16.07422 0,5.14591 0.039,17.16072 -4.416,26.82226 -8.761,12.0727 -25.5316,7.07619 -29.9981,-5.39062 -5.4283,-15.15178 -5.1504,-23.90408 -5.1504,-26.37696 -8.8611,-0.61821 -18.1353,-3.50355 -21.6386,-18.13476 -3.5033,-14.631215 -14.4062,-24.725711 -23.6992,-15.250003 -6.3221,6.446249 -2.7032,12.093793 -9.9707,14.255863 -4.8696,1.44865 -8.7297,-2.95455 -12.6973,-5.599613 -7.4186,-4.945765 -10.9259,-6.367103 -25.2774,6.138673 -14.739,12.8435 -16.8263,-12.983567 -33.2265,-13.990235 -7,-2.351316 -15.4837,-13.428056 -19.2969,11.308595 -1.90953,12.38731 -14.2409,11.58135 -15.248,17.42187 -2.8445,16.49571 -3.1543,24.39374 -14.254,26.13087 -8.572,1.34152 -18.0003,-4.08505 -19.6171,-22.64649 0.3493,-18.5132 -8.6206,-31.993857 -17.1348,-24.132629 -1.5318,1.414265 -3.0488,3.519269 -4.4941,6.409969 -3.6061,6.62253 -12.1933,-2.05183 -19.6622,0.44141 -12.1776,4.06511 -1.5138,19.32172 -19.7988,21.47656 -12.1215,1.4285 -14.3337,-8.31723 -17.2187,-20.68164 -4.243,-8.587846 -4.8757,2.55677 -11.4082,-7.279296 -6.5453,-9.855196 -18.318,2.766836 -16.4512,12.878906 4.4463,24.08389 -30.7125,28.91103 -37.8496,5.47266 -3.8275,-10.48742 -11.8577,0.83582 -23.5606,-9.66016 -6.6334,-5.94931 -15.3079,-0.86057 -15.4531,6.11133 -0.4122,7.00649 -6.4139,17.25991 -16.9004,17.09766 -7.9979,-0.12376 1.1347,11.10965 -4.2148,20.73632 -6.1317,11.0342 -23.8317,10.31532 -29.5235,-1.81054 -4.8054,-18.64977 -13.8545,-1.66933 -18.8613,-24.40235 -5.7162,-25.954259 -15.4403,-25.746662 -17.9121,-16.20312 -2.1101,8.14695 -20.8221,8.96022 -23.0957,-6 -1.6645,-10.95277 -17.6723,-13.231573 -22.7793,-12.402347 -13.8743,2.252763 -15.159,-6.906559 -23.168,0.671875 -5.9272,5.608531 -14.1001,16.330172 -12.2656,33.443362 1.1575,10.79752 -2.3069,21.85742 -14.5918,21.85742 -18.0251,0 -22.954,-13.58918 -25.0996,-22.80469 -2.2185,-9.52877 -8.913,4.33611 -19.0566,-10.5332 -14.9506,-26.921419 -15.9367,-7.0354 -30.6758,-19.878908 -14.3514,-12.505767 -11.4215,1.76672 -20.1504,3.583985 -5.9122,1.230846 -4.4692,12.054683 -10.9297,12.054683 -15.7141,0 -4.5326,-17.799375 -19.6934,-19.472652 -13.192,-1.45599 -20.196,0.618795 -23.6992,15.250002 -3.5033,14.63122 -12.7775,17.5146 -21.6386,18.13281 0,2.47288 1.278,13.85018 -4.1504,29.00196 -4.4665,12.4668 -21.3766,17.56529 -29.9981,5.39257 -6.5963,-9.31338 -4.7203,-17.47788 -7.666,-21.69726 -4.1271,-5.91152 -14.1755,-0.48043 -15.6484,-13.57422 -2.4574,-21.845544 -9.8061,-13.03321 -16.002,-13.03321 -11.4322,0 -5.9129,-14.162031 -17.7851,-13.082027 -17.6788,1.60822 -3.8876,19.883837 -16.9883,24.150387 -11.7115,3.81411 -14.5798,-6.10722 -16.2754,-14.48632 -3.2648,-16.133606 -17.9266,-8.815506 -21.6328,-5.552739 -7.3682,12.222539 -16.1894,12.463599 -19.461,5.058599 -6.7552,-13.140412 -33.6466,-16.400742 -34.0175,5.11328 0.3046,20.42655 -19.8525,27.30101 -31.0899,13.68359 -11.7345,-14.88396 -26.2791,-10.7606 -26.8867,10.70899 -0.5205,18.39251 -14.1225,22.16733 -26.5566,20.63867 C 114.645,135.47687 115.6486,111.3349 104.748,120.78044 94.0566,124.90412 87.9795,120.27941 85.6895,114.26286 80.0636,99.48215 84.6085,101.00119 79.8066,91.23747 76.0396,83.577989 58.9408,87.09916 52.2676,90.29411 44.0555,94.22586 45.0355,103.00868 33.8359,102.77068 23.2978,102.54674 25.2441,93.07681 15.1211,88.07732 8.1037,84.6116 3.2875,86.08692 0,86.08122 L 0,0 C 685.2496,0.63918063 -454.706,-0.73426649 1984,0 Z M 623.4297,83.456222 c 0.7059,0.02054 1.437,0.149384 2.1933,0.402344 6.3102,2.110434 5.1135,7.904674 8.2149,10.355464 6.4755,6.77626 7.3188,18.82736 -4.7578,21.29297 -12.4072,2.53313 -19.1683,-12.95096 -15.5489,-23.32422 1.3206,-3.78454 4.9568,-8.870331 9.8985,-8.726558 z M 1283.625,91.2238 c 1.9236,0.0504 3.9077,0.85433 5.5391,2.60742 7.308,7.85368 -7.4823,16.06983 -11.1778,10.25586 -4.5154,-7.10393 0.038,-12.72985 5.2539,-12.86328 0.1276,-0.003 0.2566,-0.003 0.3848,0 z m -833.1562,1.49023 c 4.7388,0.81946 6.9168,5.74878 6.3027,10.1836 -0.5222,3.77087 -3.0627,7.18435 -7.7637,7.4082 -10.2297,0.48712 -9.2558,-17.5918 1.461,-17.5918 z m 655.1347,1.57227 c 10.7168,0 11.6906,18.07893 1.4609,17.5918 -10.2297,-0.48712 -10.2292,-16.07557 -1.4609,-17.5918 z m -590.9258,0.52539 c 24.7612,1.17915 14.38,37.18806 -4.5976,36.45508 -16.0638,-0.62043 -11.0655,-36.82014 4.5976,-36.45508 z m 1096.2207,2.93945 c 6.6582,0.0684 10.5704,6.18589 11.7422,13.09571 1.4198,8.37215 -1.1827,17.90899 -7.7988,19.25976 -4.7773,0.97536 -9.1328,-3.29882 -11.7383,-9.03515 -4.1612,-9.16156 -3.8567,-22.05334 6.3301,-23.24024 0.5029,-0.0586 0.9898,-0.085 1.4648,-0.0801 z m -1333.6582,4.40039 c 9.0931,0.9586 9.0934,16.47507 1.6817,18.91212 -23.3453,7.67623 -22.6281,-16.96361 -1.6817,-18.91212 z m 773.92,1.7129 c 15.6632,-0.36507 20.6614,35.83465 4.5976,36.45507 -18.9776,0.73298 -29.3587,-35.27594 -4.5976,-36.45507 z m 701.08,3.17382 c 2.0412,-0.0522 4.1838,0.73745 5.9239,2.60743 7.308,7.85367 -7.4842,16.06787 -11.1797,10.2539 -4.5154,-7.10393 0.04,-12.72791 5.2558,-12.86133 z m -967.9668,0.50586 c 8.2912,0.19778 6.1839,7.23745 7.9239,9.10743 7.3081,7.85367 -7.9823,12.81786 -11.6778,7.0039 -4.5154,-7.10393 -1.4618,-15.97791 3.7539,-16.11133 z m 1109.3633,2.13086 c 23.7112,1.64347 22.7123,41.60296 2.1836,40.92969 -28.0099,-0.91862 -26.5167,-38.00533 -7.2578,-40.72461 1.8019,-0.25442 3.4935,-0.31464 5.0742,-0.20508 z M 338.7402,110.3156 c 11.0661,1.90022 6.4099,21.65196 0.4473,21.79687 -11.2748,0.27398 -10.0602,-20.90265 -0.4473,-21.79687 z m 932.6231,0.9375 c 9.3233,0.5151 14.5474,30.69483 1.3261,26.33008 -9.208,-3.03988 -6.6072,-7.53667 -8.1132,-11.20508 -5.7959,-14.11794 4.2448,-15.26546 6.7871,-15.125 z m 372.5098,0.54101 c 20.9465,1.94852 23.5931,35.69273 -0.9747,35.09571 -12.9926,-0.31573 -21.6382,-35.20512 0.9747,-35.09571 z m 181.5,0.80664 c 9.5125,0.19145 14.7456,6.05894 16.2832,12.96875 1.8629,8.37215 -4.682,13.74702 -10.2344,11.73633 -8.8316,-3.19812 -17.9066,2.60602 -21.4024,-3.88672 -5.3725,-9.97853 4.0687,-21.04547 15.3536,-20.81836 z m -320.0059,1.39844 c 9.0903,1.44494 13.2678,10.13717 12.0898,17.95703 -1.0017,6.64915 -5.8749,12.66584 -14.8926,13.06055 -19.623,0.85893 -17.7546,-31.01758 2.8028,-31.01758 z m -826.2656,0.51563 c 0,0.72663 1.4945,-0.0206 2.3066,0.0371 13.2335,0.93971 18.6484,30.45832 6.2754,35.84375 -15.419,6.7112 -18.0965,-1.38011 -19.9082,-4.70899 -2.3702,-4.35492 1.5225,-8.74471 0.7617,-12.31445 -1.7284,-8.11073 -0.3241,-18.36729 10.5645,-18.85742 z m 1291.3496,0.43359 c 0.3029,0.009 0.6095,0.0573 0.9199,0.14649 11.2557,3.23507 5.4219,18.42826 -1.3516,17.17187 -10.0535,-1.86477 -5.7287,-17.50398 0.4317,-17.31836 z m -1508.4245,5.74548 c 8.0962,7.56641 14.1609,2.23234 17.654,10.83788 6.4666,15.93113 -16.2577,29.4461 -26.0311,16.90654 -17.9662,-23.05124 -0.8427,-36.36082 8.3771,-27.74442 z m 624.4557,2.56913 c 19.8997,-9.34727 27.5952,40.41407 -0.02,40.41407 -20.3275,-3.5487 -13.0681,-34.26653 0.02,-40.41407 z m -208.4512,-6.79103 c 11.7114,0 10.3024,16.21339 3.4454,16.87695 -10.678,1.03337 -10.3344,-16.87695 -3.4454,-16.87695 z m 344.3399,1.49414 c 11.7114,0 10.3023,16.21338 3.4453,16.87695 -10.678,1.03337 -10.3343,-16.87695 -3.4453,-16.87695 z m -218.3848,0.73828 c 0.303,0.009 0.6096,0.0573 0.92,0.14649 11.2556,3.23507 5.4219,18.43021 -1.3516,17.17382 -10.05355,-1.86477 -5.72874,-17.50593 0.4316,-17.32031 z m 305.293,0.74414 c 2.4471,-0.0526 5.0156,0.59639 7.6621,2.12891 18.205,10.54189 -6.2747,53.1984 -26.5879,39.36718 -9.3998,-6.40029 1.7961,-41.12757 18.9258,-41.49609 z m 460.2168,0.9375 c 11.7114,0 10.3023,16.21339 3.4453,16.87695 -10.678,1.03337 -10.3343,-16.87695 -3.4453,-16.87695 z m -1120.4004,1.10533 c 4.7389,0.81946 6.9168,5.74878 6.3027,10.18359 -0.5222,3.77088 -3.0626,7.18436 -7.7636,7.40821 -10.2297,0.48712 -9.2559,-17.5918 1.4609,-17.5918 z m 280.2598,32.87109 c -17.5703,-0.78017 -10.4912,-31.65276 1.5988,-31.48717 14.8974,0.20403 13.3638,32.15155 -1.5988,31.48717 z M 294.668,122.54411 c 4.4003,-0.0777 9.2402,1.92354 11.2656,3.23243 9.7433,6.29624 10.3709,21.16561 -4.6797,31.08203 -10.5073,6.92296 -23.5149,-1.18693 -23.6797,-8.25586 -0.2041,-8.75584 6.1334,-5.22716 8.7031,-19.0918 0.966,-5.21201 4.508,-6.89826 8.3907,-6.9668 z m -254.4492,0.51172 c 3.7182,-0.0318 6.8124,1.6445 7.5429,6.14453 1.2242,7.54154 -3.213,8.16995 -4.6601,10.86719 -3.6981,6.89276 -9.4246,12.31372 -18.8164,4.4375 -4.1746,-3.50088 -0.749,-11.22556 1.0605,-13.84375 2.6703,-3.86356 9.4387,-7.55897 14.8731,-7.60547 z m 165.5585,1.22852 c 1.5955,0.007 3.2623,0.32483 4.9805,1.00976 7.6138,4.82667 8.3866,15.91221 4.6817,24.13086 -3.1504,6.98818 -9.5374,11.90364 -17.711,9.13477 -16.1188,-5.4604 -7.3738,-34.34535 8.0488,-34.27539 z m 607.3399,2.49609 c 7.8159,1.26174 11.4094,8.85129 10.3965,15.67969 -0.8612,5.80612 -5.0534,11.06158 -12.8067,11.40625 -16.8718,0.75003 -15.2649,-27.08594 2.4102,-27.08594 z m -548.8457,5.33594 c 3.4975,0.0873 6.5512,3.76848 3.5234,8.41602 -0.711,1.09126 -2.0331,1.426 -3.4433,1.22851 -3.5048,-0.49085 -7.5472,-4.27556 -4.0528,-7.93945 1.1668,-1.22338 2.604,-1.73918 3.9727,-1.70508 z m 1589.2383,0.65039 c 11.7113,0 10.3003,16.21338 3.4433,16.87695 -10.678,1.03337 -10.3324,-16.87695 -3.4433,-16.87695 z M 51.1738,143.8449 c 2.8454,0.42373 4.1519,2.97243 3.7832,5.26562 -0.3135,1.94987 -1.8395,3.71433 -4.6621,3.83008 -6.1423,0.25188 -5.5559,-9.0957 0.8789,-9.0957 z m 36.4414,0.33398 c 7.9535,0.17379 12.6127,11.97756 8.4668,15.73828 -6.2722,5.68951 -13.609,1.07261 -15.6465,-4.97851 -1.0377,-3.0817 -0.7013,-6.53551 1.8497,-9.18946 1.8853,-1.14166 3.6794,-1.60631 5.33,-1.57031 z m 1380.4864,0.008 c 1.6506,-0.036 3.4448,0.42866 5.33,1.57031 7.5603,7.86515 -4.3303,22.75305 -13.7968,14.16602 -4.1459,-3.76072 0.5133,-15.56254 8.4668,-15.73633 z"
       sodipodi:nodetypes="ccssssssssssccsccsssssssssscccssccscccccccssccscssssscssscscsscsscscsscsssssssscssssscssssssssccccsccssssscccsscssscsscccssccsccscssssssscsccscssssccsccssccscsssscscssssscsscscsssssccscssssscsssssssscssssssssscsscsssssssssssssssscssscsscsssssssscsscssscsscss" />
  </g>
</svg>
