<?xml version="1.0" encoding="UTF-8" standalone="no"?>
<!-- Created with Inkscape (http://www.inkscape.org/) -->

<svg
   version="1.1"
   id="svg1"
   width="550.6452"
   height="435.52838"
   viewBox="0 0 550.6452 435.52836"
   sodipodi:docname="tinysluggreen.svg"
   inkscape:version="1.3 (0e150ed6c4, 2023-07-21)"
   xml:space="preserve"
   xmlns:inkscape="http://www.inkscape.org/namespaces/inkscape"
   xmlns:sodipodi="http://sodipodi.sourceforge.net/DTD/sodipodi-0.dtd"
   xmlns="http://www.w3.org/2000/svg"
   xmlns:svg="http://www.w3.org/2000/svg"><sodipodi:namedview
     id="namedview1"
     pagecolor="#ffffff"
     bordercolor="#000000"
     borderopacity="0.25"
     inkscape:showpageshadow="2"
     inkscape:pageopacity="0.0"
     inkscape:pagecheckerboard="0"
     inkscape:deskcolor="#d1d1d1"
     inkscape:zoom="0.23790322"
     inkscape:cx="79.864409"
     inkscape:cy="376.2034"
     inkscape:window-width="1366"
     inkscape:window-height="745"
     inkscape:window-x="-8"
     inkscape:window-y="-8"
     inkscape:window-maximized="1"
     inkscape:current-layer="svg1"
     inkscape:export-bgcolor="#ffffff00" /><defs
     id="defs1" /><path
     id="path69"
     style="display:inline;fill:#8fff00;stroke:#000100;stroke-width:0;stroke-opacity:0.870968;fill-opacity:1"
     d="m 446.91571,0.00382531 v 0 l -34.19336,0.7676 c 0,0 -0.57191,0.1577 -1.16601,0.48439999 -0.29706,0.1632 -0.59974,0.3689 -0.83985,0.6172 -0.2401,0.2483 -0.41672,0.5393 -0.46289,0.875 -0.1264,0.9184 -0.35619,1.8783 -0.6582,2.832 -0.30202,0.9538 -0.67775,1.9023 -1.09961,2.7969 -0.42187,0.8946 -0.88902,1.7350997 -1.375,2.4764997 -0.48597,0.7411 -0.99008,1.3834 -1.48437,1.877 -0.49431,0.4935 -0.9789,0.8406 -1.42579,0.9922 -0.4469,0.1518 -0.85549,0.1087 -1.19921,-0.1758 -0.34371,-0.2845 -0.62184,-0.8121 -0.80665,-1.627 -0.1848,-0.8149 -0.27597,-1.9177 -0.24609,-3.3573997 0.0578,-0.4348 -0.0687,-0.7593 -0.26367,-1.0156 -0.19497,-0.2563 -0.45921,-0.4454 -0.67774,-0.6055 -2.8428,-2.0821 -4.41749,-3.3699 -5.93945,-4.5254 -0.92181,-0.6998 -1.67853,-1.0513 -2.43945,-1.2363 -0.76093,-0.18479999 -1.52623,-0.20339999 -2.46875,-0.23829999 L 352.09149,3.2890253 c -0.32132,0.035 -0.6597,0.2205 -0.91992,0.5469 -0.26022,0.3264 -0.44192,0.7934 -0.45117,1.3906 -0.0161,1.0356 0.0366,2.4572 -0.12891,3.9941 -0.0829,0.7686 -0.22095,1.5656997 -0.44922,2.3573997 -0.2283,0.7918 -0.54628,1.5792 -0.99218,2.3262 -0.44588,0.747 -1.01834,1.4536 -1.75391,2.0879 -0.73558,0.6342 -1.63506,1.1949 -2.73242,1.6484 -1.09737,0.4535 -2.39456,0.7992 -3.92578,1.0039 -1.53123,0.2047 -3.29683,0.2685 -5.33399,0.1563 -0.33761,-0.018 -0.66279,0.014 -0.97851,0.1094 -0.31573,0.096 -0.6219,0.2571 -0.91602,0.498 -0.29414,0.2411 -0.57677,0.5623 -0.84961,0.9785 -0.2728,0.4163 -0.53526,0.9271 -0.78711,1.5489 -0.64983,1.6042 -1.24202,3.3133 -1.78125,5.0898 -0.53922,1.7766 -1.02559,3.621 -1.46484,5.4961 -0.8785,3.7498 -1.56707,7.623 -2.10938,11.3203 -0.0569,0.3881 -0.0752,0.6942 -0.1289,1.0781 0.0881,0.074 0.15394,0.078 0.24414,0.1582 0.74946,0.6705 1.57096,1.5797 2.46289,2.75 0.89193,1.1703 1.85411,2.6003 2.88672,4.3086 1.03261,1.7083 2.13514,3.6961 3.30664,5.9805 1.1715,2.2843 2.41211,4.8669 3.7207,7.7656 1.30859,2.8987 2.68502,6.113 4.12891,9.6641 0.70987,1.7459 1.51215,4.3858 2.31055,7.5527 0.7984,3.1668 1.59439,6.8607 2.29296,10.711 0.69858,3.8503 1.29859,7.858105 1.70899,11.654305 0.4104,3.7962 0.63059,7.3801 0.56445,10.3847 -0.0427,1.9399 -0.16824,3.3694 -0.22851,5.1895 0.0339,0 0.0558,-0.01 0.0898,-0.01 3.92368,-0.2065 7.87668,-0.3087 11.84961,-0.3047 3.97292,0 7.96484,0.1159 11.96289,0.3399 3.99805,0.2239 8.00292,0.5586 12.00195,1.0117 3.99905,0.4531 7.99286,1.0233 11.96875,1.7148 3.97591,0.6916 7.9327,1.5061 11.86133,2.4453 3.92863,0.9393 7.82832,2.0031 11.68555,3.1993 3.85722,1.1962 7.67386,2.5239 11.43554,3.9863 3.7617,1.4624 7.46931,3.0609 11.11133,4.7988 3.64203,1.7379 7.21856,3.616 10.7168,5.6387 3.49824,2.0227 6.91774,4.1892 10.24805,6.5058 3.3303,2.3166 6.57073,4.7824 9.70898,7.4024 3.13825,2.62 6.17365,5.3936 9.0957,8.3262 2.92207,2.9325 5.73038,6.0249 8.41211,9.2793 2.68175,3.2543 5.23701,6.6723 7.6543,10.2578 2.41729,3.5854 4.69746,7.3379 6.82617,11.2636 2.12871,3.9257 4.10588,8.0235 5.92188,12.2989 l 20.29687,0.9433 10.05274,-6.5097 c 0.6198,-0.5846 0.96758,-1.1559 1.16796,-1.7989 0.2005,-0.6431 0.25391,-1.3596 0.28321,-2.2382 0.058,-1.7218 0.18931,-2.9217 0.41211,-3.8008 0.2225,-0.8792 0.53543,-1.4372 0.95703,-1.8692 0.4216,-0.4321 0.95207,-0.7407 1.60547,-1.1211 0.6537,-0.3802 1.43206,-0.8324 2.35156,-1.5566 0.316,-0.2489 0.56305,-0.533 0.74805,-0.8535 0.185,-0.3203 0.30694,-0.678 0.37304,-1.0684 0.1324,-0.781 0.0394,-1.6993 -0.23047,-2.7519 -0.26988,-1.0528 -0.71621,-2.24 -1.29101,-3.5528 -0.5748,-1.3129 -1.27641,-2.7511 -2.05859,-4.3125 -1.5645,-3.1231 -3.44772,-6.7325 -5.25782,-10.7812 -0.905,-2.0243 -1.79103,-4.1581 -2.61132,-6.3965 -0.82029,-2.2384 -1.5747,-4.5823 -2.2129,-7.0234 -0.051,-0.3157 -0.22906,-0.569 -0.50586,-0.7813 -0.27688,-0.2124 -0.6534,-0.3825 -1.0957,-0.5332 -0.8848,-0.3012 -2.03986,-0.522 -3.22656,-0.8262 -1.1867,-0.3041 -2.40361,-0.6917 -3.41211,-1.332 -0.5041,-0.3201 -0.95657,-0.7034 -1.32617,-1.1699 -0.3697,-0.4666 -0.65713,-1.0172 -0.83203,-1.6719 -0.3554,-1.3289 -0.52734,-2.5106 -0.55664,-3.5703 -0.029,-1.0597 0.0827,-1.9981 0.29687,-2.8418 0.2134,-0.8437 0.52769,-1.5924 0.90039,-2.2734 0.3726,-0.6809 0.80347,-1.2938 1.25195,-1.8653 0.897,-1.143 1.86242,-2.1201 2.5625,-3.1445 0.3501,-0.5121 0.63475,-1.0354 0.81055,-1.5977 0.1758,-0.5625 0.24391,-1.1641 0.16211,-1.83 -1.0379,-4.941 -2.26976,-11.4957 -3.28906,-18.0703 -0.5096,-3.2876 -0.96526,-6.5808 -1.31836,-9.6797 -0.3531,-3.0987 -0.60402,-6.004005 -0.69922,-8.515705 0,-0.6634 -0.13511,-1.2211 -0.38281,-1.707 -0.2475,-0.486 -0.6039,-0.8987 -1.0293,-1.2754 -0.8507,-0.7535 -1.98333,-1.3576 -3.10351,-2.084 -0.56,-0.3633 -1.11572,-0.7577 -1.63282,-1.2168 -0.517,-0.459 -0.99423,-0.9823 -1.39453,-1.6054 -0.4003,-0.6229 -0.72349,-1.3457 -0.93359,-2.2012 -0.2099,-0.8555 -0.30604,-1.8438 -0.25196,-3 0.053,-1.1291 0.21575,-2.106 0.46485,-2.9648 0.249,-0.8587 0.58267,-1.5988 0.97265,-2.254 0.39,-0.6549 0.83702,-1.2259 1.3125,-1.7441 0.47556,-0.5181 0.98073,-0.9837 1.48633,-1.4316 1.0111,-0.8958 2.02709,-1.7193 2.82617,-2.7344 0.3996,-0.5076 0.74472,-1.0617 1.00782,-1.6992 0.2634,-0.6375 0.44578,-1.3573 0.51758,-2.1914 l 1.51757,-17.3965 c 0,0 1.72897,-11.6858 2.97657,-17.9238 0.182,-0.9144 0.26103,-1.6616 0.24023,-2.2872 -0.021,-0.6255 -0.14233,-1.1302 -0.36523,-1.5605 -0.2228,-0.4302 -0.54631,-0.7848 -0.97071,-1.1133 -0.4244,-0.3285 -0.94872,-0.631 -1.57422,-0.9512 -1.64568,-0.8425 -3.33573,-1.6294 -4.86523,-2.4824 -0.7647,-0.4266 -1.48874,-0.8691 -2.14844,-1.3437 -0.65989,-0.4745 -1.25566,-0.9804 -1.75976,-1.5332 -0.5042,-0.5529 -0.91695,-1.1531 -1.21485,-1.8145 -0.2979,-0.6614 -0.48058,-1.3852 -0.52148,-2.1855 -0.041,-0.8002 0.06,-1.6773 0.32617,-2.6465 0.2666,-0.9693 0.69962,-2.0307 1.32422,-3.1992 0.3075,-0.5751997 0.54773,-1.3889997 0.49023,-2.1816997 -0.028,-0.3964 -0.13294,-0.7882 -0.33984,-1.1406 -0.2069,-0.3526 -0.51588,-0.6668 -0.95898,-0.9102 -2.1834,-1.6219 -3.86772,-2.775 -5.16602,-3.5937 -1.2984,-0.8189 -2.21216,-1.3033 -2.85156,-1.58399999 -0.6395,-0.2807 -1.00619,-0.3573 -1.21289,-0.3652 -0.2066,-0.01 -0.25196,0.053 -0.25196,0.053 l -35.77929,0.2402 c -0.73106,0.109 -1.41052,0.45689999 -1.98243,0.95899999 -0.57189,0.5021 -1.03646,1.1581 -1.33789,1.8809 -0.38745,1.9205 -0.89195,3.5426 -1.47656,4.8965 -0.58461,1.3538 -1.24913,2.4382997 -1.95898,3.2850997 -0.70985,0.8469 -1.46533,1.4559 -2.22852,1.8555 -0.76315,0.3995 -1.53472,0.5895 -2.27929,0.6016 -0.74458,0.012 -1.46118,-0.155 -2.11524,-0.4707 -0.65408,-0.3156 -1.24468,-0.7796 -1.73633,-1.3633 -0.49161,-0.5837 -0.88528,-1.2864 -1.14258,-2.0781 -0.2573,-0.7919997 -0.37904,-1.6725997 -0.33007,-2.6132997 -0.0134,-0.1993 -0.0502,-0.5849 -0.16993,-1.0078 -0.11965,-0.4229 -0.32169,-0.8836 -0.66601,-1.2403 -0.74779,-0.7747 -1.7996,-1.469 -2.91797,-2.1718 -1.11835,-0.7028 -2.30274,-1.4142 -3.31836,-2.2247 -0.46465,-0.37069999 -0.8824,-0.64289999 -1.32812,-0.82029999 -0.44574,-0.1774 -0.92007,-0.2613 -1.4961,-0.257800001126 z M 255.27704,10.150325 c -3.90454,-0.013 -7.69029,0.043 -11.50195,0.3164 -1.90584,0.137 -3.8172,0.3289 -5.75391,0.5938 -1.9367,0.2649 -3.89869,0.6048 -5.90234,1.0351 -2.00367,0.4304 -4.04958,0.9531 -6.15625,1.586 -2.10669,0.6331 -4.27377,1.3767 -6.51953,2.25 0,0 -1.43092,0.9081 -3.63282,2.5957 -1.10098,0.8437 -2.39406,1.8818 -3.79882,3.0996 -1.40477,1.2177 -2.92074,2.614 -4.46485,4.1738 -1.54409,1.5598 -3.1158,3.2825 -4.63476,5.1523 -1.519,1.8699 -2.98504,3.8872 -4.31446,6.0352 -1.32939,2.148 -2.52268,4.4282 -3.49804,6.8223 -0.48771,1.1971 -0.92072,2.423 -1.28907,3.6757 -0.36834,1.2526 -0.67194,2.5317 -0.90039,3.836 -0.73145,4.1762 -1.30707,8.2348 -1.74023,12.1738 -0.43315,3.939 -0.72407,7.7583 -0.89258,11.457 -0.16849,3.6987 -0.21286,7.2754 -0.15039,10.7305 0.0625,3.4552 0.23045,6.7877 0.49023,9.9961 0.25975,3.2084 0.60984,6.293505 1.03321,9.252005 0.42337,2.9584 0.92132,5.7905 1.47461,8.496 0.5533,2.7055 1.16297,5.2852 1.8125,7.7344 0.64954,2.4492 1.33867,4.769 2.05078,6.959 1.42418,4.3795 2.93978,8.2378 4.41211,11.5606 1.47233,3.3229 2.90133,6.1107 4.15234,8.3515 1.25102,2.2406 2.32377,3.9333 3.08399,5.0664 0.69147,1.0307 1.02512,1.4584 1.09765,1.5528 0.007,0.01 0.10938,0.1543 0.10938,0.1543 l 0.0918,0.057 c 1.9469,2.3117 3.90735,4.4777 5.87891,6.5039 1.97155,2.0262 3.9534,3.9135 5.94141,5.668 1.988,1.7544 3.98225,3.3767 5.97851,4.873 1.99626,1.4963 3.99588,2.8673 5.99219,4.1192 1.9963,1.2518 3.99038,2.3834 5.97851,3.4043 1.98815,1.0209 3.96963,1.9305 5.94141,2.7343 1.97178,0.8039 3.93364,1.5032 5.88086,2.1035 1.94722,0.6004 3.88048,1.1013 5.79492,1.5118 1.91445,0.4104 3.81013,0.7305 5.6836,0.9648 1.87345,0.2343 3.72455,0.3833 5.54882,0.4551 1.82429,0.072 3.62177,0.065 5.38868,-0.012 1.76689,-0.077 3.50181,-0.2253 5.20312,-0.4375 1.70132,-0.2123 3.36858,-0.4885 4.99609,-0.8223 1.62753,-0.3338 3.2162,-0.7243 4.76172,-1.166 1.54553,-0.4417 3.04859,-0.9348 4.50391,-1.4707 1.45532,-0.536 2.86379,-1.1159 4.2207,-1.7324 2.48148,-1.1275 4.81251,-2.3043 7.10547,-3.6211 2.29296,-1.3169 4.54788,-2.7723 6.87109,-4.4571 2.32323,-1.6847 4.71483,-3.5988 7.28711,-5.83 2.5723,-2.2313 5.32508,-4.7802 8.36524,-7.7364 0.54031,-1.032 1.04377,-2.1695 1.51172,-3.4004 0.46795,-1.2308 0.89929,-2.5547 1.29687,-3.957 0.79518,-2.8046 1.4528,-5.9256 1.97852,-9.2519 0.52572,-3.3263 0.91913,-6.8591 1.1914,-10.4883 0.27227,-3.6293 0.42222,-7.3551 0.45704,-11.0684 0.0348,-3.7133 -0.0438,-7.4136 -0.23047,-10.9922 -0.18663,-3.5785 -0.48097,-7.0348 -0.87305,-10.2597 -0.39208,-3.225005 -0.88331,-6.218605 -1.46484,-8.871105 -0.58153,-2.6526 -1.25284,-4.9649 -2.00782,-6.8262 -0.96886,-2.9609 -2.0175,-5.8431 -3.13672,-8.6445 -0.0153,-0.038 -0.0335,-0.073 -0.0488,-0.1114 -1.10579,-2.7608 -2.2763,-5.4482 -3.50586,-8.0508 -1.2466,-2.6383 -2.55135,-5.1938 -3.90235,-7.666 -1.351,-2.4723 -2.74917,-4.8595 -4.18164,-7.1621 -1.43249,-2.3025 -2.89961,-4.5209 -4.39062,-6.6504 -1.49101,-2.1295 -3.0047,-4.1701 -4.53125,-6.123 -1.52656,-1.9529 -3.06633,-3.8169 -4.60547,-5.5899 -1.53915,-1.7729 -3.07865,-3.4553 -4.60742,-5.0449 -3.05756,-3.1794 -6.07088,-5.9889 -8.94922,-8.414 -2.87832,-2.4253 -5.6213,-4.4672 -8.13672,-6.1114 -2.51539,-1.6442 -4.8046,-2.8907 -6.77344,-3.7265 -0.98439,-0.4179 -1.88784,-0.7327 -2.70117,-0.9434 -0.81334,-0.2107 -1.53501,-0.3184 -2.1543,-0.3184 -4.286,0 -8.31027,-0.081 -12.21484,-0.094 z m -169.830081,24.6582 c -0.92753,0 -1.94747,8e-4 -5.24023,0.4414 -3.29278,0.4405 -8.85926,1.3216 -18.87696,3.084 -4.40593,1.5536 -8.3257,3.0784 -11.8164,4.5644 -3.49072,1.4859 -6.55326,2.9315 -9.2461,4.3243 -2.69286,1.3928 -5.01492,2.7334 -7.02734,4.0078 -2.01241,1.2743 -3.71469,2.4829 -5.16406,3.6133 -1.44936,1.1302 -2.64671,2.1832 -3.65039,3.1445 -1.0037,0.9613 -1.81286,1.8308 -2.48828,2.5976 -1.35082,1.5334 -2.16225,2.653 -2.9043,3.2559 -0.37102,0.3016 -0.66704,0.62 -0.90039,0.9473 -0.23334,0.3271 -0.40365,0.6632 -0.52539,0.998 -0.24349,0.6696 -0.29052,1.3364 -0.24414,1.9278 0.0928,1.1826 0.55664,2.0625 0.55664,2.0625 l 3.24609,7.6074 c 0,0 -6.30736,0.8341 -10.38867,1.3906 -1.0203204,0.1391 -1.8382404,0.3196 -2.5078104,0.5645 -0.66956,0.245 -1.19017,0.5549 -1.61914,0.955 -0.42897,0.3999 -0.76592,0.8898 -1.06446,1.4942 -0.29854,0.6045 -0.55961,1.3236 -0.83789,2.1816 -0.88119,3.2928 -1.62685,6.4819 -2.24804,9.5723 -0.62119,3.0905 -1.11672,6.0809 -1.49805,8.980405 -0.38131003,2.8994 -0.64899003,5.7079 -0.81055003,8.4278 -0.1616,2.7199 -0.21768,5.3525 -0.17968,7.9043 0.0379,2.5516 0.17122,5.023 0.38867,7.4179 0.21747,2.395 0.51969,4.7132 0.89648003,6.9629 0.3768,2.2496 0.82777,4.4296 1.34375,6.545 0.51599,2.1158 1.09738,4.1669 1.73242,6.1601 0.63503,1.9932 1.32463,3.9285 2.0586,5.8106 0.73397,1.8822 1.51147,3.7117 2.32422,5.4941 1.6255004,3.565 3.3891304,6.941 5.2089804,10.1758 1.81987,3.2347 3.69571,6.3284 5.54883,9.3242 1.85313,2.9959 3.6829,5.8939 5.4082,8.7422 0.83894,1.3849 1.73357,2.7262 2.67774,4.0234 0.94415,1.2971 1.93686,2.5508 2.97656,3.7617 1.0397,1.2108 2.12642,2.3797 3.25195,3.5059 1.12551,1.126 2.29055,2.2092 3.49219,3.252 2.40326,2.086 4.95013,4.0081 7.59961,5.7714 2.64947,1.7634 5.40273,3.3687 8.2207,4.8223 2.81803,1.4534 5.70051,2.7557 8.60938,3.9121 2.90888,1.1565 4.08573,1.7763 7.00781,2.6485 2.59955,-5.3629 3.7279,-7.8146 7.13476,-12.5997 1.05786,-1.4858 3.55214,-4.9828 4.7461,-6.6992 1.19395,-1.7164 2.81249,-3.3984 4.25976,-5.2226 1.44728,-1.8243 3.01716,-3.693 4.70313,-5.5879 1.68596,-1.8949 3.48842,-3.8159 5.39844,-5.7442 1.91,-1.9282 3.92744,-3.8627 6.046871,-5.7871 2.11943,-1.9243 4.34009,-3.8374 6.6543,-5.7207 2.31421,-1.8832 4.72246,-3.736 7.21679,-5.541 2.49435,-1.8049 5.07453,-3.5626 7.73438,-5.2519 2.65985,-1.6894 5.39827,-3.3111 8.20898,-4.8477 2.81073,-1.5366 5.69367,-2.9875 8.64063,-4.334 2.94696,-1.3465 5.9588,-2.5897 9.02734,-3.709 3.06856,-1.1192 6.19364,-2.114 9.36914,-2.9687 3.17552,-0.8548 6.40209,-1.5681 9.66993,-2.1211 3.26783,-0.553 6.5783,-0.9462 9.92382,-1.1602 0.12435,-0.01 0.21297,3e-4 0.33594,-0.012 -0.0244,-2.6947 -0.0739,-5.3619 -0.2168,-7.9199 -0.17141,-3.0682 -0.42591,-6.0384 -0.75781,-8.916 -0.33191,-2.8777 -0.74123,-5.6625 -1.22265,-8.3555 -0.48145,-2.6931 -1.03429,-5.2958 -1.6543,-7.8105 -0.62005,-2.5146 -1.30702,-4.9411 -2.05469,-7.283205 -0.74768,-2.3422 -1.55748,-4.5993 -2.42187,-6.7754 -0.86439,-2.1762 -1.78375,-4.271 -2.75391,-6.2871 -0.97016,-2.0157 -1.98974,-3.9544 -3.05469,-5.8164 -1.06497,-1.8621 -2.17536,-3.6472 -3.32422,-5.3614 -1.14886,-1.7141 -2.3368,-3.3574 -3.55859,-4.9297 -1.22181,-1.5724 -2.47792,-3.075 -3.76172,-4.5117 -1.28376,-1.4368 -2.59488,-2.8062 -3.92969,-4.1133 -1.33483,-1.3072 -2.6934,-2.5506 -4.06836,-3.7343 -1.37493,-1.1836 -2.76775,-2.3086 -4.17187,-3.375 -2.80825,-2.1329 -5.66224,-4.0361 -8.52149,-5.7364 -2.85924,-1.7002 -5.72219,-3.197 -8.54492,-4.5136 -2.82271,-1.3166 -5.60601,-2.4539 -8.30468,-3.4356 -2.69868,-0.9819 -5.31374,-1.8081 -7.80079,-2.5039 -2.48706,-0.6961 -4.84721,-1.2617 -7.03515,-1.7207 -4.375821,-0.9179 -8.064711,-1.4105 -10.718751,-1.6738 -2.65405,-0.2634 -4.27202,-0.2969 -4.50391,-0.2969 z M 369.11688,138.09173 c -3.17315,0.014 -6.35262,0.1267 -9.53515,0.3359 -3.18254,0.2093 -6.36777,0.5146 -9.55469,0.9102 0,0 -0.96548,-0.6153 -1.26367,-0.7891 -0.35795,3.9393 -0.71244,7.8676 -1.24219,11.1719 -0.3542,2.2094 -0.7488,4.2922 -1.1875,6.2656 -0.4387,1.9735 -0.92181,3.8393 -1.45117,5.6153 -0.52937,1.776 -1.10623,3.4611 -1.73242,5.0781 -0.6262,1.617 -1.30207,3.1657 -2.03125,4.6621 -1.24189,1.2522 -2.65295,2.5174 -4.18946,3.7852 -1.5365,1.2677 -3.19824,2.537 -4.9414,3.7929 -3.48633,2.5118 -7.29693,4.9717 -11.08203,7.2715 -3.78512,2.2998 -7.54373,4.44 -10.92383,6.3086 -3.38011,1.8686 -6.38297,3.4674 -8.6543,4.6856 -1.83941,0.9865 -3.73686,1.8566 -5.68359,2.6152 -1.94673,0.7586 -3.94243,1.4048 -5.98047,1.9433 -2.03804,0.5387 -4.11713,0.9702 -6.23047,1.2969 -2.11334,0.3268 -4.26097,0.5491 -6.43359,0.6719 -2.17264,0.1228 -4.37002,0.1457 -6.58594,0.072 -2.21593,-0.073 -4.45016,-0.2409 -6.69336,-0.502 -2.2432,-0.2611 -4.49552,-0.6156 -6.75,-1.0566 -2.25448,-0.441 -4.51198,-0.9691 -6.76172,-1.5821 -2.24974,-0.6129 -4.4917,-1.3109 -6.7207,-2.0878 -2.229,-0.7769 -4.44447,-1.6336 -6.63672,-2.5665 -2.19225,-0.9328 -4.36247,-1.9406 -6.50195,-3.0214 -2.1395,-1.0809 -4.24765,-2.2343 -6.31836,-3.4551 -2.07073,-1.2208 -4.10389,-2.5105 -6.08985,-3.8633 -1.98595,-1.3528 -3.92538,-2.7693 -5.81054,-4.2461 -1.88518,-1.4768 -3.71599,-3.0127 -5.48438,-4.6055 -1.76839,-1.5927 -3.47379,-3.2426 -5.10937,-4.9433 -1.49023,-1.7424 -2.80768,-3.3851 -3.96289,-4.9336 -1.15521,-1.5485 -2.1477,-3.0025 -2.99415,-4.3613 -0.84643,-1.3589 -1.54545,-2.6235 -2.10937,-3.7969 -0.41913,-0.8722 -0.6911,-1.6424 -0.9668,-2.4141 -2.93044,0.3715 -5.80643,0.8013 -8.62304,1.2871 -2.83581,0.489 -5.61325,1.0337 -8.33008,1.6289 -2.81617,0.8254 -5.71106,1.6581 -8.69141,2.5762 -2.98035,0.9181 -6.04707,1.9232 -9.20898,3.0938 -3.16193,1.1705 -6.41841,2.5071 -9.7793,4.0898 -3.36089,1.5827 -6.82511,3.41 -10.40234,5.5645 -1.78862,1.0772 -3.60521,2.2361 -5.45118,3.4863 -1.84595,1.2501 -3.72146,2.5921 -5.62695,4.0351 -1.90549,1.443 -3.84141,2.9868 -5.80859,4.6426 -1.96719,1.6558 -3.96699,3.4239 -5.99805,5.3125 -2.03106,1.8886 -4.09431,3.8978 -6.19141,6.0391 -2.09709,2.1413 -4.22727,4.4141 -6.39257,6.8281 -2.165321,2.414 -4.500061,4.8636 -6.601571,7.6758 -4.69095,6.2773 -8.088,10.9896 -10.63671,17.5527 -1.17707,3.0633 -2.25609,6.1966 -3.23633,9.3906 -0.98026,3.1939 -1.85963,6.4485 -2.63867,9.752 -0.77905,3.3035 -1.45777,6.6566 -2.03126,10.0488 -0.57348,3.392 -1.04269,6.8234 -1.40624,10.2832 -0.36354,3.4597 -0.62029,6.9468 -0.76954,10.4532 -0.14925,3.5061 -0.19052,7.0324 -0.12109,10.5644 0.0694,3.532 0.24855,7.0708 0.54102,10.6074 0.29248,3.5368 0.69689,7.0697 1.21679,10.5899 0.51986,3.5204 1.1546,7.0287 1.90625,10.5117 0.75169,3.4831 1.62154,6.9423 2.60938,10.3672 0.98783,3.4248 2.09389,6.8146 3.32226,10.1601 1.22833,3.3456 2.57752,6.6456 4.05078,9.8907 1.47327,3.2453 3.07044,6.4364 4.79297,9.5605 1.72253,3.1241 3.57266,6.1822 5.54883,9.1641 1.97618,2.982 4.080261,5.8883 6.314451,8.707 -1.20355,0.9765 -2.31902,2.0062 -3.3457,3.082 -1.026691,1.0759 -1.964881,2.197 -2.814451,3.3535 -0.84958,1.1566 -1.61097,2.3499 -2.28321,3.5684 -0.67222,1.2186 -1.25532,2.4626 -1.75,3.7246 -0.49467,1.2619 -0.90185,2.5398 -1.21874,3.8262 -0.31686,1.28659 -0.54474,2.58249 -0.6836,3.87499 -0.13886,1.2927 -0.18784,2.58328 -0.14844,3.86328 0.0394,1.2799 0.16883,2.55013 0.38672,3.79883 0.21786,1.2487 0.52329,2.47513 0.91992,3.67382 0.39662,1.19876 0.88342,2.36785 1.45899,3.49805 0.57558,1.1302 1.24134,2.22283 1.99609,3.26563 0.75474,1.0429 1.59903,2.03761 2.53321,2.97461 0.93415,0.937 1.958431,1.81465 3.072261,2.62695 1.11382,0.8124 2.31568,1.55736 3.60938,2.22656 1.29369,0.6691 2.67851,1.26233 4.15234,1.76953 1.47382,0.5071 3.03723,0.92926 4.69141,1.25586 3.28651,0.6491 6.46597,1.1325 9.53515,1.4668 3.06923,0.3341 6.02898,0.51887 8.87305,0.57227 2.84406,0.053 5.57451,-0.0254 8.18555,-0.21876 2.61101,-0.19329 5.10251,-0.50046 7.47265,-0.90624 2.37011,-0.406 4.61691,-0.90975 6.73828,-1.49415 2.12136,-0.58417 4.11765,-1.24981 5.98243,-1.97851 1.86477,-0.7287 3.59891,-1.52038 5.19921,-2.35938 1.60031,-0.83907 3.06657,-1.72532 4.39454,-2.64062 3.56768,0.9203 7.24281,1.72204 11.02539,2.39844 3.78253,0.6765 7.67378,1.22698 11.67382,1.64648 4.00001,0.4196 8.10802,0.70772 12.32813,0.85742 4.22013,0.1495 8.55133,0.16055 12.99414,0.0274 4.44283,-0.1334 8.99788,-0.41035 13.66602,-0.83985 4.6681,-0.4294 9.44965,-1.0115 14.3457,-1.75 4.89606,-0.7384 9.90663,-1.63286 15.0332,-2.69336 5.12662,-1.0605 10.36876,-2.28604 15.72852,-3.68164 1.1279,1.398 2.45999,2.71251 3.96484,3.94141 1.50488,1.2289 3.18377,2.37183 5.00781,3.42773 1.82403,1.0558 3.79347,2.0255 5.87891,2.9043 2.08544,0.8789 4.2872,1.66748 6.57617,2.36523 2.28901,0.6978 4.66486,1.30361 7.09961,1.81641 2.43477,0.513 4.92845,0.93186 7.45117,1.25586 2.52271,0.3241 5.07406,0.55239 7.62696,0.68359 2.55288,0.1311 5.10755,0.16533 7.63281,0.0996 2.52526,-0.065 5.02112,-0.22959 7.46094,-0.49609 2.43978,-0.2665 4.82257,-0.63417 7.11914,-1.10547 2.29654,-0.4712 4.50804,-1.04666 6.60351,-1.72656 2.0955,-0.68 4.07549,-1.46462 5.91211,-2.35742 1.83666,-0.8926 3.52885,-1.89266 5.04883,-3.00196 1.51998,-1.1092 2.86819,-2.3283 4.01367,-3.6582 0.57276,-0.6649 1.09419,-1.35918 1.5625,-2.08008 0.4683,-0.7209 0.8836,-1.46879 1.24024,-2.24609 0.35661,-0.7772 0.65485,-1.58377 0.89257,-2.41797 0.23773,-0.834 0.41382,-1.69629 0.52539,-2.58789 2.80866,0.443 5.87522,0.81438 9.10157,1.08398 3.22633,0.2695 6.61327,0.43746 10.06445,0.47266 3.4512,0.035 6.96598,-0.0623 10.44922,-0.32227 3.48326,-0.2602 6.93533,-0.68408 10.25781,-1.30078 1.66127,-0.3082 3.29009,-0.66542 4.875,-1.07422 1.58494,-0.4088 3.12487,-0.86963 4.60938,-1.38672 1.4845,-0.51699 2.91347,-1.08975 4.27343,-1.72265 1.35996,-0.6327 2.65195,-1.32388 3.86329,-2.08008 1.21132,-0.7562 2.34225,-1.57754 3.38085,-2.46484 1.0386,-0.8873 1.9844,-1.84139 2.82618,-2.86719 0.84178,-1.026 1.57836,-2.12282 2.19922,-3.29492 0.62085,-1.17228 1.12612,-2.42018 1.50195,-3.74618 0.95264,0.4753 2.09322,0.9148 3.39258,1.3125 1.29935,0.3976 2.75754,0.7549 4.34375,1.0606 1.58619,0.3055 3.3001,0.5604 5.11328,0.7598 1.81319,0.1994 3.72673,0.343 5.70703,0.4218 1.9803,0.079 4.02769,0.0933 6.11523,0.037 2.08753,-0.056 4.21467,-0.1835 6.34961,-0.3886 2.1349,-0.2051 4.27794,-0.487 6.40039,-0.8555 2.12245,-0.3685 4.22529,-0.8233 6.27539,-1.3691 2.0501,-0.5462 4.04889,-1.1856 5.9668,-1.9239 1.91791,-0.738 3.75461,-1.5752 5.48047,-2.5195 1.72584,-0.9443 3.34052,-1.9955 4.81445,-3.1602 1.47388,-1.1648 2.80665,-2.444 3.96875,-3.8437 1.16207,-1.3994 2.15296,-2.9199 2.94336,-4.5684 0.39527,-0.8243 0.74018,-1.6811 1.03125,-2.5703 0.2911,-0.8892 0.52949,-1.8097 0.70899,-2.7656 0.1795,-0.9559 0.30094,-1.9463 0.36132,-2.9707 0.06,-1.0244 0.0573,-2.0833 -0.0117,-3.1777 -0.066,-1.0947 -0.19619,-2.2259 -0.39649,-3.3926 -0.2002,-1.1669 -0.4706,-2.3687 -0.8125,-3.6094 2.4287,-0.034 4.73248,-0.2739 6.90625,-0.6914 2.1738,-0.4176 4.21827,-1.0132 6.12695,-1.7637 1.9087,-0.7505 3.68301,-1.6548 5.31641,-2.6875 1.6335,-1.0326 3.12661,-2.1949 4.47461,-3.459 1.348,-1.2641 2.55112,-2.6313 3.60352,-4.0761 1.0524,-1.4448 1.95457,-2.9663 2.70117,-4.541 0.7466,-1.5748 1.33698,-3.2016 1.76758,-4.8555 0.4305,-1.654 0.70018,-3.3352 0.80468,-5.0176 0.1043,-1.6822 0.0426,-3.3655 -0.18945,-5.0254 -0.232,-1.6601 -0.63419,-3.2977 -1.21289,-4.8847 -0.5786,-1.587 -1.33393,-3.1246 -2.26953,-4.5879 -0.9355,-1.463 -2.05102,-2.8521 -3.35352,-4.1407 -1.3025,-1.2884 -2.7911,-2.4758 -4.4707,-3.539 -1.6797,-1.0632 -3.55009,-2.002 -5.61719,-2.7891 -2.06697,-0.7872 -4.33022,-1.4225 -6.79492,-1.8828 -2.46457,-0.4603 -5.13154,-0.7454 -8.00391,-0.8281 0.1874,-3.1735 0.33955,-6.5469 0.43555,-10.0899 0.096,-3.5431 0.13662,-7.2559 0.10352,-11.1054 -0.033,-3.8498 -0.13965,-7.8382 -0.33985,-11.9317 -0.2001,-4.0936 -0.49363,-8.2919 -0.89843,-12.5664 -0.4048,-4.2746 -0.92106,-8.625 -1.56836,-13.0176 -0.6472,-4.3926 -1.42602,-8.8276 -2.35352,-13.2754 -0.92742,-4.4476 -2.02557,-8.9015 -3.25,-13.3476 -1.87028,-6.7911 -2.80255,-8.9444 -4.74805,-12.4492 -2.14933,-3.8721 -4.97772,-9.0791 -7.57422,-12.4042 -6.25723,-8.8297 -10.98718,-14.041 -18.86913,-21.506 -5.68155,-5.1195 -15.22365,-12.4148 -21.67188,-16.3574 -2.91825,-1.8643 -6.44841,-3.2022 -9.41602,-4.8008 -2.9676,-1.5986 -5.95873,-3.0665 -8.9707,-4.4082 -3.01197,-1.3417 -6.04438,-2.5567 -9.0957,-3.6504 -3.05133,-1.0937 -6.12135,-2.0654 -9.20703,-2.9199 -3.0857,-0.8545 -6.18768,-1.5927 -9.30274,-2.2168 -3.11506,-0.6241 -6.24339,-1.1346 -9.38281,-1.5371 -3.13943,-0.4025 -6.28847,-0.697 -9.44727,-0.8867 -3.15878,-0.1898 -6.32683,-0.274 -9.5,-0.2598 z m -159.3457,16.6016 c 0.008,0.01 0.017,0.017 0.0254,0.025 -0.008,-0.01 -0.017,-0.017 -0.0254,-0.025 z m -83.90625,69.9687 c 0.66648,-0.012 1.33357,0.015 1.99805,0.078 1.32895,0.1254 2.64849,0.393 3.93945,0.7754 1.29097,0.3821 2.5517,0.8795 3.76367,1.4629 1.21197,0.5838 2.35117,1.2771 3.41992,2.0762 1.06877,0.7992 2.06781,1.7027 2.99805,2.709 0.93024,1.0061 1.7934,2.1136 2.58985,3.3183 0.79642,1.2049 1.52406,2.5057 2.1914,3.9004 0.66737,1.3949 1.27168,2.8828 1.81445,4.459 0.54278,1.5762 1.02401,3.2409 1.44727,4.9903 0.42325,1.7494 0.78714,3.5837 1.0957,5.498 0.30856,1.9143 0.56179,3.9086 0.75977,5.9785 0.17544,1.8348 -0.0448,3.4014 -0.0508,4.7578 -0.0186,3.934 0.16417,7.9312 0.29297,11.8848 0.12879,3.9535 0.20366,7.8635 -0.0293,11.6289 -0.38067,6.1529 -0.93181,10.874 -1.70313,17.6894 -0.35277,3.1173 -0.67012,7.062 -1.07421,10.1329 -0.20204,1.5352 -0.62864,3.0513 -1.0625,4.5351 -0.43387,1.4839 -0.875,2.9355 -1.10743,4.3418 -0.22444,1.3578 -0.50358,2.7115 -0.84765,4.041 -0.34408,1.3296 -0.75309,2.635 -1.23633,3.9024 -0.48326,1.2673 -1.03902,2.4966 -1.68164,3.6679 -0.64265,1.1711 -1.37135,2.2835 -2.19336,3.3243 -0.82202,1.041 -1.73839,2.0083 -2.75977,2.8847 -1.02138,0.8766 -2.14793,1.6634 -3.38867,2.3418 -1.2407,0.6782 -2.59806,1.2476 -4.07812,1.6934 -1.48008,0.4459 -3.08481,0.7678 -4.82422,0.9473 -0.85887,0.089 -1.69401,0.092 -2.50586,0.019 -0.81186,-0.073 -1.60044,-0.2249 -2.36524,-0.4473 -0.76478,-0.223 -1.50688,-0.5172 -2.22461,-0.8769 -0.71771,-0.3598 -1.4111,-0.7849 -2.08203,-1.2676 -1.34186,-0.9656 -2.58762,-2.1634 -3.74218,-3.5449 -1.15458,-1.3817 -2.21591,-2.9448 -3.1836,-4.6387 -0.96768,-1.6939 -1.84181,-3.519 -2.62304,-5.4219 -0.78126,-1.9026 -1.4712,-3.8847 -2.06641,-5.8926 -0.59522,-2.0081 -1.09798,-4.0424 -1.50781,-6.0527 -0.40983,-2.0103 -0.72673,-3.9965 -0.95117,-5.9043 -0.4152,-3.7592 -0.74262,-7.3407 -0.98633,-10.7715 -0.24371,-3.4308 -0.40372,-6.7111 -0.48633,-9.8672 -0.0826,-3.1561 -0.0874,-6.1861 -0.0176,-9.1191 0.0698,-2.933 0.21437,-5.7689 0.42774,-8.5313 0.21341,-2.7623 0.49629,-5.4513 0.84374,-8.0957 0.34747,-2.6443 0.75955,-5.244 1.23243,-7.8222 0.94574,-5.1562 2.13581,-10.2305 3.52734,-15.4375 0.69576,-2.6034 1.50243,-4.8984 2.40625,-6.9063 0.9038,-2.008 1.90181,-3.7304 2.97266,-5.1992 1.07084,-1.4687 2.21718,-2.6821 3.41406,-3.668 1.1969,-0.9859 2.44468,-1.7472 3.72656,-2.3066 1.28192,-0.5594 2.59594,-0.9181 3.92188,-1.1074 0.66296,-0.095 1.32962,-0.148 1.99609,-0.1602 z m 102.56836,0 c 0.43496,-0.01 0.87389,0.012 1.31445,0.055 0.8811,0.087 1.77323,0.2732 2.67188,0.5547 0.89865,0.2813 1.80401,0.6559 2.71094,1.1133 0.90692,0.4573 1.81543,0.9977 2.7207,1.6093 0.90526,0.6117 1.90477,1.3428 2.89648,2.1387 0.99171,0.796 1.97563,1.6568 2.84961,2.5215 1.74804,1.7295 3.44692,3.6751 5.05664,5.7559 1.60967,2.0809 3.1317,4.2983 4.52735,6.5761 1.39564,2.2778 2.27311,4.4205 3.3789,6.7403 1.10578,2.3201 2.04885,4.6224 2.78907,6.8301 0.74018,2.2072 1.27929,4.3213 1.57812,6.2617 0.54305,3.526 1.00328,6.867 1.38086,10.0547 0.37758,3.1876 0.67252,6.222 0.88477,9.1347 0.21229,2.9128 0.34052,5.7022 0.38671,8.4024 0.0462,2.7002 0.0104,5.3111 -0.10937,7.8613 -0.11975,2.5501 -0.32335,5.0406 -0.60938,7.5039 -0.28602,2.4633 -0.65448,4.8995 -1.10742,7.3379 -0.45295,2.4383 -0.98928,4.8779 -1.60937,7.3535 -0.6201,2.4756 -1.32397,4.9871 -2.11133,7.5645 -0.36376,1.1906 -0.7795,2.3106 -1.24024,3.3652 -0.46072,1.0546 -0.96648,2.0436 -1.51367,2.9668 -0.5472,0.9233 -1.13518,1.782 -1.75781,2.5801 -0.62263,0.7981 -1.27992,1.5356 -1.9668,2.2148 -0.68688,0.6794 -1.40259,1.3007 -2.14257,1.8672 -0.74,0.5665 -1.5043,1.0782 -2.28711,1.5371 -1.56562,0.9176 -3.20706,1.623 -4.87696,2.1465 -1.66995,0.5236 -3.36993,0.8647 -5.05664,1.041 -1.68671,0.1776 -3.36055,0.1911 -4.97656,0.066 -1.61602,-0.1239 -3.17504,-0.3885 -4.63281,-0.7656 -1.45774,-0.3773 -2.81342,-0.8678 -4.02539,-1.4512 -1.21196,-0.5835 -2.35875,-1.2275 -3.44141,-1.9433 -1.08266,-0.7157 -2.10064,-1.5019 -3.05469,-2.3653 -0.95404,-0.8631 -1.84567,-1.8057 -2.67187,-2.832 -0.82622,-1.0261 -1.58801,-2.1374 -2.28711,-3.3418 -0.69907,-1.2041 -1.3355,-2.5006 -1.9082,-3.8984 -0.5727,-1.3978 -1.08224,-2.8973 -1.5293,-4.5039 -0.44707,-1.6067 -0.83216,-3.3216 -1.1543,-5.1524 -0.32213,-1.8308 -0.58132,-3.7775 -0.7793,-5.8476 -0.17542,-1.8345 -0.53531,-4.9675 -0.63281,-6.3204 -0.23641,-3.2805 -0.52847,-6.5394 -0.79883,-10.248 -0.27035,-3.7086 -0.519,-7.867 -0.66796,-12.9414 -0.0404,-1.3775 0.0454,-3.2617 0.10742,-5.1758 0.062,-1.914 0.10016,-3.858 -0.0352,-5.3555 -0.27081,-2.9949 -0.34122,-6.1066 -0.26562,-9.2382 0.0755,-3.1317 0.29645,-6.2846 0.61718,-9.3555 0.32077,-3.0707 0.74022,-6.0605 1.20508,-8.8731 0.44889,-2.7155 0.94319,-5.3856 1.68946,-7.9003 0.37313,-1.2574 0.81011,-2.478 1.33593,-3.6446 0.52583,-1.1665 1.13842,-2.2776 1.86914,-3.3262 0.73073,-1.0489 1.5785,-2.0338 2.56641,-2.9375 0.98789,-0.9037 2.11681,-1.729 3.41406,-2.4609 1.29725,-0.7316 2.76498,-1.3715 4.42383,-1.9043 1.65887,-0.5323 3.50937,-0.9571 5.58203,-1.2637 0.42707,-0.063 0.85801,-0.099 1.29297,-0.1074 z m 8.9668,23.5508 c -0.20161,0.01 -0.40188,0.022 -0.60157,0.047 -1.60665,0.2041 -3.10544,1.0313 -4.3457,2.3984 -1.24048,1.3667 -2.17882,3.2251 -2.7207,5.3887 -0.54161,2.1639 -0.66758,4.5566 -0.36524,6.9375 0.1127,0.8888 0.2841,1.7681 0.51172,2.625 0.22761,0.8559 0.51022,1.6854 0.84375,2.4765 0.3333,0.7919 0.716,1.5416 1.14258,2.2383 0.42726,0.6963 0.89631,1.3361 1.40039,1.9102 0.50379,0.5748 1.04023,1.0811 1.60156,1.5117 0.56073,0.4303 1.1436,0.7829 1.74024,1.0527 0.59754,0.2695 1.20594,0.4546 1.8164,0.5528 0.60992,0.098 1.21897,0.1096 1.81836,0.033 1.60596,-0.2046 3.10404,-1.0318 4.34375,-2.3985 1.24048,-1.3666 2.17881,-3.2251 2.72071,-5.3886 0.54161,-2.164 0.66757,-4.5567 0.36523,-6.9375 -0.27709,-2.1804 -0.90485,-4.2834 -1.83008,-6.1309 -0.92447,-1.8472 -2.11901,-3.3847 -3.48242,-4.4824 -1.36396,-1.0977 -2.85666,-1.7227 -4.35156,-1.8223 -0.20288,-0.014 -0.40582,-0.017 -0.60742,-0.012 z m -106.6543,0 c -0.20193,0.01 -0.40355,0.021 -0.60352,0.047 -1.60633,0.2083 -3.10311,1.0395 -4.33984,2.4102 -1.23643,1.3703 -2.16937,3.2315 -2.70508,5.3965 -0.53536,2.1652 -0.65459,4.5578 -0.3457,6.9375 0.11472,0.8882 0.28808,1.7668 0.51758,2.623 0.23019,0.8562 0.51542,1.6857 0.85156,2.4766 0.33541,0.7907 0.72007,1.539 1.14844,2.2344 0.42867,0.6956 0.89904,1.3348 1.40429,1.9082 0.50534,0.5728 1.04308,1.0772 1.60547,1.5058 0.56226,0.4285 1.14645,0.7791 1.74414,1.0469 0.59772,0.2687 1.20611,0.4531 1.81641,0.5508 0.61083,0.097 1.22054,0.1059 1.82031,0.027 1.60562,-0.2087 3.10169,-1.04 4.33789,-2.4101 1.23643,-1.3704 2.16938,-3.2315 2.70508,-5.3965 0.53606,-2.165 0.65596,-4.5576 0.34766,-6.9375 -0.28279,-2.1792 -0.91591,-4.2802 -1.84571,-6.125 -0.92979,-1.8455 -2.12904,-3.3805 -3.49609,-4.4746 -1.36661,-1.0938 -2.86062,-1.7148 -4.35547,-1.8106 -0.20324,-0.013 -0.40549,-0.016 -0.60742,-0.01 z"
     inkscape:export-filename="tinyslug.svg"
     inkscape:export-xdpi="96"
     inkscape:export-ydpi="96"
     sodipodi:nodetypes="sccsssssssssscscssccssssssssccssssssccssssssssscccsssssssssssssscccsccscsssssssscssssscscsssscsscssssssssssssscccssssssssscscscsscccscssssssscssssscssssscssssssssssssssssssscccssssssssssssssssssscsssssssscscssssssssssssssscssssssssssccsssscsssssssssssssssscssssccssssssssssssccssssssssssssssssssssssscssssscssssssssscsssssssssscssscscssssssssssscsssssssssssssscssssssssssssssssscsccsscssssssscssssssscssssssssscssssssssssscsssssssccssssssccscssssssssssssssscssssssssssssssssssscccscccsssssssscssssssssssssscscssssssscssssssssssscsccsssssssssssssssssssssssssccssssssssssssssssssssssccscscccsscccscssccsccssscsccccscscccscccscsscccsscs" /></svg>
