<?xml version="1.0" encoding="UTF-8" standalone="no"?>
<!-- Created with Inkscape (http://www.inkscape.org/) -->

<svg
   version="1.1"
   id="svg1"
   width="550.64551"
   height="435.52872"
   viewBox="0 0 550.64551 435.5287"
   sodipodi:docname="tinyslug black.svg"
   inkscape:version="1.3 (0e150ed6c4, 2023-07-21)"
   xml:space="preserve"
   inkscape:export-filename="tinyslug_black.svg"
   inkscape:export-xdpi="96"
   inkscape:export-ydpi="96"
   xmlns:inkscape="http://www.inkscape.org/namespaces/inkscape"
   xmlns:sodipodi="http://sodipodi.sourceforge.net/DTD/sodipodi-0.dtd"
   xmlns="http://www.w3.org/2000/svg"
   xmlns:svg="http://www.w3.org/2000/svg"><sodipodi:namedview
     id="namedview1"
     pagecolor="#ffffff"
     bordercolor="#000000"
     borderopacity="0.25"
     inkscape:showpageshadow="2"
     inkscape:pageopacity="0.0"
     inkscape:pagecheckerboard="0"
     inkscape:deskcolor="#d1d1d1"
     inkscape:zoom="0.90509668"
     inkscape:cx="275.10873"
     inkscape:cy="236.99126"
     inkscape:window-width="1366"
     inkscape:window-height="745"
     inkscape:window-x="-8"
     inkscape:window-y="-8"
     inkscape:window-maximized="1"
     inkscape:current-layer="g9"
     inkscape:export-bgcolor="#ffffff00" /><defs
     id="defs1" /><g
     id="g9"
     transform="translate(4.1245582e-7,1.0555579e-4)"><path
       d="m 237.40039,248.21289 c -0.20161,0.01 -0.40187,0.0219 -0.60156,0.0469 -0.80333,0.10205 -1.57999,0.36047 -2.31055,0.76367 -0.73056,0.4032 -1.41503,0.95121 -2.03516,1.63476 -0.62023,0.68335 -1.16566,1.4906 -1.62304,2.39649 -0.45738,0.90588 -0.82672,1.91039 -1.09766,2.99218 -0.2708,1.08195 -0.4386,2.22045 -0.5,3.38672 -0.0614,1.16628 -0.0164,2.36034 0.13477,3.55078 0.1127,0.8888 0.2841,1.76811 0.51172,2.625 0.22761,0.8559 0.51022,1.68547 0.84375,2.47657 0.3333,0.7919 0.71599,1.54158 1.14257,2.23828 0.42726,0.6963 0.89632,1.33606 1.40039,1.91015 0.50379,0.5748 1.04024,1.08112 1.60157,1.51172 0.56073,0.4303 1.14359,0.78294 1.74023,1.05274 0.59754,0.2695 1.20595,0.45453 1.81641,0.55273 0.60992,0.098 1.21897,0.10981 1.81836,0.0332 0.80298,-0.1023 1.57836,-0.36046 2.30859,-0.76368 0.73023,-0.40321 1.4153,-0.95141 2.03516,-1.63476 0.62024,-0.6833 1.16371,-1.4906 1.62109,-2.39649 0.45738,-0.90588 0.82866,-1.91043 1.09961,-2.99218 0.27081,-1.082 0.43665,-2.22045 0.49805,-3.38672 0.0614,-1.16628 0.0183,-2.36038 -0.13282,-3.55078 -0.13854,-1.0902 -0.36464,-2.16022 -0.67187,-3.18946 -0.30723,-1.02923 -0.69559,-2.01765 -1.1582,-2.9414 -0.46224,-0.9236 -0.99156,-1.769 -1.57618,-2.52149 -0.58461,-0.75248 -1.22454,-1.41209 -1.90625,-1.96094 -0.68197,-0.54884 -1.39642,-0.97924 -2.12695,-1.28515 -0.73053,-0.30591 -1.47716,-0.48731 -2.22461,-0.53711 -0.20288,-0.014 -0.40582,-0.0167 -0.60742,-0.0117 z"
       style="display:inline;fill:#f9f9f9;stroke:#000100;stroke-width:0;stroke-opacity:0.870968"
       id="path7" /><path
       d="m 130.74609,248.21289 c -0.20193,0.01 -0.40354,0.0209 -0.60351,0.0469 -0.80317,0.10415 -1.57902,0.36435 -2.3086,0.76953 -0.72957,0.40517 -1.41288,0.95527 -2.03125,1.64062 -0.61821,0.68515 -1.16048,1.49318 -1.61523,2.40039 -0.45475,0.90721 -0.82199,1.9136 -1.08984,2.9961 -0.26768,1.0826 -0.43212,2.22241 -0.49024,3.38867 -0.0581,1.16626 -0.01,2.35898 0.14453,3.54883 0.11472,0.8882 0.28808,1.76684 0.51758,2.62304 0.23019,0.8562 0.51542,1.68567 0.85156,2.47657 0.33541,0.79069 0.72007,1.53897 1.14844,2.23437 0.42867,0.6956 0.89905,1.3348 1.4043,1.9082 0.50534,0.5728 1.04308,1.07726 1.60547,1.50586 0.56226,0.4285 1.14645,0.77908 1.74414,1.04688 0.59772,0.2687 1.2061,0.45308 1.8164,0.55078 0.61083,0.097 1.22055,0.10624 1.82032,0.0273 0.80281,-0.10435 1.57739,-0.36435 2.30664,-0.76953 0.72924,-0.40517 1.41315,-0.95557 2.03125,-1.64062 0.61821,-0.6852 1.16048,-1.49319 1.61523,-2.40039 0.45475,-0.9072 0.822,-1.9136 1.08984,-2.9961 0.26803,-1.0825 0.43179,-2.22241 0.49024,-3.38867 0.0584,-1.16626 0.0116,-2.35888 -0.14258,-3.54883 -0.14139,-1.0896 -0.36983,-2.15925 -0.67969,-3.1875 -0.30985,-1.02825 -0.70111,-2.0151 -1.16601,-2.9375 -0.4649,-0.92275 -0.99707,-1.76833 -1.58399,-2.51953 -0.58691,-0.7512 -1.22858,-1.40803 -1.91211,-1.95508 -0.6833,-0.5469 -1.39967,-0.97534 -2.13086,-1.27929 -0.73118,-0.30395 -1.47718,-0.48335 -2.2246,-0.53125 -0.20324,-0.013 -0.4055,-0.0158 -0.60743,-0.01 z"
       style="display:inline;fill:#f9f9f9;stroke:#000100;stroke-width:0;stroke-opacity:0.870968"
       id="path6" /><path
       d="m 237.40039,248.21289 c -0.20161,0.01 -0.40187,0.0219 -0.60156,0.0469 -0.40167,0.051 -0.79574,0.14177 -1.18164,0.26953 -0.3859,0.12776 -0.76363,0.29254 -1.12891,0.49414 -0.36528,0.2016 -0.71864,0.44004 -1.05859,0.71289 -0.33996,0.27284 -0.6665,0.5801 -0.97657,0.92187 -0.31011,0.34168 -0.60198,0.71477 -0.87304,1.11524 -0.27106,0.40046 -0.52131,0.8283 -0.75,1.28125 -0.22869,0.45294 -0.43577,0.9301 -0.61914,1.42968 -0.18338,0.49959 -0.34305,1.02161 -0.47852,1.5625 -0.1354,0.54098 -0.24465,1.09646 -0.32812,1.66211 -0.0835,0.56566 -0.14118,1.14148 -0.17188,1.72461 -0.0307,0.58314 -0.0342,1.17252 -0.0117,1.76563 0.0225,0.5931 0.0709,1.18994 0.14649,1.78515 0.1127,0.8888 0.2841,1.76812 0.51172,2.625 0.22761,0.8559 0.51022,1.68547 0.84375,2.47657 0.3333,0.7919 0.71599,1.54158 1.14257,2.23828 0.42726,0.6963 0.89633,1.33607 1.40039,1.91015 0.2519,0.2874 0.51205,0.5583 0.7793,0.81055 0.26725,0.25226 0.5416,0.48587 0.82227,0.70117 0.28036,0.21515 0.56703,0.41027 0.85742,0.58594 0.29039,0.17567 0.58449,0.3319 0.88281,0.4668 0.29877,0.13475 0.6012,0.24762 0.9043,0.33984 0.3031,0.0922 0.60688,0.16379 0.91211,0.21289 0.30496,0.049 0.61063,0.0764 0.91406,0.082 0.30343,0.006 0.6046,-0.0105 0.9043,-0.0488 0.40149,-0.0512 0.79614,-0.14181 1.18164,-0.26954 0.38549,-0.12773 0.76184,-0.29253 1.12695,-0.49414 0.36512,-0.2016 0.71857,-0.44002 1.05859,-0.71289 0.34003,-0.27287 0.66664,-0.5802 0.97657,-0.92187 0.31012,-0.34165 0.60052,-0.71476 0.87109,-1.11524 0.27057,-0.40047 0.52131,-0.8283 0.75,-1.28125 0.22869,-0.45294 0.43528,-0.93009 0.61914,-1.42968 0.18386,-0.49959 0.345,-1.02163 0.48047,-1.5625 0.13541,-0.541 0.24514,-1.09647 0.32813,-1.66211 0.083,-0.56565 0.13922,-1.14148 0.16992,-1.72461 0.0307,-0.58314 0.0357,-1.17252 0.0137,-1.76563 -0.022,-0.59311 -0.0709,-1.18995 -0.14649,-1.78515 -0.0693,-0.5451 -0.16119,-1.08476 -0.27343,-1.61719 -0.11225,-0.53244 -0.24483,-1.05765 -0.39844,-1.57227 -0.15361,-0.51461 -0.32816,-1.01854 -0.52148,-1.50976 -0.19332,-0.49123 -0.40542,-0.96977 -0.63672,-1.43164 -0.23112,-0.4618 -0.479,-0.90336 -0.74219,-1.32422 -0.26319,-0.42086 -0.54168,-0.82102 -0.83399,-1.19727 -0.2923,-0.37624 -0.59774,-0.72907 -0.91601,-1.05664 -0.31827,-0.32757 -0.64938,-0.62987 -0.99024,-0.9043 -0.34098,-0.27441 -0.68974,-0.51993 -1.04492,-0.73437 -0.35517,-0.21444 -0.71676,-0.39783 -1.08203,-0.55078 -0.36526,-0.15296 -0.73406,-0.27542 -1.10547,-0.36524 -0.3714,-0.0898 -0.74541,-0.14697 -1.11914,-0.17187 -0.20288,-0.0137 -0.40582,-0.0167 -0.60742,-0.0117 z"
       style="display:inline;stroke:#000100;stroke-width:0;stroke-opacity:0.870968"
       id="path9" /><path
       d="m 130.74609,248.21289 c -0.20193,0.01 -0.40354,0.0209 -0.60351,0.0469 -0.40159,0.0521 -0.79609,0.14276 -1.18164,0.27148 -0.38556,0.12872 -0.76217,0.29546 -1.12696,0.49805 -0.36478,0.20258 -0.71732,0.441 -1.05664,0.71484 -0.33932,0.27384 -0.66542,0.58311 -0.97461,0.92578 -0.3091,0.34258 -0.59945,0.71614 -0.86914,1.11719 -0.26968,0.40105 -0.51872,0.8296 -0.74609,1.2832 -0.22737,0.45361 -0.4331,0.93133 -0.61523,1.43164 -0.18214,0.50031 -0.34069,1.02321 -0.47461,1.56446 -0.13384,0.5413 -0.24239,1.098 -0.32422,1.66406 -0.0818,0.56606 -0.13697,1.14148 -0.16602,1.72461 -0.029,0.58313 -0.0319,1.17293 -0.008,1.76562 0.0241,0.5927 0.0751,1.18828 0.15234,1.78321 0.11472,0.8882 0.28808,1.76684 0.51758,2.62304 0.23019,0.8562 0.51542,1.68567 0.85156,2.47657 0.33541,0.79068 0.72007,1.53897 1.14844,2.23437 0.42867,0.6956 0.89905,1.3348 1.4043,1.9082 0.25267,0.2864 0.51335,0.55535 0.78125,0.80664 0.2679,0.25129 0.54302,0.48492 0.82422,0.69922 0.28113,0.21425 0.56833,0.40931 0.85937,0.58399 0.29104,0.17468 0.58592,0.32899 0.88477,0.46289 0.29886,0.13435 0.6012,0.24795 0.90429,0.33984 0.3031,0.0919 0.60696,0.16209 0.91211,0.21094 0.30542,0.0485 0.61031,0.0755 0.91407,0.0801 0.30375,0.005 0.60636,-0.0133 0.90625,-0.0527 0.4014,-0.0522 0.79648,-0.14279 1.18164,-0.27148 0.38515,-0.12869 0.76037,-0.29546 1.125,-0.49805 0.36462,-0.20258 0.71724,-0.44096 1.05664,-0.71484 0.33939,-0.27388 0.66556,-0.58326 0.97461,-0.92578 0.3091,-0.3426 0.59945,-0.71614 0.86914,-1.11719 0.26968,-0.40105 0.51872,-0.8296 0.74609,-1.2832 0.22738,-0.4536 0.4331,-0.93133 0.61524,-1.43164 0.18213,-0.50032 0.34069,-1.02321 0.4746,-1.56446 0.13402,-0.54125 0.24248,-1.09603 0.32422,-1.66211 0.0817,-0.56607 0.13677,-1.14343 0.16602,-1.72656 0.0292,-0.58313 0.0315,-1.17294 0.008,-1.76562 -0.0237,-0.59269 -0.0733,-1.18823 -0.15039,-1.78321 -0.0707,-0.5448 -0.16383,-1.08504 -0.27734,-1.61719 -0.11352,-0.53214 -0.24742,-1.05618 -0.40235,-1.57031 -0.15492,-0.51412 -0.33073,-1.01727 -0.52539,-1.50781 -0.19466,-0.49054 -0.40817,-0.96849 -0.64062,-1.42969 -0.23245,-0.46137 -0.48158,-0.90358 -0.7461,-1.32422 -0.26452,-0.42063 -0.54443,-0.81971 -0.83789,-1.19531 -0.29345,-0.3756 -0.6007,-0.7282 -0.91992,-1.05469 -0.31922,-0.32648 -0.65042,-0.62686 -0.99219,-0.90039 -0.34165,-0.27345 -0.69097,-0.517 -1.04687,-0.73047 -0.3559,-0.21346 -0.71839,-0.39685 -1.08399,-0.54882 -0.36558,-0.15198 -0.73414,-0.2725 -1.10546,-0.36133 -0.37133,-0.0888 -0.74543,-0.14597 -1.11914,-0.16992 -0.20324,-0.013 -0.4055,-0.0158 -0.60743,-0.01 z"
       style="display:inline;stroke:#000100;stroke-width:0;stroke-opacity:0.870968"
       id="path8" /><path
       d="m 369.11719,138.0918 c -3.17315,0.014 -6.35263,0.12673 -9.53516,0.33593 -3.18254,0.2093 -6.36777,0.51456 -9.55469,0.91016 0,0 -0.96548,-0.61526 -1.26367,-0.78906 -0.35795,3.93929 -0.71244,7.86758 -1.24219,11.17187 -0.3542,2.2094 -0.7488,4.29223 -1.1875,6.26563 -0.4387,1.9735 -0.92181,3.83923 -1.45117,5.61523 -0.52937,1.776 -1.10623,3.46113 -1.73242,5.07813 -0.6262,1.617 -1.30207,3.16571 -2.03125,4.66211 -1.24189,1.2522 -2.65294,2.51735 -4.18945,3.78515 -1.5365,1.2677 -3.19825,2.53707 -4.94141,3.79297 -3.48633,2.5118 -7.29693,4.97169 -11.08203,7.27149 -3.78512,2.29979 -7.54373,4.43999 -10.92383,6.30859 -3.3801,1.8686 -6.38297,3.46735 -8.6543,4.68555 -1.8394,0.9865 -3.73686,1.85663 -5.68359,2.61523 -1.94673,0.7586 -3.94243,1.40486 -5.98047,1.94336 -2.03804,0.5387 -4.11713,0.97018 -6.23047,1.29688 -2.11333,0.3268 -4.26097,0.54907 -6.43359,0.67187 -2.17264,0.1228 -4.37002,0.14597 -6.58594,0.0723 -2.21593,-0.073 -4.45016,-0.24086 -6.69336,-0.50196 -2.24319,-0.2611 -4.49552,-0.61564 -6.75,-1.05664 -2.25447,-0.441 -4.51198,-0.96903 -6.76172,-1.58203 -2.24973,-0.6129 -4.4917,-1.31099 -6.7207,-2.08789 -2.229,-0.7769 -4.44447,-1.63351 -6.63672,-2.56641 -2.19225,-0.93279 -4.36247,-1.94068 -6.50195,-3.02148 -2.1395,-1.0809 -4.24765,-2.23428 -6.31836,-3.45508 -2.07073,-1.2208 -4.10389,-2.51048 -6.08984,-3.86328 -1.98595,-1.3528 -3.92539,-2.76929 -5.81055,-4.24609 -1.88518,-1.4768 -3.71599,-3.01267 -5.48438,-4.60547 -1.76838,-1.5927 -3.47379,-3.24266 -5.10937,-4.94336 -1.49023,-1.7424 -2.80768,-3.3851 -3.96289,-4.9336 -1.15521,-1.54849 -2.14769,-3.00252 -2.99414,-4.36132 -0.84643,-1.3589 -1.54546,-2.62348 -2.10938,-3.79688 -0.41913,-0.8722 -0.69109,-1.64236 -0.96679,-2.41406 -2.93044,0.3715 -5.80644,0.80131 -8.62305,1.28711 -2.83581,0.489 -5.61325,1.03371 -8.33008,1.6289 -2.81617,0.8254 -5.71106,1.65808 -8.69141,2.57618 -2.98034,0.9181 -6.04707,1.92315 -9.20898,3.09375 -3.16193,1.1705 -6.41841,2.50714 -9.7793,4.08984 -3.36088,1.5827 -6.82511,3.40996 -10.40234,5.56445 -1.78862,1.0772 -3.6052,2.23613 -5.45117,3.48633 -1.84595,1.2501 -3.72147,2.59216 -5.62695,4.03516 -1.90549,1.443 -3.84142,2.98678 -5.8086,4.64258 -1.96719,1.65579 -3.96699,3.4239 -5.99805,5.3125 -2.03105,1.88859 -4.0943,3.89776 -6.1914,6.03906 -2.09709,2.1413 -4.22728,4.41413 -6.39258,6.82812 -1.082659,1.207 -2.207181,2.42183 -3.324219,3.6875 -1.117038,1.26568 -2.22659,2.58219 -3.277344,3.98828 -2.345472,3.13865 -4.366875,5.88485 -6.121093,8.66797 -0.877109,1.39156 -1.687319,2.79307 -2.4375,4.25586 -0.750181,1.4628 -1.440948,2.98814 -2.078125,4.62891 -1.177069,3.0633 -2.256089,6.19663 -3.236328,9.39062 -0.980259,3.1939 -1.859633,6.44846 -2.638672,9.75196 -0.779049,3.30349 -1.457761,6.65663 -2.03125,10.04883 -0.57348,3.39199 -1.042701,6.8234 -1.40625,10.2832 -0.36354,3.4597 -0.620282,6.94673 -0.769532,10.45312 -0.149249,3.5061 -0.190523,7.03246 -0.121093,10.56446 0.0694,3.53199 0.248546,7.07082 0.541015,10.60742 0.29248,3.5368 0.696898,7.06965 1.216797,10.58984 0.51986,3.5204 1.154601,7.02872 1.90625,10.51172 0.751689,3.4831 1.621536,6.94229 2.609375,10.36719 0.987829,3.4248 2.093897,6.81466 3.322266,10.16015 1.228329,3.3456 2.577523,6.64553 4.050781,9.89063 1.473269,3.2453 3.070441,6.43645 4.792969,9.56055 1.722528,3.12409 3.57266,6.18216 5.548828,9.16406 1.976178,2.982 4.080265,5.88833 6.314455,8.70703 -1.20355,0.9765 -2.31903,2.00623 -3.3457,3.08203 -1.026695,1.0759 -1.964889,2.19702 -2.814458,3.35352 -0.849579,1.1566 -1.610964,2.34986 -2.283203,3.56836 -0.67222,1.2186 -1.255321,2.46261 -1.75,3.72461 -0.49467,1.26189 -0.901861,2.53977 -1.21875,3.82617 -0.31686,1.28659 -0.544734,2.5825 -0.683594,3.875 -0.13886,1.2927 -0.187837,2.58328 -0.148438,3.86328 0.0394,1.2799 0.168829,2.55013 0.386719,3.79883 0.21786,1.2487 0.523293,2.47514 0.919922,3.67383 0.39662,1.19875 0.883415,2.36784 1.458984,3.49804 0.57558,1.1302 1.241345,2.22283 1.996094,3.26563 0.754739,1.0429 1.599024,2.03761 2.533203,2.97461 0.934149,0.937 1.958441,1.81465 3.072271,2.62695 1.11381,0.8124 2.31567,1.55736 3.60937,2.22656 1.29369,0.6691 2.67852,1.26233 4.15234,1.76953 1.47382,0.5071 3.03723,0.92926 4.69141,1.25586 3.28651,0.6491 6.46598,1.1325 9.53516,1.4668 3.06922,0.3341 6.02898,0.51887 8.87304,0.57227 2.84406,0.053 5.57451,-0.0254 8.18555,-0.21875 2.61101,-0.19329 5.10252,-0.50047 7.47266,-0.90625 2.3701,-0.406 4.61691,-0.90975 6.73828,-1.49415 2.12136,-0.58416 4.11764,-1.24981 5.98242,-1.97851 1.86477,-0.7287 3.59892,-1.52038 5.19922,-2.35938 1.60031,-0.83906 3.06656,-1.72532 4.39453,-2.64062 3.56768,0.9203 7.24281,1.72204 11.02539,2.39844 3.78253,0.6765 7.67379,1.22698 11.67383,1.64648 4,0.4196 8.10802,0.70772 12.32812,0.85742 4.22013,0.1495 8.55134,0.1605 12.99414,0.0273 4.44283,-0.1334 8.99788,-0.41035 13.66602,-0.83985 4.66809,-0.4294 9.44966,-1.0115 14.3457,-1.75 4.89606,-0.7384 9.90664,-1.63286 15.03321,-2.69336 5.12661,-1.0605 10.36876,-2.28604 15.72851,-3.68164 1.1279,1.398 2.46,2.71251 3.96484,3.94141 1.50488,1.2289 3.18378,2.37183 5.00782,3.42773 1.82403,1.0558 3.79347,2.0255 5.8789,2.9043 2.08544,0.8789 4.28721,1.66749 6.57618,2.36523 2.289,0.6978 4.66486,1.30361 7.0996,1.81641 2.43477,0.513 4.92846,0.93186 7.45118,1.25586 2.5227,0.3241 5.07405,0.55239 7.62695,0.68359 2.55288,0.1311 5.10756,0.16534 7.63281,0.0996 2.52526,-0.065 5.02112,-0.22959 7.46094,-0.49609 2.43978,-0.2665 4.82257,-0.63417 7.11914,-1.10547 2.29654,-0.4712 4.50805,-1.04666 6.60352,-1.72656 2.09549,-0.68 4.07549,-1.46462 5.91211,-2.35742 1.83665,-0.8926 3.52885,-1.89266 5.04882,-3.00196 1.51998,-1.1092 2.8682,-2.3283 4.01368,-3.6582 0.57276,-0.6649 1.09419,-1.35918 1.5625,-2.08008 0.4683,-0.7209 0.88359,-1.46879 1.24023,-2.24609 0.35661,-0.7772 0.65486,-1.58377 0.89258,-2.41797 0.23773,-0.834 0.41382,-1.69629 0.52539,-2.58789 2.80866,0.443 5.87521,0.81438 9.10156,1.08398 3.22633,0.2695 6.61328,0.43746 10.06445,0.47266 3.4512,0.035 6.96599,-0.0623 10.44922,-0.32227 3.48326,-0.2602 6.93534,-0.68408 10.25782,-1.30078 1.66126,-0.3082 3.29009,-0.66542 4.875,-1.07422 1.58493,-0.4088 3.12486,-0.86962 4.60937,-1.38671 1.4845,-0.51699 2.91348,-1.08976 4.27344,-1.72266 1.35996,-0.6327 2.65194,-1.32388 3.86328,-2.08008 1.21132,-0.7562 2.34226,-1.57754 3.38086,-2.46484 1.0386,-0.8873 1.98439,-1.84139 2.82617,-2.86719 0.84178,-1.026 1.57836,-2.12282 2.19922,-3.29492 0.62085,-1.17228 1.12612,-2.4201 1.50195,-3.7461 0.95264,0.4753 2.09322,0.9148 3.39258,1.3125 1.29935,0.3976 2.75754,0.75485 4.34375,1.06055 1.58619,0.3055 3.3001,0.56037 5.11328,0.75977 1.81319,0.1994 3.72674,0.34307 5.70703,0.42187 1.9803,0.079 4.0277,0.0934 6.11524,0.0371 2.08753,-0.056 4.21467,-0.18357 6.34961,-0.38867 2.13489,-0.2051 4.27794,-0.48697 6.40039,-0.85547 2.12245,-0.3685 4.22529,-0.82334 6.27539,-1.36914 2.0501,-0.5462 4.04889,-1.18553 5.96679,-1.92383 1.91791,-0.738 3.75462,-1.57523 5.48047,-2.51953 1.72584,-0.9443 3.34053,-1.99546 4.81446,-3.16016 1.47388,-1.16479 2.80665,-2.44405 3.96875,-3.84375 1.16207,-1.39939 2.15296,-2.91986 2.94336,-4.56836 0.39527,-0.82429 0.74018,-1.68111 1.03125,-2.57031 0.2911,-0.8892 0.52948,-1.80972 0.70898,-2.76562 0.1795,-0.9559 0.30095,-1.94631 0.36133,-2.97071 0.06,-1.02439 0.0573,-2.08333 -0.0117,-3.17773 -0.066,-1.0947 -0.19618,-2.22588 -0.39648,-3.39258 -0.2002,-1.1669 -0.4706,-2.36867 -0.8125,-3.60937 2.42869,-0.034 4.73248,-0.27391 6.90625,-0.69141 2.17379,-0.4176 4.21827,-1.01317 6.12695,-1.76367 1.9087,-0.7505 3.68301,-1.6548 5.3164,-2.6875 1.6335,-1.0326 3.12662,-2.19489 4.47461,-3.45899 1.348,-1.26409 2.55112,-2.63137 3.60352,-4.07617 1.0524,-1.4448 1.95457,-2.96631 2.70117,-4.54101 0.7466,-1.5748 1.33698,-3.20157 1.76758,-4.85547 0.4305,-1.654 0.70019,-3.33518 0.80469,-5.01758 0.1043,-1.6822 0.0426,-3.36549 -0.18946,-5.02539 -0.232,-1.6601 -0.63419,-3.29777 -1.21289,-4.88477 -0.5786,-1.58699 -1.33393,-3.12459 -2.26953,-4.58789 -0.9355,-1.463 -2.05101,-2.85202 -3.35351,-4.14062 -1.3025,-1.2884 -2.79111,-2.47587 -4.47071,-3.53906 -1.67969,-1.0632 -3.55009,-2.00197 -5.61718,-2.78907 -2.06697,-0.7872 -4.33023,-1.42251 -6.79493,-1.88281 -2.46456,-0.4603 -5.13153,-0.74542 -8.0039,-0.82812 0.1874,-3.1735 0.33955,-6.54685 0.43554,-10.08985 0.096,-3.54309 0.13662,-7.25597 0.10352,-11.10547 -0.033,-3.84979 -0.13964,-7.83814 -0.33984,-11.93164 -0.2001,-4.09359 -0.49364,-8.29191 -0.89844,-12.5664 -0.4048,-4.2746 -0.92106,-8.62499 -1.56836,-13.01758 -0.6472,-4.3926 -1.42602,-8.8276 -2.35352,-13.27539 -0.92741,-4.4476 -2.02557,-8.90156 -3.25,-13.34766 -0.93513,-3.39555 -1.63566,-5.63172 -2.3457,-7.45703 -0.71004,-1.82531 -1.42959,-3.23979 -2.40234,-4.99219 -1.07467,-1.93605 -2.31882,-4.2068 -3.61914,-6.4082 -1.30033,-2.2014 -2.65683,-4.33355 -3.95508,-5.99609 -1.56431,-2.20743 -3.03396,-4.18829 -4.48047,-6.03516 -1.44651,-1.84688 -2.87076,-3.56064 -4.3457,-5.23047 -2.94989,-3.33966 -6.102,-6.50774 -10.04297,-10.24023 -2.84077,-2.55975 -6.64709,-5.66451 -10.54883,-8.6211 -3.90174,-2.95658 -7.89894,-5.76503 -11.12305,-7.73633 -1.45912,-0.93214 -3.07118,-1.73266 -4.68945,-2.5 -1.61827,-0.76733 -3.24276,-1.50148 -4.72656,-2.30078 -2.9676,-1.5986 -5.95874,-3.0665 -8.97071,-4.4082 -3.01196,-1.3417 -6.04438,-2.55669 -9.0957,-3.65039 -3.05133,-1.0937 -6.12135,-2.06542 -9.20703,-2.91992 -3.0857,-0.8545 -6.18768,-1.5927 -9.30273,-2.2168 -3.11506,-0.6241 -6.2434,-1.13461 -9.38282,-1.53711 -3.13942,-0.4025 -6.28847,-0.69702 -9.44726,-0.88672 -3.15878,-0.1898 -6.32684,-0.27396 -9.5,-0.25976 z m -243.25196,86.57031 c 0.66648,-0.012 1.33357,0.0151 1.99805,0.0781 1.32895,0.1254 2.6485,0.393 3.93945,0.77539 1.29097,0.3821 2.55171,0.8795 3.76368,1.4629 1.21197,0.5838 2.35117,1.27707 3.41992,2.07617 1.06877,0.7992 2.06781,1.70268 2.99804,2.70898 0.93024,1.0061 1.7934,2.11366 2.58985,3.31836 0.79642,1.2049 1.52407,2.50569 2.1914,3.90039 0.66737,1.3949 1.27169,2.88279 1.81446,4.45899 0.54278,1.57619 1.024,3.24083 1.44726,4.99023 0.42325,1.7494 0.78715,3.58375 1.09571,5.49805 0.30856,1.9143 0.56178,3.90862 0.75976,5.97851 0.17544,1.8348 -0.0448,3.40142 -0.0508,4.75782 -0.0186,3.93399 0.16417,7.93117 0.29297,11.88476 0.12879,3.9535 0.20366,7.86351 -0.0293,11.62891 -0.38067,6.15289 -0.9318,10.87406 -1.70312,17.68945 -0.35277,3.1173 -0.67013,7.06192 -1.07422,10.13281 -0.20204,1.5352 -0.62864,3.05136 -1.0625,4.53516 -0.43387,1.4839 -0.87499,2.9355 -1.10742,4.3418 -0.22444,1.35779 -0.50359,2.71151 -0.84766,4.04101 -0.34408,1.3296 -0.75309,2.63495 -1.23633,3.90235 -0.48326,1.26729 -1.03902,2.49667 -1.68164,3.66796 -0.64265,1.1711 -1.37135,2.28342 -2.19336,3.32422 -0.82202,1.041 -1.73838,2.00837 -2.75976,2.88477 -1.02138,0.8766 -2.14794,1.6634 -3.38867,2.3418 -1.2407,0.67819 -2.59807,1.24756 -4.07813,1.69335 -1.48008,0.4459 -3.08481,0.76777 -4.82422,0.94727 -0.85887,0.089 -1.69401,0.0925 -2.50586,0.0195 -0.81186,-0.073 -1.60043,-0.22486 -2.36523,-0.44726 -0.76478,-0.223 -1.50688,-0.51726 -2.22461,-0.87696 -0.71771,-0.3598 -1.4111,-0.78488 -2.08203,-1.26758 -1.34186,-0.96559 -2.58763,-2.16342 -3.74219,-3.54492 -1.15458,-1.3817 -2.2159,-2.94477 -3.18359,-4.63867 -0.96768,-1.6939 -1.84182,-3.51898 -2.62305,-5.42187 -0.78126,-1.9026 -1.4712,-3.88468 -2.06641,-5.89258 -0.59522,-2.0081 -1.09798,-4.04244 -1.50781,-6.05274 -0.40983,-2.01029 -0.72673,-3.9965 -0.95117,-5.90429 -0.4152,-3.7592 -0.74262,-7.34069 -0.98633,-10.77149 -0.24371,-3.43079 -0.40372,-6.71109 -0.48633,-9.86719 -0.0826,-3.15609 -0.0874,-6.18614 -0.0176,-9.11914 0.0698,-2.93299 0.21437,-5.76885 0.42774,-8.53125 0.21341,-2.76229 0.4963,-5.4513 0.84375,-8.0957 0.34747,-2.6443 0.75954,-5.24407 1.23242,-7.82226 0.94574,-5.1562 2.13582,-10.23051 3.52734,-15.4375 0.69576,-2.6034 1.50244,-4.89836 2.40625,-6.90625 0.9038,-2.008 1.90181,-3.73042 2.97266,-5.19922 1.07084,-1.4687 2.21718,-2.68207 3.41406,-3.66797 1.1969,-0.9859 2.44469,-1.74724 3.72657,-2.30664 1.28191,-0.5594 2.59593,-0.91812 3.92187,-1.10742 0.66296,-0.095 1.32963,-0.14796 1.99609,-0.16016 z m 102.56836,0 c 0.43496,-0.01 0.8739,0.0117 1.31446,0.0547 0.8811,0.087 1.77322,0.27318 2.67187,0.55468 0.89865,0.2813 1.80401,0.65589 2.71094,1.11329 0.90692,0.4573 1.81543,0.99777 2.7207,1.60937 0.90526,0.6117 1.90478,1.34277 2.89649,2.13867 0.99171,0.796 1.97563,1.65679 2.84961,2.52149 1.74803,1.7295 3.44692,3.67506 5.05664,5.75586 1.60967,2.08089 3.13169,4.29837 4.52734,6.57617 1.39564,2.2778 2.27312,4.42043 3.37891,6.74023 1.10578,2.3201 2.04884,4.62238 2.78906,6.83008 0.74018,2.2072 1.27929,4.32132 1.57812,6.26172 0.54305,3.526 1.00328,6.86699 1.38086,10.05469 0.37758,3.18759 0.67252,6.22207 0.88477,9.13476 0.21229,2.9128 0.34053,5.70215 0.38672,8.40235 0.0462,2.70019 0.0104,5.31113 -0.10938,7.86132 -0.11975,2.5501 -0.32334,5.04061 -0.60937,7.50391 -0.28602,2.4633 -0.65448,4.89949 -1.10742,7.33789 -0.45295,2.4383 -0.98929,4.87792 -1.60938,7.35352 -0.6201,2.47559 -1.32397,4.98705 -2.11133,7.56445 -0.36376,1.1906 -0.77949,2.31064 -1.24023,3.36523 -0.46072,1.0546 -0.96648,2.0436 -1.51367,2.9668 -0.5472,0.9233 -1.13519,1.78198 -1.75782,2.58008 -0.62263,0.7981 -1.27991,1.53564 -1.96679,2.21484 -0.68688,0.6794 -1.4026,1.30069 -2.14258,1.86719 -0.74,0.5665 -1.5043,1.07821 -2.28711,1.53711 -1.56562,0.9176 -3.20705,1.62298 -4.87695,2.14648 -1.66995,0.5236 -3.36994,0.86472 -5.05664,1.04102 -1.68671,0.1776 -3.36056,0.19151 -4.97657,0.0664 -1.61601,-0.1239 -3.17504,-0.38853 -4.63281,-0.76563 -1.45774,-0.3773 -2.81342,-0.86777 -4.02539,-1.45117 -1.21196,-0.5835 -2.35875,-1.22756 -3.44141,-1.94336 -1.08265,-0.7157 -2.10063,-1.50184 -3.05468,-2.36523 -0.95404,-0.8631 -1.84568,-1.80574 -2.67188,-2.83204 -0.82622,-1.02609 -1.58801,-2.13739 -2.28711,-3.34179 -0.69907,-1.2041 -1.3355,-2.50064 -1.9082,-3.89844 -0.5727,-1.3978 -1.08224,-2.89731 -1.5293,-4.50391 -0.44707,-1.60669 -0.83215,-3.32154 -1.15429,-5.15234 -0.32213,-1.8308 -0.58132,-3.77756 -0.7793,-5.84766 -0.17542,-1.83449 -0.53531,-4.96741 -0.63281,-6.32031 -0.23641,-3.2805 -0.52847,-6.53945 -0.79883,-10.24805 -0.27035,-3.70859 -0.51901,-7.86701 -0.66797,-12.9414 -0.0404,-1.3775 0.0454,-3.26169 0.10742,-5.17578 0.062,-1.914 0.1002,-3.85797 -0.0352,-5.35547 -0.2708,-2.9949 -0.34122,-6.10669 -0.26562,-9.23828 0.0755,-3.1317 0.29646,-6.28457 0.61719,-9.35547 0.32077,-3.0707 0.74022,-6.06045 1.20508,-8.87305 0.44889,-2.7155 0.94318,-5.38569 1.68945,-7.90039 0.37313,-1.2574 0.81012,-2.47793 1.33594,-3.64453 0.52583,-1.1665 1.13842,-2.27757 1.86914,-3.32617 0.73073,-1.0489 1.57849,-2.0338 2.5664,-2.9375 0.98789,-0.9037 2.11682,-1.72904 3.41407,-2.46094 1.29724,-0.7316 2.76498,-1.3715 4.42382,-1.9043 1.65887,-0.5323 3.50938,-0.95707 5.58203,-1.26367 0.42707,-0.063 0.85801,-0.099 1.29297,-0.10742 z"
       style="display:inline;fill:#000000;stroke:#000100;stroke-width:0;stroke-opacity:0.870968"
       id="path3" /><path
       d="m 446.91602,0 v 0.00390625 l -34.19336,0.76757812 c 0,0 -0.57192,0.15767534 -1.16602,0.48437503 -0.29706,0.1631998 -0.59973,0.3688877 -0.83984,0.6171875 -0.2401,0.2482997 -0.41672,0.5393003 -0.46289,0.875 -0.1264,0.9183991 -0.3562,1.8783322 -0.65821,2.8320312 -0.30202,0.9537991 -0.67775,1.9022759 -1.09961,2.796875 -0.42187,0.8945991 -0.88902,1.7351629 -1.375,2.4765629 -0.48597,0.741099 -0.99008,1.383353 -1.48437,1.876953 -0.49431,0.493499 -0.97889,0.840587 -1.42578,0.992187 -0.4469,0.1518 -0.8555,0.108719 -1.19922,-0.175781 -0.34371,-0.2845 -0.62183,-0.812054 -0.80664,-1.626953 -0.1848,-0.814899 -0.27598,-1.917724 -0.2461,-3.357422 0.0578,-0.4347996 -0.0687,-0.7593253 -0.26367,-1.015625 -0.19497,-0.2562997 -0.4592,-0.4453689 -0.67773,-0.6054688 -2.8428,-2.0820979 -4.4175,-3.3698917 -5.93946,-4.5253906 -0.9218,-0.6997993 -1.67853,-1.0513283 -2.43945,-1.2363281 -0.76093,-0.18479981 -1.52623,-0.20338128 -2.46875,-0.23828125 L 352.0918,3.2890625 c -0.32132,0.035 -0.65971,0.2204753 -0.91993,0.546875 -0.26021,0.3263997 -0.44192,0.7934256 -0.45117,1.390625 -0.0161,1.035599 0.0366,2.4572422 -0.1289,3.9941406 -0.0829,0.7685993 -0.22095,1.5657229 -0.44922,2.3574219 -0.2283,0.791799 -0.54629,1.579173 -0.99219,2.326172 -0.44588,0.746999 -1.01834,1.453591 -1.75391,2.087891 -0.73557,0.634199 -1.63506,1.194937 -2.73242,1.648437 -1.09737,0.4535 -2.39456,0.799206 -3.92578,1.003906 -1.53123,0.2047 -3.29683,0.26845 -5.33398,0.15625 -0.33761,-0.018 -0.6628,0.01397 -0.97852,0.109375 -0.31573,0.096 -0.62189,0.257147 -0.91601,0.498047 -0.29414,0.2411 -0.57677,0.562316 -0.84961,0.978516 -0.2728,0.416299 -0.53526,0.927028 -0.78711,1.548828 -0.64983,1.604198 -1.24202,3.313345 -1.78125,5.089844 -0.53922,1.776598 -1.0256,3.620995 -1.46485,5.496093 -0.8785,3.749797 -1.56706,7.623017 -2.10937,11.320313 -0.0569,0.388099 -0.0752,0.694225 -0.12891,1.078125 0.0881,0.074 0.15394,0.078 0.24414,0.158203 0.74946,0.670499 1.57096,1.579701 2.46289,2.75 0.89193,1.170299 1.85411,2.600295 2.88672,4.308594 1.03261,1.708298 2.13514,3.696071 3.30664,5.980468 1.1715,2.284298 2.41212,4.866928 3.72071,7.765625 1.30858,2.898698 2.68501,6.112967 4.1289,9.664063 0.70987,1.745898 1.51215,4.385838 2.31055,7.552734 0.7984,3.166797 1.5944,6.860642 2.29297,10.710938 0.69858,3.850296 1.29858,7.858103 1.70898,11.654293 0.4104,3.7962 0.63059,7.38017 0.56445,10.38477 -0.0427,1.9399 -0.16824,3.36935 -0.22851,5.18945 0.0339,0 0.0558,-0.01 0.0898,-0.01 3.92368,-0.2065 7.87669,-0.30869 11.84961,-0.30469 3.97292,0 7.96485,0.11584 11.96289,0.33984 3.99805,0.2239 8.00293,0.55862 12.00196,1.01172 3.99904,0.4531 7.99286,1.02335 11.96875,1.71485 3.9759,0.69159 7.9327,1.50611 11.86132,2.44531 3.92863,0.9393 7.82833,2.00302 11.68555,3.19922 3.85722,1.1962 7.67387,2.52393 11.43555,3.98632 3.76169,1.4624 7.46931,3.06093 11.11133,4.79883 3.64202,1.7379 7.21856,3.61598 10.71679,5.63867 3.49824,2.0227 6.91774,4.18927 10.24805,6.50586 3.3303,2.3166 6.57074,4.78235 9.70898,7.40235 3.13825,2.62 6.17366,5.39357 9.09571,8.32617 2.92206,2.9325 5.73038,6.0249 8.41211,9.2793 2.68174,3.25429 5.23701,6.67231 7.65429,10.25781 2.41729,3.5854 4.69747,7.33798 6.82618,11.26367 2.1287,3.9257 4.10587,8.02343 5.92187,12.29883 l 20.29688,0.94336 10.05273,-6.50977 c 0.6198,-0.5846 0.96759,-1.15583 1.16797,-1.79883 0.2005,-0.64309 0.2539,-1.35968 0.2832,-2.23828 0.058,-1.72179 0.18931,-2.92168 0.41211,-3.80078 0.2225,-0.8792 0.53543,-1.43714 0.95703,-1.86914 0.4216,-0.4321 0.95207,-0.74069 1.60547,-1.12109 0.6537,-0.3802 1.43206,-0.83244 2.35156,-1.55664 0.316,-0.2489 0.56305,-0.53302 0.74805,-0.85352 0.185,-0.3203 0.30695,-0.67796 0.37305,-1.06836 0.1324,-0.781 0.0394,-1.69935 -0.23047,-2.75195 -0.26988,-1.0528 -0.71622,-2.23994 -1.29102,-3.55274 -0.5748,-1.31289 -1.27641,-2.7511 -2.05859,-4.3125 -1.5645,-3.12309 -3.44771,-6.73255 -5.25781,-10.78125 -0.905,-2.02429 -1.79104,-4.15808 -2.61133,-6.39648 -0.82029,-2.2384 -1.57469,-4.58234 -2.21289,-7.02344 -0.051,-0.3157 -0.22906,-0.56895 -0.50586,-0.78125 -0.27688,-0.2124 -0.6534,-0.3825 -1.0957,-0.5332 -0.8848,-0.3012 -2.03987,-0.52197 -3.22657,-0.82617 -1.1867,-0.3041 -2.40361,-0.69173 -3.41211,-1.33203 -0.5041,-0.3201 -0.95657,-0.70343 -1.32617,-1.16993 -0.3697,-0.46659 -0.65713,-1.01717 -0.83203,-1.67187 -0.3554,-1.3289 -0.52734,-2.51061 -0.55664,-3.57031 -0.029,-1.0597 0.0827,-1.9981 0.29687,-2.8418 0.2134,-0.8437 0.5277,-1.59244 0.9004,-2.27344 0.3726,-0.6809 0.80347,-1.29373 1.25195,-1.86523 0.897,-1.143 1.86242,-2.12013 2.5625,-3.14453 0.3501,-0.5121 0.63475,-1.03536 0.81055,-1.59766 0.1758,-0.5625 0.2439,-1.16418 0.1621,-1.83008 -1.03789,-4.94099 -2.26976,-11.49572 -3.28906,-18.07031 -0.5096,-3.2876 -0.96526,-6.58079 -1.31836,-9.67969 -0.3531,-3.09869 -0.60402,-6.003924 -0.69922,-8.515622 0,-0.663399 -0.13511,-1.221132 -0.38281,-1.707031 -0.2475,-0.486 -0.6039,-0.898691 -1.0293,-1.275391 -0.85069,-0.753499 -1.98333,-1.357585 -3.10351,-2.083984 -0.56,-0.3633 -1.11571,-0.757697 -1.63281,-1.216797 -0.517,-0.459 -0.99423,-0.982369 -1.39453,-1.605469 -0.4003,-0.622899 -0.7235,-1.345672 -0.9336,-2.201172 -0.2099,-0.855499 -0.30603,-1.843801 -0.25195,-3 0.053,-1.129098 0.21574,-2.106044 0.46484,-2.964843 0.249,-0.8587 0.58268,-1.598707 0.97266,-2.253907 0.39,-0.654899 0.83702,-1.225941 1.3125,-1.74414 0.47556,-0.5181 0.98073,-0.983741 1.48633,-1.431641 1.0111,-0.895799 2.02709,-1.719276 2.82617,-2.734375 0.3996,-0.507599 0.74471,-1.061719 1.00781,-1.699219 0.2634,-0.637499 0.44578,-1.357307 0.51758,-2.191406 l 1.51758,-17.396484 c 0,0 1.72896,-11.685835 2.97656,-17.923828 0.182,-0.914399 0.26103,-1.66151 0.24023,-2.28711 -0.021,-0.625499 -0.14233,-1.130247 -0.36523,-1.560547 -0.2228,-0.430199 -0.5463,-0.784781 -0.9707,-1.113281 -0.4244,-0.3285 -0.94872,-0.630972 -1.57422,-0.951172 -1.64568,-0.842499 -3.33574,-1.629422 -4.86524,-2.482422 -0.7647,-0.426599 -1.48873,-0.86915 -2.14843,-1.34375 -0.65989,-0.474499 -1.25567,-0.980403 -1.75977,-1.533203 -0.5042,-0.552899 -0.91694,-1.153054 -1.21484,-1.814453 -0.2979,-0.661399 -0.48059,-1.385248 -0.52149,-2.185547 -0.041,-0.800199 0.06,-1.677285 0.32617,-2.646484 0.2666,-0.969299 0.69962,-2.03072 1.32422,-3.199219 0.3075,-0.575199 0.54774,-1.3889413 0.49024,-2.1816405 -0.028,-0.3963996 -0.13295,-0.7882254 -0.33985,-1.140625 -0.2069,-0.3525996 -0.51588,-0.6667565 -0.95898,-0.9101563 -2.1834,-1.6218983 -3.86772,-2.7750508 -5.16602,-3.5937499 -1.29839,-0.8188992 -2.21216,-1.3032847 -2.85156,-1.58398442 -0.6395,-0.28069972 -1.00619,-0.35733439 -1.21289,-0.36523438 -0.2066,-0.01 -0.25195,0.0527344 -0.25195,0.0527344 l -35.7793,0.24023438 c -0.73106,0.10899989 -1.41051,0.45688482 -1.98242,0.95898432 -0.57189,0.5020995 -1.03646,1.1580601 -1.33789,1.8808594 -0.38745,1.9204981 -0.89195,3.5425857 -1.47656,4.8964844 -0.58461,1.3537986 -1.24914,2.4383566 -1.95899,3.2851566 -0.70985,0.846899 -1.46533,1.455869 -2.22851,1.855468 -0.76315,0.3995 -1.53473,0.589463 -2.2793,0.601563 -0.74458,0.012 -1.46118,-0.155004 -2.11524,-0.470703 -0.65407,-0.3156 -1.24467,-0.779582 -1.73632,-1.363281 -0.49161,-0.5837 -0.88528,-1.286426 -1.14258,-2.078125 -0.2573,-0.7919994 -0.37905,-1.6725827 -0.33008,-2.6132818 -0.0134,-0.1992998 -0.0502,-0.5849129 -0.16992,-1.0078125 -0.11965,-0.4228995 -0.3217,-0.8835347 -0.66602,-1.2402343 -0.74779,-0.7746993 -1.7996,-1.4690757 -2.91797,-2.171875 -1.11831,-0.7025593 -2.3027,-1.4138702 -3.31832,-2.2243694 -0.46465,-0.37069962 -0.8824,-0.64291268 -1.32812,-0.8203125 C 447.96637,0.08041268 447.49205,-0.0035 446.91602,0 Z"
       style="display:inline;fill:#000000;stroke:#000100;stroke-width:0;stroke-opacity:0.870968"
       id="path2" /><path
       d="m 85.44696,34.808526 c -0.92753,0 -1.94747,8e-4 -5.24023,0.4414 -3.29278,0.4405 -8.85926,1.3216 -18.87696,3.084 -4.405931,1.5536 -8.325701,3.0784 -11.816401,4.5644 -3.49072,1.4859 -6.55326,2.9315 -9.2461,4.3243 -2.69286,1.3928 -5.01492,2.7334 -7.02734,4.007799 -2.01241,1.2743 -3.71469,2.4829 -5.16406,3.6133 -1.44936,1.1302 -2.64671,2.1832 -3.65039,3.1445 -1.0037,0.9613 -1.81286,1.8308 -2.48828,2.5976 -1.35082,1.5334 -2.16225,2.653 -2.9043,3.2559 -0.37102,0.3016 -0.66704,0.62 -0.90039,0.9473 -0.23334,0.3271 -0.40365,0.6632 -0.52539,0.998 -0.24349,0.6696 -0.29052,1.3364 -0.24414,1.9278 0.0928,1.1826 0.55664,2.0625 0.55664,2.0625 l 3.24609,7.607399 c 0,0 -6.30736,0.8341 -10.38867,1.3906 -1.02032,0.1391 -1.83824,0.3196 -2.50781,0.5645 -0.66956,0.245 -1.19017,0.5549 -1.61914,0.955 -0.42897,0.3999 -0.76592,0.8898 -1.06446,1.4942 -0.29854,0.6045 -0.55961,1.3236 -0.83789,2.1816 -0.88119,3.2928 -1.62685,6.4819 -2.24804,9.572299 -0.62119,3.0905 -1.11672,6.0809 -1.49805,8.980397 -0.38131,2.8994 -0.64899,5.7079 -0.81055,8.4278 -0.1616,2.7199 -0.21768,5.3525 -0.17968,7.9043 0.0379,2.5516 0.17122,5.023 0.38867,7.4179 0.21747,2.395 0.51969,4.7132 0.89648,6.9629 0.3768,2.2496 0.82777,4.4296 1.34375,6.545 0.51599,2.1158 1.09738,4.1669 1.73242,6.1601 0.63503,1.9932 1.32463,3.9285 2.0586,5.8106 0.73397,1.8822 1.51147,3.7117 2.32422,5.4941 1.6255,3.565 3.38913,6.941 5.20898,10.1758 1.81987,3.2347 3.69571,6.3284 5.54883,9.3242 1.85313,2.9959 3.6829,5.8939 5.4082,8.7422 0.83894,1.3849 1.73357,2.7262 2.67774,4.0234 0.94415,1.2971 1.93686,2.5508 2.97656,3.7617 1.0397,1.2108 2.12642,2.3797 3.25195,3.5059 1.12551,1.126 2.29055,2.2092 3.49219,3.252 2.40326,2.086 4.95013,4.0081 7.59961,5.7714 2.64947,1.7634 5.40273,3.3687 8.2207,4.8223 2.81803,1.4534 5.70051,2.7557 8.609381,3.9121 2.90888,1.1565 4.08573,1.7763 7.00781,2.6485 2.59955,-5.3629 3.7279,-7.8146 7.13476,-12.5997 1.05786,-1.4858 3.55214,-4.9828 4.7461,-6.6992 1.19395,-1.7164 2.81249,-3.3984 4.25976,-5.2226 1.44728,-1.8243 3.01716,-3.693 4.70313,-5.5879 1.68596,-1.8949 3.48842,-3.8159 5.39844,-5.7442 1.91,-1.9282 3.92744,-3.8627 6.04687,-5.7871 2.11943,-1.9243 4.34009,-3.8374 6.6543,-5.7207 2.31421,-1.8832 4.72246,-3.736 7.21679,-5.541 2.49435,-1.8049 5.07453,-3.5626 7.73438,-5.2519 2.65985,-1.6894 13.90265,-7.8352 16.84961,-9.1817 2.94696,-1.3465 5.9588,-2.5897 9.02734,-3.709 3.06856,-1.1192 6.19364,-2.114 9.36914,-2.9687 3.17552,-0.8548 6.40209,-1.5681 9.66993,-2.1211 3.26783,-0.553 6.5783,-0.9462 9.92382,-1.1602 0.12435,-0.01 0.21297,3e-4 0.33594,-0.012 -0.0244,-2.6947 -0.0739,-5.3619 -0.2168,-7.9199 -0.17141,-3.0682 -0.42591,-6.0384 -0.75781,-8.916 -0.33191,-2.8777 -0.74123,-5.6625 -1.22265,-8.3555 -0.48145,-2.6931 -1.03429,-5.2958 -1.6543,-7.8105 -0.62005,-2.5146 -1.30702,-4.94109 -2.05469,-7.283197 -0.74768,-2.3422 -1.55748,-4.5993 -2.42187,-6.7754 -0.86439,-2.176199 -1.78375,-4.270999 -2.75391,-6.287099 -0.97016,-2.0157 -1.98974,-3.9544 -3.05469,-5.8164 -1.06497,-1.8621 -2.17536,-3.6472 -3.32422,-5.3614 -1.14886,-1.7141 -2.3368,-3.3574 -3.55859,-4.929699 -1.22181,-1.5724 -2.47792,-3.075 -3.76172,-4.5117 -1.28376,-1.4368 -2.59488,-2.8062 -3.92969,-4.1133 -1.33483,-1.3072 -2.6934,-2.5506 -4.06836,-3.7343 -1.37493,-1.1836 -2.76775,-2.3086 -4.17187,-3.375 -2.80825,-2.1329 -5.66224,-4.036099 -8.52149,-5.736399 -2.85924,-1.7002 -5.72219,-3.197 -8.54492,-4.5136 -2.82271,-1.3166 -5.60601,-2.4539 -8.30468,-3.4356 -2.69868,-0.9819 -5.31374,-1.8081 -7.80079,-2.5039 -2.48706,-0.6961 -4.84721,-1.2617 -7.03515,-1.7207 -4.37582,-0.9179 -8.06471,-1.4105 -10.71875,-1.6738 -2.65405,-0.2634 -4.27202,-0.2969 -4.50391,-0.2969 z"
       style="display:inline;fill:#000000;stroke:#000100;stroke-width:0;stroke-opacity:0.870968"
       id="path1" /><path
       d="m 255.27704,10.150335 c -3.90454,-0.013 -7.69029,0.043 -11.50195,0.31639 -1.90584,0.137 -3.8172,0.3289 -5.75391,0.5938 -1.9367,0.2649 -3.89869,0.6048 -5.90234,1.0351 -2.00367,0.4304 -4.04958,0.9531 -6.15625,1.586 -2.10669,0.6331 -4.27377,1.3767 -6.51953,2.25 0,0 -1.43092,0.9081 -3.63282,2.5957 -1.10098,0.8437 -2.39406,1.8818 -3.79882,3.0996 -1.40477,1.2177 -2.92074,2.614 -4.46485,4.1738 -1.54409,1.5598 -3.1158,3.2825 -4.63476,5.1523 -1.519,1.8699 -2.98504,3.8872 -4.31446,6.0352 -1.32939,2.148 -2.52268,4.4282 -3.49804,6.8223 -0.48771,1.1971 -0.92072,2.423 -1.28907,3.6757 -0.36834,1.2526 -0.67194,2.5317 -0.90039,3.836 -0.73145,4.1762 -1.30707,8.2348 -1.74023,12.1738 -0.43315,3.939 -0.72407,7.7583 -0.89258,11.457001 -0.16849,3.6987 -0.21286,7.2754 -0.15039,10.7305 0.0625,3.4552 0.23045,6.787699 0.49023,9.996099 0.25975,3.2084 0.60984,6.293515 1.03321,9.252005 0.42337,2.9584 0.92132,5.7905 1.47461,8.496 0.5533,2.7055 1.16297,5.2852 1.8125,7.7344 0.64954,2.4492 1.33867,4.769 2.05078,6.959 1.42418,4.3795 2.93978,8.2378 4.41211,11.56059 1.47233,3.3229 2.90133,6.1107 4.15234,8.3515 1.25102,2.24061 2.32377,3.93331 3.08399,5.0664 0.69147,1.0307 1.02512,1.4584 1.09765,1.5528 0.007,0.01 0.10938,0.1543 0.10938,0.1543 l 0.0918,0.057 c 1.9469,2.3117 3.90735,4.4777 5.87891,6.5039 1.97155,2.0262 3.9534,3.9135 5.94141,5.668 1.988,1.7544 3.98225,3.3767 5.97851,4.873 1.99626,1.4963 3.99588,2.8673 5.99219,4.1192 1.9963,1.2518 3.99038,2.3834 5.97851,3.4043 1.98815,1.0209 3.96963,1.9305 5.94141,2.7343 1.97178,0.8039 3.93364,1.5032 5.88086,2.1035 1.94722,0.6004 3.88048,1.1013 5.79492,1.5118 1.91445,0.4104 3.81013,0.7305 5.6836,0.9648 1.87345,0.2343 3.72455,0.3833 5.54882,0.4551 1.82429,0.072 3.62177,0.065 5.38868,-0.012 1.76689,-0.077 3.50181,-0.2253 5.20312,-0.4375 1.70132,-0.2123 3.36858,-0.4885 4.99609,-0.8223 1.62753,-0.3338 3.2162,-0.7243 4.76172,-1.166 1.54553,-0.4417 3.04859,-0.9348 4.50391,-1.4707 1.45532,-0.536 2.86379,-1.1159 4.2207,-1.7324 2.48148,-1.1275 4.81251,-2.3043 7.10547,-3.6211 2.29296,-1.3169 4.54788,-2.7723 6.87109,-4.4571 2.32323,-1.6847 4.71483,-3.5988 7.28711,-5.83 2.5723,-2.2313 5.32508,-4.7802 8.36524,-7.7364 0.54031,-1.032 1.04377,-2.1695 1.51172,-3.4004 0.46795,-1.2308 0.89929,-2.5547 1.29687,-3.957 0.79518,-2.8046 1.4528,-5.9256 1.97852,-9.2519 0.52572,-3.3263 0.91913,-6.8591 1.1914,-10.4883 0.27227,-3.6293 0.42222,-7.3551 0.45704,-11.0684 0.0348,-3.7133 -0.0438,-7.4136 -0.23047,-10.9922 -0.18663,-3.5785 -0.48097,-7.0348 -0.87305,-10.25969 -0.39208,-3.225005 -0.88331,-6.218605 -1.46484,-8.871104 -0.58153,-2.6526 -1.25284,-4.9649 -2.00782,-6.8262 -0.96886,-2.9609 -2.0175,-5.8431 -3.13672,-8.6445 -0.0153,-0.038 -0.0335,-0.073 -0.0488,-0.1114 -1.10579,-2.7608 -2.2763,-5.448201 -3.50586,-8.050801 -1.2466,-2.6383 -2.55135,-5.1938 -3.90235,-7.666 -1.351,-2.4723 -2.74917,-4.8595 -4.18164,-7.1621 -1.43249,-2.3025 -2.89961,-4.5209 -4.39062,-6.6504 -1.49101,-2.1295 -3.0047,-4.1701 -4.53125,-6.123 -1.52656,-1.9529 -3.06633,-3.8169 -4.60547,-5.5899 -1.53915,-1.7729 -3.07865,-3.4553 -4.60742,-5.0449 -3.05756,-3.1794 -6.07088,-5.9889 -8.94922,-8.414 -2.87832,-2.4253 -5.6213,-4.4672 -8.13672,-6.1114 -2.51539,-1.6442 -4.8046,-2.8907 -6.77344,-3.7265 -0.98439,-0.4179 -1.88784,-0.7327 -2.70117,-0.9434 -0.81334,-0.2107 -1.53501,-0.3184 -2.1543,-0.3184 -4.286,0 -8.31027,-0.081 -12.21484,-0.094 z M 209.77118,154.69333 c 0.008,0.01 0.017,0.017 0.0254,0.025 -0.008,-0.01 -0.017,-0.017 -0.0254,-0.025 z"
       style="display:inline;fill:#000000;stroke:#000100;stroke-width:0;stroke-opacity:0.870968"
       id="path1-5" /></g></svg>
